# Blender 4.5.4 LTS
# www.blender.org
mtllib ball.mtl
o Sphere
v -1.517490 7.632432 -0.000001
v -2.976664 7.189796 -0.000001
v -4.321446 6.470995 -0.000001
v -5.500157 5.503651 -0.000001
v -6.467502 4.324940 -0.000001
v -7.186302 2.980159 -0.000001
v -7.628938 1.520984 -0.000000
v -7.778398 0.003494 -0.000000
v -7.628938 -1.513994 -0.000000
v -7.186303 -2.973168 -0.000000
v -6.467502 -4.317952 0.000000
v -5.500157 -5.496664 0.000000
v -4.321446 -6.464008 0.000000
v -2.976663 -7.182808 0.000000
v -1.517488 -7.625444 0.000000
v 0.000003 -7.774904 0.000000
v -1.488332 7.632432 -0.296049
v -2.919468 7.189796 -0.580720
v -4.238411 6.470995 -0.843074
v -5.394474 5.503651 -1.073029
v -6.343230 4.324940 -1.261748
v -7.048219 2.980159 -1.401978
v -7.482349 1.520984 -1.488332
v -7.628938 0.003494 -1.517491
v -7.482350 -1.513995 -1.488333
v -7.048220 -2.973168 -1.401978
v -6.343230 -4.317952 -1.261747
v -5.394474 -5.496664 -1.073028
v -4.238410 -6.464008 -0.843073
v -2.919467 -7.182808 -0.580719
v -1.488330 -7.625444 -0.296048
v -1.401978 7.632432 -0.580720
v -2.750079 7.189796 -1.139122
v -3.992495 6.470995 -1.653748
v -5.081482 5.503651 -2.104821
v -5.975192 4.324940 -2.475008
v -6.639277 2.980158 -2.750079
v -7.048219 1.520984 -2.919469
v -7.186302 0.003494 -2.976665
v -7.048219 -1.513995 -2.919469
v -6.639277 -2.973169 -2.750080
v -5.975192 -4.317952 -2.475007
v -5.081482 -5.496664 -2.104820
v -3.992495 -6.464008 -1.653747
v -2.750078 -7.182808 -1.139120
v -1.401976 -7.625444 -0.580719
v -1.261747 7.632432 -0.843075
v -2.475005 7.189796 -1.653748
v -3.593151 6.470995 -2.400869
v -4.573213 5.503651 -3.055726
v -5.377530 4.324940 -3.593153
v -5.975191 2.980158 -3.992497
v -6.343229 1.520984 -4.238412
v -6.467500 0.003494 -4.321448
v -6.343229 -1.513995 -4.238412
v -5.975192 -2.973169 -3.992497
v -5.377530 -4.317952 -3.593153
v -4.573213 -5.496664 -3.055725
v -3.593150 -6.464008 -2.400868
v -2.475004 -7.182808 -1.653747
v -1.261745 -7.625444 -0.843073
v -1.073027 7.632432 -1.073030
v -2.104819 7.189796 -2.104822
v -3.055723 6.470995 -3.055727
v -3.889198 5.503651 -3.889201
v -4.573213 4.324940 -4.573216
v -5.081482 2.980158 -5.081484
v -5.394472 1.520984 -5.394475
v -5.500156 0.003494 -5.500159
v -5.394472 -1.513995 -5.394475
v -5.081482 -2.973169 -5.081484
v -4.573213 -4.317952 -4.573215
v -3.889198 -5.496664 -3.889200
v -3.055722 -6.464008 -3.055725
v -2.104818 -7.182808 -2.104820
v -1.073026 -7.625444 -1.073028
v -0.843071 7.632432 -1.261750
v -1.653745 7.189796 -2.475009
v -2.400866 6.470995 -3.593154
v -3.055722 5.503651 -4.573216
v -3.593150 4.324940 -5.377533
v -3.992494 2.980158 -5.975194
v -4.238409 1.520984 -6.343232
v -4.321445 0.003494 -6.467504
v -4.238409 -1.513995 -6.343232
v -3.992495 -2.973169 -5.975194
v -3.593150 -4.317952 -5.377532
v -3.055722 -5.496664 -4.573215
v -2.400865 -6.464008 -3.593153
v -1.653744 -7.182808 -2.475007
v -0.843070 -7.625444 -1.261747
v -0.580717 7.632432 -1.401981
v -1.139118 7.189796 -2.750082
v -1.653744 6.470995 -3.992498
v -2.104817 5.503651 -5.081486
v -2.475003 4.324940 -5.975195
v -2.750077 2.980158 -6.639279
v -2.919465 1.520984 -7.048221
v -2.976662 0.003494 -7.186305
v -2.919465 -1.513995 -7.048221
v -2.750078 -2.973169 -6.639279
v -2.475003 -4.317952 -5.975194
v -2.104817 -5.496664 -5.081485
v -1.653744 -6.464008 -3.992497
v -1.139118 -7.182808 -2.750080
v -0.580716 -7.625444 -1.401978
v -0.296046 7.632432 -1.488335
v -0.580716 7.189796 -2.919471
v -0.843070 6.470995 -4.238414
v -1.073025 5.503651 -5.394476
v -1.261744 4.324940 -6.343233
v -1.401976 2.980158 -7.048222
v -1.488329 1.520984 -7.482350
v -1.517488 0.003494 -7.628941
v -1.488329 -1.513995 -7.482350
v -1.401977 -2.973169 -7.048222
v -1.261744 -4.317952 -6.343232
v -1.073025 -5.496664 -5.394475
v -0.843070 -6.464008 -4.238412
v -0.580716 -7.182808 -2.919469
v -0.296045 -7.625444 -1.488332
v 0.000003 7.632432 -1.517493
v 0.000002 7.189796 -2.976667
v 0.000002 6.470995 -4.321449
v 0.000002 5.503651 -5.500160
v 0.000003 4.324940 -6.467504
v 0.000002 2.980158 -7.186305
v 0.000003 1.520984 -7.628939
v 0.000003 0.003494 -7.778399
v 0.000003 -1.513995 -7.628939
v 0.000002 -2.973169 -7.186305
v 0.000003 -4.317952 -6.467503
v 0.000002 -5.496664 -5.500159
v 0.000003 -6.464008 -4.321447
v 0.000002 -7.182808 -2.976665
v 0.000002 -7.625444 -1.517490
v 0.296051 7.632432 -1.488335
v 0.580721 7.189796 -2.919471
v 0.843075 6.470995 -4.238414
v 1.073030 5.503651 -5.394476
v 1.261750 4.324940 -6.343232
v 1.401980 2.980158 -7.048222
v 1.488335 1.520984 -7.482349
v 1.517493 0.003494 -7.628941
v 1.488335 -1.513995 -7.482349
v 1.401980 -2.973169 -7.048222
v 1.261750 -4.317952 -6.343231
v 1.073030 -5.496664 -5.394475
v 0.843075 -6.464008 -4.238412
v 0.580721 -7.182808 -2.919469
v 0.296050 -7.625444 -1.488332
v 0.580722 7.632432 -1.401981
v 1.139123 7.189796 -2.750082
v 1.653749 6.470995 -3.992498
v 2.104822 5.503651 -5.081485
v 2.475009 4.324940 -5.975194
v 2.750081 2.980158 -6.639279
v 2.919471 1.520984 -7.048220
v 2.976667 0.003494 -7.186305
v 2.919471 -1.513995 -7.048220
v 2.750081 -2.973169 -6.639279
v 2.475009 -4.317952 -5.975193
v 2.104822 -5.496664 -5.081484
v 1.653749 -6.464008 -3.992496
v 1.139123 -7.182808 -2.750079
v 0.580721 -7.625444 -1.401978
v 0.843076 7.632432 -1.261749
v 1.653749 7.189796 -2.475008
v 2.400870 6.470995 -3.593154
v 3.055727 5.503651 -4.573216
v 3.593154 4.324940 -5.377532
v 3.992498 2.980158 -5.975194
v 4.238413 1.520984 -6.343229
v 4.321449 0.003494 -6.467503
v 4.238413 -1.513995 -6.343229
v 3.992498 -2.973169 -5.975194
v 3.593154 -4.317952 -5.377531
v 3.055727 -5.496664 -4.573215
v 2.400870 -6.464008 -3.593152
v 1.653749 -7.182808 -2.475006
v 0.843075 -7.625444 -1.261747
v 1.073031 7.632432 -1.073030
v 2.104823 7.189796 -2.104822
v 3.055727 6.470995 -3.055726
v 3.889202 5.503651 -3.889200
v 4.573217 4.324940 -4.573215
v 5.081486 2.980158 -5.081484
v 5.394476 1.520984 -5.394474
v 5.500161 0.003494 -5.500158
v 5.394476 -1.513995 -5.394474
v 5.081486 -2.973169 -5.081484
v 4.573217 -4.317952 -4.573214
v 3.889202 -5.496664 -3.889199
v 3.055727 -6.464008 -3.055724
v 2.104822 -7.182808 -2.104820
v 1.073030 -7.625444 -1.073028
v 1.261751 7.632432 -0.843074
v 2.475009 7.189796 -1.653748
v 3.593154 6.470995 -2.400868
v 4.573217 5.503651 -3.055725
v 5.377533 4.324940 -3.593152
v 5.975195 2.980158 -3.992497
v 6.343232 1.520984 -4.238410
v 6.467505 0.003494 -4.321446
v 6.343232 -1.513995 -4.238410
v 5.975195 -2.973169 -3.992497
v 5.377533 -4.317952 -3.593151
v 4.573217 -5.496664 -3.055724
v 3.593154 -6.464008 -2.400867
v 2.475008 -7.182808 -1.653746
v 1.261750 -7.625444 -0.843072
v 1.401982 7.632432 -0.580720
v 2.750082 7.189796 -1.139122
v 3.992499 6.470995 -1.653747
v 5.081486 5.503651 -2.104820
v 5.975194 4.324940 -2.475005
v 6.639280 2.980158 -2.750079
v 7.048221 1.520984 -2.919467
v 7.186306 0.003494 -2.976664
v 7.048221 -1.513995 -2.919467
v 6.639280 -2.973169 -2.750079
v 5.975194 -4.317952 -2.475005
v 5.081486 -5.496664 -2.104819
v 3.992498 -6.464008 -1.653746
v 2.750081 -7.182808 -1.139120
v 1.401981 -7.625444 -0.580718
v 1.488336 7.632432 -0.296049
v 2.919472 7.189796 -0.580720
v 4.238414 6.470995 -0.843074
v 5.394476 5.503651 -1.073028
v 6.343232 4.324940 -1.261747
v 7.048222 2.980159 -1.401978
v 7.482351 1.520984 -1.488331
v 7.628942 0.003494 -1.517490
v 7.482351 -1.513995 -1.488331
v 7.048222 -2.973168 -1.401978
v 6.343232 -4.317952 -1.261746
v 5.394476 -5.496664 -1.073027
v 4.238413 -6.464008 -0.843072
v 2.919471 -7.182808 -0.580718
v 1.488334 -7.625444 -0.296048
v 1.517494 7.632432 -0.000001
v 2.976667 7.189796 -0.000001
v 4.321449 6.470995 -0.000001
v 5.500160 5.503651 -0.000001
v 6.467502 4.324940 0.000000
v 7.186305 2.980159 -0.000001
v 7.628939 1.520984 0.000001
v 7.778400 0.003494 0.000001
v 7.628939 -1.513994 0.000001
v 7.186305 -2.973168 -0.000000
v 6.467502 -4.317952 0.000001
v 5.500160 -5.496664 0.000000
v 4.321448 -6.464008 0.000000
v 2.976666 -7.182808 0.000000
v 1.517493 -7.625444 0.000000
v 1.488336 7.632432 0.296047
v 2.919471 7.189796 0.580717
v 4.238414 6.470995 0.843071
v 5.394476 5.503651 1.073027
v 6.343231 4.324940 1.261746
v 7.048222 2.980159 1.401978
v 7.482350 1.520985 1.488332
v 7.628941 0.003495 1.517491
v 7.482350 -1.513994 1.488332
v 7.048222 -2.973168 1.401978
v 6.343231 -4.317952 1.261747
v 5.394476 -5.496664 1.073028
v 4.238413 -6.464008 0.843072
v 2.919470 -7.182808 0.580718
v 1.488334 -7.625444 0.296048
v 1.401982 7.632432 0.580718
v 2.750082 7.189796 1.139119
v 3.992499 6.470995 1.653745
v 5.081485 5.503651 2.104818
v 5.975192 4.324940 2.475006
v 6.639280 2.980159 2.750077
v 7.048220 1.520985 2.919468
v 7.186305 0.003495 2.976665
v 7.048220 -1.513994 2.919468
v 6.639280 -2.973168 2.750078
v 5.975192 -4.317952 2.475006
v 5.081485 -5.496664 2.104819
v 3.992497 -6.464008 1.653746
v 2.750081 -7.182808 1.139120
v 1.401980 -7.625444 0.580718
v 1.261750 7.632432 0.843072
v 2.475008 7.189796 1.653745
v 3.593154 6.470995 2.400866
v 4.573216 5.503651 3.055723
v 5.377531 4.324941 3.593151
v 5.975194 2.980159 3.992495
v 6.343230 1.520985 4.238410
v 6.467503 0.003495 4.321446
v 6.343230 -1.513994 4.238410
v 5.975194 -2.973168 3.992495
v 5.377531 -4.317951 3.593151
v 4.573216 -5.496664 3.055724
v 3.593153 -6.464008 2.400867
v 2.475007 -7.182808 1.653745
v 1.261749 -7.625444 0.843072
v 1.073031 7.632432 1.073027
v 2.104821 7.189796 2.104818
v 3.055727 6.470995 3.055723
v 3.889201 5.503652 3.889198
v 4.573214 4.324941 4.573212
v 5.081485 2.980159 5.081481
v 5.394474 1.520985 5.394473
v 5.500159 0.003495 5.500157
v 5.394474 -1.513994 5.394473
v 5.081485 -2.973168 5.081481
v 4.573214 -4.317951 4.573213
v 3.889201 -5.496663 3.889199
v 3.055726 -6.464008 3.055723
v 2.104821 -7.182808 2.104819
v 1.073030 -7.625444 1.073027
v 0.843075 7.632432 1.261747
v 1.653748 7.189796 2.475005
v 2.400870 6.470996 3.593150
v 3.055726 5.503652 4.573213
v 3.593151 4.324941 5.377528
v 3.992498 2.980159 5.975192
v 4.238410 1.520985 6.343227
v 4.321447 0.003495 6.467502
v 4.238410 -1.513994 6.343227
v 3.992498 -2.973168 5.975192
v 3.593151 -4.317951 5.377529
v 3.055726 -5.496663 4.573214
v 2.400868 -6.464007 3.593151
v 1.653747 -7.182808 2.475005
v 0.843075 -7.625444 1.261747
v 0.580721 7.632432 1.401978
v 1.139122 7.189796 2.750077
v 1.653748 6.470996 3.992495
v 2.104821 5.503652 5.081482
v 2.475006 4.324941 5.975189
v 2.750081 2.980159 6.639277
v 2.919468 1.520985 7.048216
v 2.976665 0.003495 7.186302
v 2.919468 -1.513994 7.048216
v 2.750081 -2.973168 6.639277
v 2.475006 -4.317951 5.975190
v 2.104821 -5.496663 5.081483
v 1.653748 -6.464007 3.992495
v 1.139122 -7.182808 2.750078
v 0.580721 -7.625444 1.401978
v 0.296050 7.632432 1.488332
v 0.580720 7.189796 2.919467
v 0.843075 6.470996 4.238410
v 1.073029 5.503652 5.394473
v 1.261747 4.324941 6.343226
v 1.401981 2.980159 7.048219
v 1.488332 1.520985 7.482347
v 1.517491 0.003495 7.628936
v 1.488332 -1.513994 7.482347
v 1.401981 -2.973168 7.048219
v 1.261747 -4.317951 6.343227
v 1.073029 -5.496663 5.394474
v 0.843074 -6.464007 4.238410
v 0.580720 -7.182808 2.919467
v 0.296050 -7.625444 1.488331
v 0.000002 7.632432 1.517490
v 0.000002 7.189796 2.976662
v 0.000002 6.470996 4.321445
v 0.000001 5.503652 5.500156
v 0.000001 4.324941 6.467497
v 0.000002 2.980159 7.186302
v 0.000001 1.520985 7.628933
v 0.000001 0.003495 7.778396
v 0.000001 -1.513994 7.628933
v 0.000002 -2.973168 7.186302
v 0.000001 -4.317951 6.467498
v 0.000001 -5.496663 5.500157
v 0.000002 -6.464007 4.321445
v 0.000002 -7.182808 2.976662
v 0.000002 -7.625444 1.517490
v -0.296045 7.632432 1.488332
v -0.580716 7.189796 2.919467
v -0.843070 6.470996 4.238409
v -1.073026 5.503652 5.394472
v -1.261745 4.324941 6.343225
v -1.401976 2.980159 7.048219
v -1.488330 1.520985 7.482346
v -1.517489 0.003495 7.628935
v -1.488330 -1.513994 7.482346
v -1.401976 -2.973168 7.048219
v -1.261745 -4.317951 6.343226
v -1.073026 -5.496663 5.394473
v -0.843070 -6.464007 4.238410
v -0.580716 -7.182808 2.919467
v -0.296045 -7.625444 1.488331
v 0.000002 7.781891 0.000001
v -0.580716 7.632432 1.401978
v -1.139118 7.189796 2.750077
v -1.653744 6.470996 3.992494
v -2.104818 5.503652 5.081481
v -2.475003 4.324941 5.975187
v -2.750076 2.980159 6.639277
v -2.919466 1.520985 7.048214
v -2.976662 0.003495 7.186299
v -2.919466 -1.513994 7.048214
v -2.750076 -2.973168 6.639277
v -2.475003 -4.317951 5.975188
v -2.104818 -5.496663 5.081482
v -1.653743 -6.464007 3.992494
v -1.139117 -7.182808 2.750077
v -0.580716 -7.625444 1.401978
v -0.843070 7.632432 1.261747
v -1.653743 7.189796 2.475004
v -2.400864 6.470996 3.593149
v -3.055722 5.503652 4.573212
v -3.593148 4.324941 5.377526
v -3.992493 2.980159 5.975191
v -4.238408 1.520985 6.343225
v -4.321444 0.003495 6.467497
v -4.238408 -1.513994 6.343225
v -3.992493 -2.973168 5.975191
v -3.593148 -4.317951 5.377527
v -3.055722 -5.496663 4.573213
v -2.400864 -6.464007 3.593149
v -1.653743 -7.182808 2.475004
v -0.843069 -7.625444 1.261746
v -1.073026 7.632432 1.073027
v -2.104816 7.189796 2.104817
v -3.055721 6.470995 3.055722
v -3.889197 5.503652 3.889197
v -4.573211 4.324941 4.573209
v -5.081480 2.980159 5.081481
v -5.394469 1.520985 5.394468
v -5.500155 0.003495 5.500154
v -5.394469 -1.513994 5.394468
v -5.081480 -2.973168 5.081481
v -4.573211 -4.317951 4.573210
v -3.889197 -5.496663 3.889198
v -3.055721 -6.464008 3.055722
v -2.104816 -7.182808 2.104818
v -1.073025 -7.625444 1.073027
v -1.261745 7.632432 0.843072
v -2.475003 7.189796 1.653744
v -3.593148 6.470995 2.400865
v -4.573211 5.503651 3.055721
v -5.377526 4.324941 3.593148
v -5.975189 2.980159 3.992495
v -6.343225 1.520985 4.238407
v -6.467497 0.003495 4.321443
v -6.343225 -1.513994 4.238407
v -5.975189 -2.973168 3.992495
v -5.377526 -4.317951 3.593148
v -4.573211 -5.496664 3.055722
v -3.593148 -6.464008 2.400865
v -2.475002 -7.182808 1.653745
v -1.261744 -7.625444 0.843072
v -1.401977 7.632432 0.580718
v -2.750076 7.189796 1.139118
v -3.992492 6.470995 1.653744
v -5.081481 5.503651 2.104817
v -5.975187 4.324940 2.475002
v -6.639274 2.980159 2.750077
v -7.048213 1.520985 2.919464
v -7.186297 0.003495 2.976661
v -7.048213 -1.513994 2.919464
v -6.639274 -2.973168 2.750078
v -5.975187 -4.317952 2.475002
v -5.081481 -5.496664 2.104818
v -3.992491 -6.464008 1.653744
v -2.750075 -7.182808 1.139119
v -1.401975 -7.625444 0.580718
v -1.488330 7.632432 0.296047
v -2.919465 7.189796 0.580717
v -4.238407 6.470995 0.843070
v -5.394471 5.503651 1.073025
v -6.343224 4.324940 1.261743
v -7.048216 2.980159 1.401976
v -7.482343 1.520985 1.488329
v -7.628932 0.003495 1.517487
v -7.482343 -1.513994 1.488329
v -7.048216 -2.973168 1.401977
v -6.343224 -4.317952 1.261744
v -5.394471 -5.496664 1.073026
v -4.238406 -6.464008 0.843071
v -2.919464 -7.182808 0.580717
v -1.488329 -7.625444 0.296047
vn -0.4709 -0.8810 -0.0464
vn -0.9527 0.2890 -0.0938
vn -0.2902 -0.9565 -0.0286
vn -0.9904 0.0976 -0.0976
vn -0.0980 0.9951 -0.0097
vn -0.0980 -0.9951 -0.0097
vn -0.9904 -0.0975 -0.0975
vn -0.2902 0.9565 -0.0286
vn -0.9527 -0.2890 -0.0938
vn -0.4709 0.8810 -0.0464
vn -0.8786 -0.4696 -0.0865
vn -0.6332 0.7715 -0.0624
vn -0.7708 -0.6326 -0.0759
vn -0.7708 0.6326 -0.0759
vn -0.6332 -0.7715 -0.0624
vn -0.8786 0.4696 -0.0865
vn -0.6088 -0.7715 -0.1847
vn -0.8448 0.4696 -0.2563
vn -0.4528 -0.8810 -0.1374
vn -0.9161 0.2890 -0.2779
vn -0.2790 -0.9565 -0.0846
vn -0.9524 0.0976 -0.2889
vn -0.0942 0.9951 -0.0286
vn -0.0942 -0.9951 -0.0286
vn -0.9524 -0.0976 -0.2889
vn -0.2790 0.9565 -0.0846
vn -0.9161 -0.2890 -0.2779
vn -0.4528 0.8810 -0.1374
vn -0.8448 -0.4696 -0.2563
vn -0.6088 0.7715 -0.1847
vn -0.7412 -0.6326 -0.2248
vn -0.7412 0.6326 -0.2248
vn -0.2571 0.9565 -0.1374
vn -0.8443 -0.2890 -0.4513
vn -0.4173 0.8810 -0.2230
vn -0.7786 -0.4696 -0.4162
vn -0.5611 0.7715 -0.2999
vn -0.6831 -0.6326 -0.3651
vn -0.6831 0.6326 -0.3651
vn -0.5611 -0.7715 -0.2999
vn -0.7786 0.4696 -0.4162
vn -0.4173 -0.8810 -0.2231
vn -0.8443 0.2890 -0.4513
vn -0.2571 -0.9565 -0.1374
vn -0.8777 0.0975 -0.4691
vn -0.0869 0.9951 -0.0464
vn -0.0869 -0.9951 -0.0464
vn -0.8777 -0.0975 -0.4691
vn -0.6825 0.4696 -0.5601
vn -0.3658 -0.8810 -0.3002
vn -0.7400 0.2890 -0.6073
vn -0.2254 -0.9565 -0.1850
vn -0.7693 0.0975 -0.6314
vn -0.0761 0.9951 -0.0625
vn -0.0761 -0.9951 -0.0625
vn -0.7693 -0.0975 -0.6314
vn -0.2254 0.9565 -0.1850
vn -0.7400 -0.2890 -0.6073
vn -0.3658 0.8810 -0.3002
vn -0.6825 -0.4696 -0.5601
vn -0.4918 0.7715 -0.4036
vn -0.5987 -0.6326 -0.4913
vn -0.5987 0.6326 -0.4913
vn -0.4918 -0.7715 -0.4036
vn -0.6073 -0.2890 -0.7400
vn -0.3002 0.8810 -0.3658
vn -0.5601 -0.4696 -0.6825
vn -0.4036 0.7715 -0.4918
vn -0.4913 -0.6326 -0.5987
vn -0.4913 0.6326 -0.5987
vn -0.4036 -0.7715 -0.4918
vn -0.5601 0.4696 -0.6825
vn -0.3002 -0.8810 -0.3658
vn -0.6073 0.2890 -0.7400
vn -0.1850 -0.9565 -0.2254
vn -0.6314 0.0976 -0.7693
vn -0.0625 0.9951 -0.0761
vn -0.0625 -0.9951 -0.0761
vn -0.6314 -0.0976 -0.7693
vn -0.1850 0.9565 -0.2254
vn -0.2230 -0.8810 -0.4173
vn -0.4513 0.2890 -0.8443
vn -0.1374 -0.9565 -0.2571
vn -0.4691 0.0976 -0.8777
vn -0.0464 0.9951 -0.0869
vn -0.0464 -0.9951 -0.0869
vn -0.4691 -0.0976 -0.8777
vn -0.1374 0.9565 -0.2571
vn -0.4513 -0.2890 -0.8443
vn -0.2230 0.8810 -0.4173
vn -0.4162 -0.4696 -0.7786
vn -0.2999 0.7715 -0.5611
vn -0.3651 -0.6326 -0.6831
vn -0.3651 0.6326 -0.6831
vn -0.2999 -0.7715 -0.5611
vn -0.4162 0.4696 -0.7786
vn -0.2563 -0.4696 -0.8448
vn -0.1847 0.7715 -0.6088
vn -0.2248 -0.6326 -0.7412
vn -0.2248 0.6326 -0.7412
vn -0.1847 -0.7715 -0.6088
vn -0.2563 0.4696 -0.8448
vn -0.1374 -0.8810 -0.4528
vn -0.2779 0.2890 -0.9161
vn -0.0846 -0.9565 -0.2790
vn -0.2889 0.0976 -0.9524
vn -0.0286 0.9951 -0.0942
vn -0.0286 -0.9951 -0.0942
vn -0.2889 -0.0976 -0.9524
vn -0.0846 0.9565 -0.2790
vn -0.2779 -0.2890 -0.9161
vn -0.1374 0.8810 -0.4528
vn -0.0286 -0.9565 -0.2902
vn -0.0975 0.0976 -0.9904
vn -0.0097 0.9951 -0.0980
vn -0.0097 -0.9951 -0.0980
vn -0.0975 -0.0976 -0.9904
vn -0.0286 0.9565 -0.2902
vn -0.0938 -0.2890 -0.9527
vn -0.0464 0.8810 -0.4709
vn -0.0865 -0.4696 -0.8786
vn -0.0624 0.7715 -0.6332
vn -0.0759 -0.6326 -0.7708
vn -0.0759 0.6326 -0.7708
vn -0.0624 -0.7715 -0.6332
vn -0.0865 0.4696 -0.8786
vn -0.0464 -0.8810 -0.4709
vn -0.0938 0.2890 -0.9527
vn 0.0624 0.7715 -0.6332
vn 0.0759 -0.6326 -0.7708
vn 0.0759 0.6326 -0.7708
vn 0.0624 -0.7715 -0.6332
vn 0.0865 0.4696 -0.8786
vn 0.0464 -0.8810 -0.4709
vn 0.0938 0.2890 -0.9527
vn 0.0286 -0.9565 -0.2902
vn 0.0975 0.0976 -0.9904
vn 0.0097 0.9951 -0.0980
vn 0.0097 -0.9951 -0.0980
vn 0.0975 -0.0976 -0.9904
vn 0.0286 0.9565 -0.2902
vn 0.0938 -0.2890 -0.9527
vn 0.0464 0.8810 -0.4709
vn 0.0865 -0.4696 -0.8786
vn 0.2889 0.0976 -0.9524
vn 0.0286 0.9951 -0.0942
vn 0.0286 -0.9951 -0.0942
vn 0.2889 -0.0976 -0.9524
vn 0.0846 0.9565 -0.2790
vn 0.2779 -0.2890 -0.9161
vn 0.1374 0.8810 -0.4528
vn 0.2563 -0.4696 -0.8448
vn 0.1847 0.7715 -0.6088
vn 0.2248 -0.6326 -0.7412
vn 0.2248 0.6326 -0.7412
vn 0.1847 -0.7715 -0.6088
vn 0.2563 0.4696 -0.8448
vn 0.1374 -0.8810 -0.4528
vn 0.2779 0.2890 -0.9161
vn 0.0846 -0.9565 -0.2790
vn 0.3651 -0.6326 -0.6831
vn 0.3651 0.6326 -0.6831
vn 0.2999 -0.7715 -0.5611
vn 0.4162 0.4696 -0.7786
vn 0.2230 -0.8810 -0.4173
vn 0.4513 0.2890 -0.8443
vn 0.1374 -0.9565 -0.2571
vn 0.4691 0.0976 -0.8777
vn 0.0464 0.9951 -0.0869
vn 0.0464 -0.9951 -0.0869
vn 0.4691 -0.0976 -0.8777
vn 0.1374 0.9565 -0.2571
vn 0.4513 -0.2890 -0.8443
vn 0.2230 0.8810 -0.4173
vn 0.4162 -0.4696 -0.7786
vn 0.2999 0.7715 -0.5611
vn 0.0625 0.9951 -0.0761
vn 0.0625 -0.9951 -0.0761
vn 0.6314 -0.0976 -0.7693
vn 0.1850 0.9565 -0.2254
vn 0.6073 -0.2890 -0.7400
vn 0.3002 0.8810 -0.3658
vn 0.5601 -0.4696 -0.6825
vn 0.4036 0.7715 -0.4918
vn 0.4913 -0.6326 -0.5987
vn 0.4913 0.6326 -0.5987
vn 0.4036 -0.7715 -0.4918
vn 0.5601 0.4696 -0.6825
vn 0.3002 -0.8810 -0.3658
vn 0.6073 0.2890 -0.7400
vn 0.1850 -0.9565 -0.2254
vn 0.6314 0.0976 -0.7693
vn 0.5987 0.6326 -0.4913
vn 0.4918 -0.7715 -0.4036
vn 0.6825 0.4696 -0.5601
vn 0.3658 -0.8810 -0.3002
vn 0.7400 0.2890 -0.6073
vn 0.2254 -0.9565 -0.1850
vn 0.7693 0.0976 -0.6314
vn 0.0761 0.9951 -0.0625
vn 0.0761 -0.9951 -0.0625
vn 0.7693 -0.0976 -0.6314
vn 0.2254 0.9565 -0.1850
vn 0.7400 -0.2890 -0.6073
vn 0.3658 0.8810 -0.3002
vn 0.6825 -0.4696 -0.5601
vn 0.4918 0.7715 -0.4036
vn 0.5987 -0.6326 -0.4913
vn 0.8777 -0.0976 -0.4691
vn 0.2571 0.9565 -0.1374
vn 0.8443 -0.2890 -0.4513
vn 0.4173 0.8810 -0.2231
vn 0.7786 -0.4696 -0.4162
vn 0.5611 0.7715 -0.2999
vn 0.6831 -0.6326 -0.3651
vn 0.6831 0.6326 -0.3651
vn 0.5611 -0.7715 -0.2999
vn 0.7786 0.4696 -0.4162
vn 0.4173 -0.8810 -0.2230
vn 0.8443 0.2890 -0.4513
vn 0.2571 -0.9565 -0.1374
vn 0.8777 0.0976 -0.4691
vn 0.0869 0.9951 -0.0464
vn 0.0869 -0.9951 -0.0464
vn 0.6088 -0.7715 -0.1847
vn 0.8448 0.4696 -0.2563
vn 0.4528 -0.8810 -0.1374
vn 0.9161 0.2890 -0.2779
vn 0.2790 -0.9565 -0.0846
vn 0.9524 0.0976 -0.2889
vn 0.0942 0.9951 -0.0286
vn 0.0942 -0.9951 -0.0286
vn 0.9524 -0.0976 -0.2889
vn 0.2790 0.9565 -0.0846
vn 0.9161 -0.2890 -0.2779
vn 0.4528 0.8810 -0.1374
vn 0.8448 -0.4696 -0.2563
vn 0.6088 0.7715 -0.1847
vn 0.7412 -0.6326 -0.2248
vn 0.7412 0.6326 -0.2248
vn 0.9527 -0.2890 -0.0938
vn 0.4709 0.8810 -0.0464
vn 0.8786 -0.4696 -0.0865
vn 0.6332 0.7715 -0.0624
vn 0.7708 -0.6326 -0.0759
vn 0.7708 0.6326 -0.0759
vn 0.6332 -0.7715 -0.0624
vn 0.8786 0.4696 -0.0865
vn 0.4709 -0.8810 -0.0464
vn 0.9527 0.2890 -0.0938
vn 0.2902 -0.9565 -0.0286
vn 0.9904 0.0976 -0.0975
vn 0.0980 0.9951 -0.0097
vn 0.0980 -0.9951 -0.0097
vn 0.9904 -0.0976 -0.0975
vn 0.2902 0.9565 -0.0286
vn 0.4709 -0.8810 0.0464
vn 0.9527 0.2890 0.0938
vn 0.2902 -0.9565 0.0286
vn 0.9904 0.0976 0.0975
vn 0.0980 0.9951 0.0097
vn 0.0980 -0.9951 0.0097
vn 0.9904 -0.0976 0.0975
vn 0.2902 0.9565 0.0286
vn 0.9527 -0.2890 0.0938
vn 0.4709 0.8810 0.0464
vn 0.8786 -0.4696 0.0865
vn 0.6332 0.7715 0.0624
vn 0.7708 -0.6326 0.0759
vn 0.7708 0.6326 0.0759
vn 0.6332 -0.7715 0.0624
vn 0.8786 0.4696 0.0865
vn 0.4528 0.8810 0.1374
vn 0.8448 -0.4696 0.2563
vn 0.6088 0.7715 0.1847
vn 0.7412 -0.6326 0.2248
vn 0.7412 0.6326 0.2248
vn 0.6088 -0.7715 0.1847
vn 0.8448 0.4696 0.2563
vn 0.4528 -0.8810 0.1374
vn 0.9161 0.2890 0.2779
vn 0.2790 -0.9565 0.0846
vn 0.9524 0.0976 0.2889
vn 0.0942 0.9951 0.0286
vn 0.0942 -0.9951 0.0286
vn 0.9524 -0.0976 0.2889
vn 0.2790 0.9565 0.0846
vn 0.9161 -0.2890 0.2779
vn 0.8443 0.2890 0.4513
vn 0.2571 -0.9565 0.1374
vn 0.8777 0.0976 0.4691
vn 0.0869 0.9951 0.0464
vn 0.0869 -0.9951 0.0464
vn 0.8777 -0.0976 0.4691
vn 0.2571 0.9565 0.1374
vn 0.8443 -0.2890 0.4513
vn 0.4173 0.8810 0.2230
vn 0.7786 -0.4696 0.4162
vn 0.5611 0.7715 0.2999
vn 0.6831 -0.6326 0.3651
vn 0.6831 0.6326 0.3651
vn 0.5611 -0.7715 0.2999
vn 0.7786 0.4696 0.4162
vn 0.4173 -0.8810 0.2230
vn 0.6825 -0.4696 0.5601
vn 0.4918 0.7715 0.4036
vn 0.5987 -0.6326 0.4913
vn 0.5987 0.6326 0.4913
vn 0.4918 -0.7715 0.4036
vn 0.6825 0.4696 0.5601
vn 0.3658 -0.8810 0.3002
vn 0.7400 0.2890 0.6073
vn 0.2254 -0.9565 0.1850
vn 0.7693 0.0976 0.6314
vn 0.0761 0.9951 0.0625
vn 0.0761 -0.9951 0.0625
vn 0.7693 -0.0976 0.6314
vn 0.2254 0.9565 0.1850
vn 0.7400 -0.2890 0.6073
vn 0.3658 0.8810 0.3002
vn 0.1850 -0.9565 0.2254
vn 0.6314 0.0976 0.7693
vn 0.0625 0.9951 0.0761
vn 0.0625 -0.9951 0.0761
vn 0.6314 -0.0976 0.7693
vn 0.1850 0.9565 0.2254
vn 0.6073 -0.2890 0.7400
vn 0.3002 0.8810 0.3658
vn 0.5601 -0.4696 0.6825
vn 0.4036 0.7715 0.4918
vn 0.4913 -0.6326 0.5987
vn 0.4913 0.6326 0.5987
vn 0.4036 -0.7715 0.4918
vn 0.5601 0.4696 0.6825
vn 0.3002 -0.8810 0.3658
vn 0.6073 0.2890 0.7400
vn 0.2999 0.7715 0.5611
vn 0.3651 -0.6326 0.6831
vn 0.3651 0.6326 0.6831
vn 0.2999 -0.7715 0.5611
vn 0.4162 0.4696 0.7786
vn 0.2230 -0.8810 0.4173
vn 0.4513 0.2890 0.8443
vn 0.1374 -0.9565 0.2571
vn 0.4691 0.0976 0.8777
vn 0.0464 0.9951 0.0869
vn 0.0464 -0.9951 0.0869
vn 0.4691 -0.0976 0.8777
vn 0.1374 0.9565 0.2571
vn 0.4513 -0.2890 0.8443
vn 0.2230 0.8810 0.4173
vn 0.4162 -0.4696 0.7786
vn 0.2889 0.0976 0.9524
vn 0.0286 0.9951 0.0942
vn 0.0286 -0.9951 0.0942
vn 0.2889 -0.0976 0.9524
vn 0.0846 0.9565 0.2790
vn 0.2779 -0.2890 0.9161
vn 0.1374 0.8810 0.4528
vn 0.2563 -0.4696 0.8448
vn 0.1847 0.7715 0.6088
vn 0.2248 -0.6326 0.7412
vn 0.2248 0.6326 0.7412
vn 0.1847 -0.7715 0.6088
vn 0.2563 0.4696 0.8448
vn 0.1374 -0.8810 0.4528
vn 0.2779 0.2890 0.9161
vn 0.0846 -0.9565 0.2790
vn 0.0759 -0.6326 0.7708
vn 0.0759 0.6326 0.7708
vn 0.0624 -0.7715 0.6332
vn 0.0865 0.4696 0.8786
vn 0.0464 -0.8810 0.4709
vn 0.0938 0.2890 0.9527
vn 0.0286 -0.9565 0.2902
vn 0.0975 0.0976 0.9904
vn 0.0097 0.9951 0.0980
vn 0.0097 -0.9951 0.0980
vn 0.0975 -0.0976 0.9904
vn 0.0286 0.9565 0.2902
vn 0.0938 -0.2890 0.9527
vn 0.0464 0.8810 0.4709
vn 0.0865 -0.4696 0.8786
vn 0.0624 0.7715 0.6332
vn -0.0097 -0.9951 0.0980
vn -0.0976 -0.0976 0.9904
vn -0.0286 0.9565 0.2902
vn -0.0938 -0.2890 0.9527
vn -0.0464 0.8810 0.4709
vn -0.0865 -0.4696 0.8786
vn -0.0624 0.7715 0.6332
vn -0.0759 -0.6326 0.7708
vn -0.0759 0.6326 0.7708
vn -0.0624 -0.7715 0.6332
vn -0.0865 0.4696 0.8786
vn -0.0464 -0.8810 0.4709
vn -0.0938 0.2890 0.9527
vn -0.0286 -0.9565 0.2902
vn -0.0976 0.0976 0.9904
vn -0.0097 0.9951 0.0980
vn -0.1847 -0.7715 0.6088
vn -0.2563 0.4696 0.8448
vn -0.1374 -0.8810 0.4528
vn -0.2779 0.2890 0.9161
vn -0.0846 -0.9565 0.2790
vn -0.2889 0.0976 0.9524
vn -0.0286 0.9951 0.0942
vn -0.0286 -0.9951 0.0942
vn -0.2889 -0.0976 0.9524
vn -0.0846 0.9565 0.2790
vn -0.2779 -0.2890 0.9161
vn -0.1374 0.8810 0.4528
vn -0.2563 -0.4696 0.8448
vn -0.1847 0.7715 0.6088
vn -0.2248 -0.6326 0.7412
vn -0.2248 0.6326 0.7412
vn -0.1374 0.9565 0.2571
vn -0.4513 -0.2890 0.8443
vn -0.2231 0.8810 0.4173
vn -0.4162 -0.4696 0.7786
vn -0.2999 0.7715 0.5611
vn -0.3651 -0.6326 0.6831
vn -0.3651 0.6326 0.6831
vn -0.2999 -0.7715 0.5611
vn -0.4162 0.4696 0.7786
vn -0.2231 -0.8810 0.4173
vn -0.4513 0.2890 0.8443
vn -0.1374 -0.9565 0.2571
vn -0.4691 0.0976 0.8777
vn -0.0464 0.9951 0.0869
vn -0.0464 -0.9951 0.0869
vn -0.4691 -0.0976 0.8777
vn -0.5601 0.4696 0.6825
vn -0.3002 -0.8810 0.3658
vn -0.6073 0.2890 0.7400
vn -0.1850 -0.9565 0.2254
vn -0.6314 0.0976 0.7693
vn -0.0625 0.9951 0.0761
vn -0.0625 -0.9951 0.0761
vn -0.6314 -0.0976 0.7693
vn -0.1850 0.9565 0.2254
vn -0.6073 -0.2890 0.7400
vn -0.3002 0.8810 0.3658
vn -0.5601 -0.4696 0.6825
vn -0.4036 0.7715 0.4918
vn -0.4913 -0.6326 0.5987
vn -0.4913 0.6326 0.5987
vn -0.4036 -0.7715 0.4918
vn -0.7400 -0.2890 0.6073
vn -0.3658 0.8810 0.3002
vn -0.6825 -0.4696 0.5601
vn -0.4918 0.7715 0.4036
vn -0.5987 -0.6326 0.4913
vn -0.5987 0.6326 0.4913
vn -0.4918 -0.7715 0.4036
vn -0.6825 0.4696 0.5601
vn -0.3658 -0.8810 0.3002
vn -0.7400 0.2890 0.6073
vn -0.2254 -0.9565 0.1850
vn -0.7693 0.0976 0.6314
vn -0.0761 0.9951 0.0625
vn -0.0761 -0.9951 0.0625
vn -0.7693 -0.0976 0.6314
vn -0.2254 0.9565 0.1850
vn -0.4173 -0.8810 0.2230
vn -0.8443 0.2890 0.4513
vn -0.2571 -0.9565 0.1374
vn -0.8777 0.0976 0.4691
vn -0.0869 0.9951 0.0464
vn -0.0869 -0.9951 0.0464
vn -0.8777 -0.0976 0.4691
vn -0.2571 0.9565 0.1374
vn -0.8443 -0.2890 0.4513
vn -0.4173 0.8810 0.2231
vn -0.7786 -0.4696 0.4162
vn -0.5611 0.7715 0.2999
vn -0.6831 -0.6326 0.3651
vn -0.6831 0.6326 0.3651
vn -0.5611 -0.7715 0.2999
vn -0.7786 0.4696 0.4162
vn -0.4528 0.8810 0.1374
vn -0.8448 -0.4696 0.2563
vn -0.6088 0.7715 0.1847
vn -0.7412 -0.6326 0.2248
vn -0.7412 0.6326 0.2248
vn -0.6088 -0.7715 0.1847
vn -0.8448 0.4696 0.2563
vn -0.4528 -0.8810 0.1374
vn -0.9161 0.2890 0.2779
vn -0.2790 -0.9565 0.0846
vn -0.9524 0.0976 0.2889
vn -0.0942 0.9951 0.0286
vn -0.0942 -0.9951 0.0286
vn -0.9524 -0.0976 0.2889
vn -0.2790 0.9565 0.0846
vn -0.9161 -0.2890 0.2779
vn -0.9527 0.2890 0.0938
vn -0.2902 -0.9565 0.0286
vn -0.9904 0.0975 0.0976
vn -0.0980 0.9951 0.0097
vn -0.0980 -0.9951 0.0097
vn -0.9904 -0.0975 0.0976
vn -0.2902 0.9565 0.0286
vn -0.9527 -0.2890 0.0938
vn -0.4709 0.8810 0.0464
vn -0.8786 -0.4696 0.0865
vn -0.6332 0.7715 0.0624
vn -0.7708 -0.6326 0.0759
vn -0.7708 0.6326 0.0759
vn -0.6332 -0.7715 0.0624
vn -0.8786 0.4696 0.0865
vn -0.4709 -0.8810 0.0464
vt 0.333100 0.500000
vt 0.256200 0.500000
vt 0.260900 0.547600
vt 0.336300 0.532600
vt 0.039800 0.500000
vt 0.060900 0.500000
vt 0.069400 0.585700
vt 0.048600 0.589800
vt 0.415200 0.500000
vt 0.416800 0.516500
vt 0.036900 0.500000
vt 0.045800 0.590300
vt 0.403300 0.500000
vt 0.500000 0.500000
vt 0.405200 0.518900
vt 0.051600 0.500000
vt 0.060200 0.587500
vt 0.311100 0.500000
vt 0.314800 0.536800
vt 0.082800 0.500000
vt 0.090800 0.581400
vt 0.227600 0.500000
vt 0.232800 0.553100
vt 0.128700 0.500000
vt 0.135800 0.572400
vt 0.156300 0.500000
vt 0.162900 0.567000
vt 0.187300 0.500000
vt 0.193300 0.561000
vt 0.100100 0.500000
vt 0.107800 0.578000
vt 0.211100 0.619700
vt 0.274800 0.593300
vt 0.130600 0.653000
vt 0.094400 0.668000
vt 0.345800 0.563900
vt 0.074800 0.676100
vt 0.421700 0.532500
vt 0.072100 0.677200
vt 0.410700 0.537000
vt 0.085800 0.671600
vt 0.325500 0.572300
vt 0.114600 0.659700
vt 0.248300 0.604200
vt 0.157000 0.642100
vt 0.182500 0.631500
vt 0.419600 0.553700
vt 0.343000 0.604900
vt 0.127200 0.749100
vt 0.153100 0.731800
vt 0.273500 0.651300
vt 0.191300 0.706300
vt 0.214200 0.690900
vt 0.240000 0.673700
vt 0.167500 0.722200
vt 0.297300 0.635400
vt 0.134900 0.743900
vt 0.361200 0.592700
vt 0.117400 0.755700
vt 0.429500 0.547100
vt 0.114900 0.757300
vt 0.217200 0.782800
vt 0.189500 0.810500
vt 0.327600 0.672400
vt 0.382000 0.618000
vt 0.174600 0.825400
vt 0.440000 0.560000
vt 0.172500 0.827500
vt 0.431600 0.568400
vt 0.183000 0.817000
vt 0.366500 0.633500
vt 0.205000 0.795000
vt 0.307400 0.692600
vt 0.237500 0.762500
vt 0.257000 0.743000
vt 0.278900 0.721100
vt 0.250900 0.872800
vt 0.268200 0.846900
vt 0.395100 0.657000
vt 0.348700 0.726500
vt 0.293700 0.808700
vt 0.309100 0.785800
vt 0.326300 0.760000
vt 0.277800 0.832500
vt 0.364600 0.702700
vt 0.256100 0.865100
vt 0.407300 0.638800
vt 0.244300 0.882600
vt 0.452900 0.570500
vt 0.242700 0.885100
vt 0.446300 0.580400
vt 0.406700 0.725200
vt 0.436100 0.654200
vt 0.332000 0.905600
vt 0.323900 0.925200
vt 0.467500 0.578300
vt 0.322800 0.927900
vt 0.463000 0.589300
vt 0.328400 0.914200
vt 0.427700 0.674500
vt 0.340300 0.885400
vt 0.395800 0.751700
vt 0.357900 0.843000
vt 0.368500 0.817500
vt 0.380300 0.788900
vt 0.347000 0.869400
vt 0.418600 0.909200
vt 0.427600 0.864200
vt 0.446900 0.767200
vt 0.433000 0.837100
vt 0.439000 0.806700
vt 0.422000 0.892200
vt 0.452400 0.739100
vt 0.414300 0.930600
vt 0.467400 0.663700
vt 0.410200 0.951400
vt 0.483500 0.583200
vt 0.409700 0.954200
vt 0.481100 0.594800
vt 0.412500 0.939800
vt 0.463200 0.685200
vt 0.500000 0.666900
vt 0.500000 0.584800
vt 0.500000 0.960200
vt 0.500000 0.963100
vt 0.500000 0.596700
vt 0.500000 0.948400
vt 0.500000 0.688900
vt 0.500000 0.917200
vt 0.500000 0.772400
vt 0.500000 0.871300
vt 0.500000 0.843700
vt 0.500000 0.812700
vt 0.500000 0.899900
vt 0.500000 0.743800
vt 0.500000 0.939100
vt 0.553100 0.767200
vt 0.567000 0.837100
vt 0.572400 0.864200
vt 0.561000 0.806700
vt 0.578000 0.892200
vt 0.547600 0.739100
vt 0.585700 0.930600
vt 0.532600 0.663700
vt 0.589800 0.951400
vt 0.516500 0.583200
vt 0.590300 0.954200
vt 0.518900 0.594800
vt 0.587500 0.939800
vt 0.536800 0.685200
vt 0.581400 0.909200
vt 0.676100 0.925200
vt 0.677200 0.927900
vt 0.537000 0.589300
vt 0.532500 0.578300
vt 0.671600 0.914200
vt 0.572300 0.674500
vt 0.659700 0.885400
vt 0.604200 0.751700
vt 0.642100 0.843000
vt 0.631500 0.817500
vt 0.619700 0.788900
vt 0.653000 0.869400
vt 0.593300 0.725200
vt 0.668000 0.905600
vt 0.563900 0.654200
vt 0.706300 0.808700
vt 0.673700 0.760000
vt 0.690900 0.785800
vt 0.722200 0.832500
vt 0.635400 0.702700
vt 0.743900 0.865100
vt 0.592700 0.638800
vt 0.755700 0.882600
vt 0.547100 0.570500
vt 0.757300 0.885100
vt 0.553700 0.580400
vt 0.749100 0.872800
vt 0.604900 0.657000
vt 0.731800 0.846900
vt 0.651300 0.726500
vt 0.568400 0.568400
vt 0.560000 0.560000
vt 0.827500 0.827500
vt 0.817000 0.817000
vt 0.633500 0.633500
vt 0.795000 0.795000
vt 0.692600 0.692600
vt 0.762500 0.762500
vt 0.743000 0.743000
vt 0.721100 0.721100
vt 0.782800 0.782800
vt 0.672400 0.672400
vt 0.810500 0.810500
vt 0.618000 0.618000
vt 0.825400 0.825400
vt 0.785800 0.690900
vt 0.832500 0.722200
vt 0.760000 0.673700
vt 0.702700 0.635400
vt 0.865100 0.743900
vt 0.638800 0.592700
vt 0.882600 0.755700
vt 0.570500 0.547100
vt 0.885100 0.757300
vt 0.580400 0.553700
vt 0.872800 0.749100
vt 0.657000 0.604900
vt 0.846900 0.731800
vt 0.726500 0.651300
vt 0.808700 0.706300
vt 0.927900 0.677200
vt 0.914200 0.671600
vt 0.589300 0.537000
vt 0.674500 0.572300
vt 0.885400 0.659700
vt 0.751700 0.604200
vt 0.843000 0.642100
vt 0.817500 0.631500
vt 0.788900 0.619700
vt 0.869400 0.653000
vt 0.725200 0.593300
vt 0.905600 0.668000
vt 0.654200 0.563900
vt 0.925200 0.676100
vt 0.578300 0.532500
vt 0.806700 0.561000
vt 0.739100 0.547600
vt 0.892200 0.578000
vt 0.930600 0.585700
vt 0.663700 0.532600
vt 0.951400 0.589800
vt 0.583200 0.516500
vt 0.954200 0.590300
vt 0.594800 0.518900
vt 0.939800 0.587500
vt 0.685200 0.536800
vt 0.909200 0.581400
vt 0.767200 0.553100
vt 0.864200 0.572400
vt 0.837100 0.567000
vt 0.948400 0.500000
vt 0.917200 0.500000
vt 0.688900 0.500000
vt 0.772400 0.500000
vt 0.871300 0.500000
vt 0.843700 0.500000
vt 0.812700 0.500000
vt 0.899900 0.500000
vt 0.743800 0.500000
vt 0.939100 0.500000
vt 0.666900 0.500000
vt 0.960200 0.500000
vt 0.584800 0.500000
vt 0.963100 0.500000
vt 0.596700 0.500000
vt 0.739100 0.452400
vt 0.663700 0.467400
vt 0.930600 0.414300
vt 0.951400 0.410200
vt 0.583200 0.483500
vt 0.954200 0.409700
vt 0.594800 0.481100
vt 0.939800 0.412500
vt 0.685200 0.463200
vt 0.909200 0.418600
vt 0.767200 0.446900
vt 0.864200 0.427600
vt 0.837100 0.433000
vt 0.806700 0.439000
vt 0.892200 0.422000
vt 0.674500 0.427700
vt 0.751700 0.395800
vt 0.885400 0.340300
vt 0.843000 0.357900
vt 0.817500 0.368500
vt 0.788900 0.380300
vt 0.869400 0.347000
vt 0.725200 0.406700
vt 0.905600 0.332000
vt 0.654200 0.436100
vt 0.925200 0.323900
vt 0.578300 0.467500
vt 0.927900 0.322800
vt 0.589300 0.463000
vt 0.914200 0.328400
vt 0.865100 0.256100
vt 0.882600 0.244300
vt 0.638800 0.407300
vt 0.570500 0.452900
vt 0.885100 0.242700
vt 0.580400 0.446300
vt 0.872800 0.250900
vt 0.657000 0.395100
vt 0.846900 0.268200
vt 0.726500 0.348700
vt 0.808700 0.293700
vt 0.785800 0.309100
vt 0.760000 0.326300
vt 0.832500 0.277800
vt 0.702700 0.364600
vt 0.795000 0.205000
vt 0.762500 0.237500
vt 0.692600 0.307400
vt 0.743000 0.257000
vt 0.721100 0.278900
vt 0.782800 0.217200
vt 0.672400 0.327600
vt 0.810500 0.189500
vt 0.618000 0.382000
vt 0.825400 0.174600
vt 0.560000 0.440000
vt 0.827500 0.172500
vt 0.568400 0.431600
vt 0.817000 0.183000
vt 0.633500 0.366500
vt 0.592700 0.361200
vt 0.547100 0.429500
vt 0.755700 0.117400
vt 0.757300 0.114900
vt 0.553700 0.419600
vt 0.749100 0.127200
vt 0.604900 0.343000
vt 0.731800 0.153100
vt 0.651300 0.273500
vt 0.706300 0.191300
vt 0.690900 0.214200
vt 0.673700 0.240000
vt 0.722200 0.167500
vt 0.635400 0.297300
vt 0.743900 0.134900
vt 0.604200 0.248300
vt 0.631500 0.182500
vt 0.642100 0.157000
vt 0.619700 0.211100
vt 0.653000 0.130600
vt 0.593300 0.274800
vt 0.668000 0.094400
vt 0.563900 0.345800
vt 0.676100 0.074800
vt 0.532500 0.421700
vt 0.677200 0.072100
vt 0.537000 0.410700
vt 0.671600 0.085800
vt 0.572300 0.325500
vt 0.659700 0.114600
vt 0.589800 0.048600
vt 0.590300 0.045800
vt 0.518900 0.405200
vt 0.516500 0.416800
vt 0.587500 0.060200
vt 0.536800 0.314800
vt 0.581400 0.090800
vt 0.553100 0.232800
vt 0.572400 0.135800
vt 0.567000 0.162900
vt 0.561000 0.193300
vt 0.578000 0.107800
vt 0.547600 0.260900
vt 0.585700 0.069400
vt 0.532600 0.336300
vt 0.500000 0.128700
vt 0.500000 0.187300
vt 0.500000 0.156300
vt 0.500000 0.100100
vt 0.500000 0.256200
vt 0.500000 0.060900
vt 0.500000 0.333100
vt 0.500000 0.039800
vt 0.500000 0.415200
vt 0.500000 0.036900
vt 0.500000 0.403300
vt 0.500000 0.051600
vt 0.500000 0.311100
vt 0.500000 0.082800
vt 0.500000 0.227600
vt 0.483500 0.416800
vt 0.409700 0.045800
vt 0.412500 0.060200
vt 0.481100 0.405200
vt 0.463200 0.314800
vt 0.418600 0.090800
vt 0.446900 0.232800
vt 0.427600 0.135800
vt 0.433000 0.162900
vt 0.439000 0.193300
vt 0.422000 0.107800
vt 0.452400 0.260900
vt 0.414300 0.069400
vt 0.467400 0.336300
vt 0.410200 0.048600
vt 0.380300 0.211100
vt 0.406700 0.274800
vt 0.347000 0.130600
vt 0.332000 0.094400
vt 0.436100 0.345800
vt 0.323900 0.074800
vt 0.467500 0.421700
vt 0.322800 0.072100
vt 0.463000 0.410700
vt 0.328400 0.085800
vt 0.427700 0.325500
vt 0.340300 0.114600
vt 0.395800 0.248300
vt 0.357900 0.157000
vt 0.368500 0.182500
vt 0.446300 0.419600
vt 0.395100 0.343000
vt 0.250900 0.127200
vt 0.268200 0.153100
vt 0.348700 0.273500
vt 0.293700 0.191300
vt 0.309100 0.214200
vt 0.326300 0.240000
vt 0.277800 0.167500
vt 0.364600 0.297300
vt 0.256100 0.134900
vt 0.407300 0.361200
vt 0.244300 0.117400
vt 0.452900 0.429500
vt 0.242700 0.114900
vt 0.217200 0.217200
vt 0.189500 0.189500
vt 0.327600 0.327600
vt 0.382000 0.382000
vt 0.174600 0.174600
vt 0.440000 0.440000
vt 0.172500 0.172500
vt 0.431600 0.431600
vt 0.183000 0.183000
vt 0.366500 0.366500
vt 0.205000 0.205000
vt 0.307400 0.307400
vt 0.237500 0.237500
vt 0.257000 0.257000
vt 0.278900 0.278900
vt 0.127200 0.250900
vt 0.153100 0.268200
vt 0.343000 0.395100
vt 0.273500 0.348700
vt 0.191300 0.293700
vt 0.214200 0.309100
vt 0.240000 0.326300
vt 0.167500 0.277800
vt 0.297300 0.364600
vt 0.134900 0.256100
vt 0.361200 0.407300
vt 0.117400 0.244300
vt 0.429500 0.452900
vt 0.114900 0.242700
vt 0.419600 0.446300
vt 0.274800 0.406700
vt 0.345800 0.436100
vt 0.094400 0.332000
vt 0.074800 0.323900
vt 0.421700 0.467500
vt 0.072100 0.322800
vt 0.410700 0.463000
vt 0.085800 0.328400
vt 0.325500 0.427700
vt 0.114600 0.340300
vt 0.248300 0.395800
vt 0.157000 0.357900
vt 0.182500 0.368500
vt 0.211100 0.380300
vt 0.130600 0.347000
vt 0.314800 0.463200
vt 0.232800 0.446900
vt 0.090800 0.418600
vt 0.135800 0.427600
vt 0.162900 0.433000
vt 0.193300 0.439000
vt 0.107800 0.422000
vt 0.260900 0.452400
vt 0.069400 0.414300
vt 0.336300 0.467400
vt 0.048600 0.410200
vt 0.416800 0.483500
vt 0.045800 0.409700
vt 0.405200 0.481100
vt 0.060200 0.412500
s 1
usemtl None
f 14/1/1 13/2/1 29/3/1 30/4/1
f 7/5/2 6/6/2 22/7/2 23/8/2
f 15/9/3 14/1/3 30/4/3 31/10/3
f 8/11/4 7/5/4 23/8/4 24/12/4
f 1/13/5 392/14/5 17/15/5
f 16/14/6 15/9/6 31/10/6
f 9/16/7 8/11/7 24/12/7 25/17/7
f 2/18/8 1/13/8 17/15/8 18/19/8
f 10/20/9 9/16/9 25/17/9 26/21/9
f 3/22/10 2/18/10 18/19/10 19/23/10
f 11/24/11 10/20/11 26/21/11 27/25/11
f 4/26/12 3/22/12 19/23/12 20/27/12
f 12/28/13 11/24/13 27/25/13 28/29/13
f 5/30/14 4/26/14 20/27/14 21/31/14
f 13/2/15 12/28/15 28/29/15 29/3/15
f 6/6/16 5/30/16 21/31/16 22/7/16
f 29/3/17 28/29/17 43/32/17 44/33/17
f 22/7/18 21/31/18 36/34/18 37/35/18
f 30/4/19 29/3/19 44/33/19 45/36/19
f 23/8/20 22/7/20 37/35/20 38/37/20
f 31/10/21 30/4/21 45/36/21 46/38/21
f 24/12/22 23/8/22 38/37/22 39/39/22
f 17/15/23 392/14/23 32/40/23
f 16/14/24 31/10/24 46/38/24
f 25/17/25 24/12/25 39/39/25 40/41/25
f 18/19/26 17/15/26 32/40/26 33/42/26
f 26/21/27 25/17/27 40/41/27 41/43/27
f 19/23/28 18/19/28 33/42/28 34/44/28
f 27/25/29 26/21/29 41/43/29 42/45/29
f 20/27/30 19/23/30 34/44/30 35/46/30
f 28/29/31 27/25/31 42/45/31 43/32/31
f 21/31/32 20/27/32 35/46/32 36/34/32
f 33/42/33 32/40/33 47/47/33 48/48/33
f 41/43/34 40/41/34 55/49/34 56/50/34
f 34/44/35 33/42/35 48/48/35 49/51/35
f 42/45/36 41/43/36 56/50/36 57/52/36
f 35/46/37 34/44/37 49/51/37 50/53/37
f 43/32/38 42/45/38 57/52/38 58/54/38
f 36/34/39 35/46/39 50/53/39 51/55/39
f 44/33/40 43/32/40 58/54/40 59/56/40
f 37/35/41 36/34/41 51/55/41 52/57/41
f 45/36/42 44/33/42 59/56/42 60/58/42
f 38/37/43 37/35/43 52/57/43 53/59/43
f 46/38/44 45/36/44 60/58/44 61/60/44
f 39/39/45 38/37/45 53/59/45 54/61/45
f 32/40/46 392/14/46 47/47/46
f 16/14/47 46/38/47 61/60/47
f 40/41/48 39/39/48 54/61/48 55/49/48
f 52/57/49 51/55/49 66/62/49 67/63/49
f 60/58/50 59/56/50 74/64/50 75/65/50
f 53/59/51 52/57/51 67/63/51 68/66/51
f 61/60/52 60/58/52 75/65/52 76/67/52
f 54/61/53 53/59/53 68/66/53 69/68/53
f 47/47/54 392/14/54 62/69/54
f 16/14/55 61/60/55 76/67/55
f 55/49/56 54/61/56 69/68/56 70/70/56
f 48/48/57 47/47/57 62/69/57 63/71/57
f 56/50/58 55/49/58 70/70/58 71/72/58
f 49/51/59 48/48/59 63/71/59 64/73/59
f 57/52/60 56/50/60 71/72/60 72/74/60
f 50/53/61 49/51/61 64/73/61 65/75/61
f 58/54/62 57/52/62 72/74/62 73/76/62
f 51/55/63 50/53/63 65/75/63 66/62/63
f 59/56/64 58/54/64 73/76/64 74/64/64
f 71/72/65 70/70/65 85/77/65 86/78/65
f 64/73/66 63/71/66 78/79/66 79/80/66
f 72/74/67 71/72/67 86/78/67 87/81/67
f 65/75/68 64/73/68 79/80/68 80/82/68
f 73/76/69 72/74/69 87/81/69 88/83/69
f 66/62/70 65/75/70 80/82/70 81/84/70
f 74/64/71 73/76/71 88/83/71 89/85/71
f 67/63/72 66/62/72 81/84/72 82/86/72
f 75/65/73 74/64/73 89/85/73 90/87/73
f 68/66/74 67/63/74 82/86/74 83/88/74
f 76/67/75 75/65/75 90/87/75 91/89/75
f 69/68/76 68/66/76 83/88/76 84/90/76
f 62/69/77 392/14/77 77/91/77
f 16/14/78 76/67/78 91/89/78
f 70/70/79 69/68/79 84/90/79 85/77/79
f 63/71/80 62/69/80 77/91/80 78/79/80
f 90/87/81 89/85/81 104/92/81 105/93/81
f 83/88/82 82/86/82 97/94/82 98/95/82
f 91/89/83 90/87/83 105/93/83 106/96/83
f 84/90/84 83/88/84 98/95/84 99/97/84
f 77/91/85 392/14/85 92/98/85
f 16/14/86 91/89/86 106/96/86
f 85/77/87 84/90/87 99/97/87 100/99/87
f 78/79/88 77/91/88 92/98/88 93/100/88
f 86/78/89 85/77/89 100/99/89 101/101/89
f 79/80/90 78/79/90 93/100/90 94/102/90
f 87/81/91 86/78/91 101/101/91 102/103/91
f 80/82/92 79/80/92 94/102/92 95/104/92
f 88/83/93 87/81/93 102/103/93 103/105/93
f 81/84/94 80/82/94 95/104/94 96/106/94
f 89/85/95 88/83/95 103/105/95 104/92/95
f 82/86/96 81/84/96 96/106/96 97/94/96
f 102/103/97 101/101/97 116/107/97 117/108/97
f 95/104/98 94/102/98 109/109/98 110/110/98
f 103/105/99 102/103/99 117/108/99 118/111/99
f 96/106/100 95/104/100 110/110/100 111/112/100
f 104/92/101 103/105/101 118/111/101 119/113/101
f 97/94/102 96/106/102 111/112/102 112/114/102
f 105/93/103 104/92/103 119/113/103 120/115/103
f 98/95/104 97/94/104 112/114/104 113/116/104
f 106/96/105 105/93/105 120/115/105 121/117/105
f 99/97/106 98/95/106 113/116/106 114/118/106
f 92/98/107 392/14/107 107/119/107
f 16/14/108 106/96/108 121/117/108
f 100/99/109 99/97/109 114/118/109 115/120/109
f 93/100/110 92/98/110 107/119/110 108/121/110
f 101/101/111 100/99/111 115/120/111 116/107/111
f 94/102/112 93/100/112 108/121/112 109/109/112
f 121/117/113 120/115/113 135/122/113 136/123/113
f 114/118/114 113/116/114 128/124/114 129/125/114
f 107/119/115 392/14/115 122/126/115
f 16/14/116 121/117/116 136/123/116
f 115/120/117 114/118/117 129/125/117 130/127/117
f 108/121/118 107/119/118 122/126/118 123/128/118
f 116/107/119 115/120/119 130/127/119 131/129/119
f 109/109/120 108/121/120 123/128/120 124/130/120
f 117/108/121 116/107/121 131/129/121 132/131/121
f 110/110/122 109/109/122 124/130/122 125/132/122
f 118/111/123 117/108/123 132/131/123 133/133/123
f 111/112/124 110/110/124 125/132/124 126/134/124
f 119/113/125 118/111/125 133/133/125 134/135/125
f 112/114/126 111/112/126 126/134/126 127/136/126
f 120/115/127 119/113/127 134/135/127 135/122/127
f 113/116/128 112/114/128 127/136/128 128/124/128
f 125/132/129 124/130/129 139/137/129 140/138/129
f 133/133/130 132/131/130 147/139/130 148/140/130
f 126/134/131 125/132/131 140/138/131 141/141/131
f 134/135/132 133/133/132 148/140/132 149/142/132
f 127/136/133 126/134/133 141/141/133 142/143/133
f 135/122/134 134/135/134 149/142/134 150/144/134
f 128/124/135 127/136/135 142/143/135 143/145/135
f 136/123/136 135/122/136 150/144/136 151/146/136
f 129/125/137 128/124/137 143/145/137 144/147/137
f 122/126/138 392/14/138 137/148/138
f 16/14/139 136/123/139 151/146/139
f 130/127/140 129/125/140 144/147/140 145/149/140
f 123/128/141 122/126/141 137/148/141 138/150/141
f 131/129/142 130/127/142 145/149/142 146/151/142
f 124/130/143 123/128/143 138/150/143 139/137/143
f 132/131/144 131/129/144 146/151/144 147/139/144
f 144/147/145 143/145/145 158/152/145 159/153/145
f 137/148/146 392/14/146 152/154/146
f 16/14/147 151/146/147 166/155/147
f 145/149/148 144/147/148 159/153/148 160/156/148
f 138/150/149 137/148/149 152/154/149 153/157/149
f 146/151/150 145/149/150 160/156/150 161/158/150
f 139/137/151 138/150/151 153/157/151 154/159/151
f 147/139/152 146/151/152 161/158/152 162/160/152
f 140/138/153 139/137/153 154/159/153 155/161/153
f 148/140/154 147/139/154 162/160/154 163/162/154
f 141/141/155 140/138/155 155/161/155 156/163/155
f 149/142/156 148/140/156 163/162/156 164/164/156
f 142/143/157 141/141/157 156/163/157 157/165/157
f 150/144/158 149/142/158 164/164/158 165/166/158
f 143/145/159 142/143/159 157/165/159 158/152/159
f 151/146/160 150/144/160 165/166/160 166/155/160
f 163/162/161 162/160/161 177/167/161 178/168/161
f 156/163/162 155/161/162 170/169/162 171/170/162
f 164/164/163 163/162/163 178/168/163 179/171/163
f 157/165/164 156/163/164 171/170/164 172/172/164
f 165/166/165 164/164/165 179/171/165 180/173/165
f 158/152/166 157/165/166 172/172/166 173/174/166
f 166/155/167 165/166/167 180/173/167 181/175/167
f 159/153/168 158/152/168 173/174/168 174/176/168
f 152/154/169 392/14/169 167/177/169
f 16/14/170 166/155/170 181/175/170
f 160/156/171 159/153/171 174/176/171 175/178/171
f 153/157/172 152/154/172 167/177/172 168/179/172
f 161/158/173 160/156/173 175/178/173 176/180/173
f 154/159/174 153/157/174 168/179/174 169/181/174
f 162/160/175 161/158/175 176/180/175 177/167/175
f 155/161/176 154/159/176 169/181/176 170/169/176
f 167/177/177 392/14/177 182/182/177
f 16/14/178 181/175/178 196/183/178
f 175/178/179 174/176/179 189/184/179 190/185/179
f 168/179/180 167/177/180 182/182/180 183/186/180
f 176/180/181 175/178/181 190/185/181 191/187/181
f 169/181/182 168/179/182 183/186/182 184/188/182
f 177/167/183 176/180/183 191/187/183 192/189/183
f 170/169/184 169/181/184 184/188/184 185/190/184
f 178/168/185 177/167/185 192/189/185 193/191/185
f 171/170/186 170/169/186 185/190/186 186/192/186
f 179/171/187 178/168/187 193/191/187 194/193/187
f 172/172/188 171/170/188 186/192/188 187/194/188
f 180/173/189 179/171/189 194/193/189 195/195/189
f 173/174/190 172/172/190 187/194/190 188/196/190
f 181/175/191 180/173/191 195/195/191 196/183/191
f 174/176/192 173/174/192 188/196/192 189/184/192
f 186/192/193 185/190/193 200/197/193 201/198/193
f 194/193/194 193/191/194 208/199/194 209/200/194
f 187/194/195 186/192/195 201/198/195 202/201/195
f 195/195/196 194/193/196 209/200/196 210/202/196
f 188/196/197 187/194/197 202/201/197 203/203/197
f 196/183/198 195/195/198 210/202/198 211/204/198
f 189/184/199 188/196/199 203/203/199 204/205/199
f 182/182/200 392/14/200 197/206/200
f 16/14/201 196/183/201 211/204/201
f 190/185/202 189/184/202 204/205/202 205/207/202
f 183/186/203 182/182/203 197/206/203 198/208/203
f 191/187/204 190/185/204 205/207/204 206/209/204
f 184/188/205 183/186/205 198/208/205 199/210/205
f 192/189/206 191/187/206 206/209/206 207/211/206
f 185/190/207 184/188/207 199/210/207 200/197/207
f 193/191/208 192/189/208 207/211/208 208/199/208
f 205/207/209 204/205/209 219/212/209 220/213/209
f 198/208/210 197/206/210 212/214/210 213/215/210
f 206/209/211 205/207/211 220/213/211 221/216/211
f 199/210/212 198/208/212 213/215/212 214/217/212
f 207/211/213 206/209/213 221/216/213 222/218/213
f 200/197/214 199/210/214 214/217/214 215/219/214
f 208/199/215 207/211/215 222/218/215 223/220/215
f 201/198/216 200/197/216 215/219/216 216/221/216
f 209/200/217 208/199/217 223/220/217 224/222/217
f 202/201/218 201/198/218 216/221/218 217/223/218
f 210/202/219 209/200/219 224/222/219 225/224/219
f 203/203/220 202/201/220 217/223/220 218/225/220
f 211/204/221 210/202/221 225/224/221 226/226/221
f 204/205/222 203/203/222 218/225/222 219/212/222
f 197/206/223 392/14/223 212/214/223
f 16/14/224 211/204/224 226/226/224
f 224/222/225 223/220/225 238/227/225 239/228/225
f 217/223/226 216/221/226 231/229/226 232/230/226
f 225/224/227 224/222/227 239/228/227 240/231/227
f 218/225/228 217/223/228 232/230/228 233/232/228
f 226/226/229 225/224/229 240/231/229 241/233/229
f 219/212/230 218/225/230 233/232/230 234/234/230
f 212/214/231 392/14/231 227/235/231
f 16/14/232 226/226/232 241/233/232
f 220/213/233 219/212/233 234/234/233 235/236/233
f 213/215/234 212/214/234 227/235/234 228/237/234
f 221/216/235 220/213/235 235/236/235 236/238/235
f 214/217/236 213/215/236 228/237/236 229/239/236
f 222/218/237 221/216/237 236/238/237 237/240/237
f 215/219/238 214/217/238 229/239/238 230/241/238
f 223/220/239 222/218/239 237/240/239 238/227/239
f 216/221/240 215/219/240 230/241/240 231/229/240
f 236/238/241 235/236/241 250/242/241 251/243/241
f 229/239/242 228/237/242 243/244/242 244/245/242
f 237/240/243 236/238/243 251/243/243 252/246/243
f 230/241/244 229/239/244 244/245/244 245/247/244
f 238/227/245 237/240/245 252/246/245 253/248/245
f 231/229/246 230/241/246 245/247/246 246/249/246
f 239/228/247 238/227/247 253/248/247 254/250/247
f 232/230/248 231/229/248 246/249/248 247/251/248
f 240/231/249 239/228/249 254/250/249 255/252/249
f 233/232/250 232/230/250 247/251/250 248/253/250
f 241/233/251 240/231/251 255/252/251 256/254/251
f 234/234/252 233/232/252 248/253/252 249/255/252
f 227/235/253 392/14/253 242/256/253
f 16/14/254 241/233/254 256/254/254
f 235/236/255 234/234/255 249/255/255 250/242/255
f 228/237/256 227/235/256 242/256/256 243/244/256
f 255/252/257 254/250/257 269/257/257 270/258/257
f 248/253/258 247/251/258 262/259/258 263/260/258
f 256/254/259 255/252/259 270/258/259 271/261/259
f 249/255/260 248/253/260 263/260/260 264/262/260
f 242/256/261 392/14/261 257/263/261
f 16/14/262 256/254/262 271/261/262
f 250/242/263 249/255/263 264/262/263 265/264/263
f 243/244/264 242/256/264 257/263/264 258/265/264
f 251/243/265 250/242/265 265/264/265 266/266/265
f 244/245/266 243/244/266 258/265/266 259/267/266
f 252/246/267 251/243/267 266/266/267 267/268/267
f 245/247/268 244/245/268 259/267/268 260/269/268
f 253/248/269 252/246/269 267/268/269 268/270/269
f 246/249/270 245/247/270 260/269/270 261/271/270
f 254/250/271 253/248/271 268/270/271 269/257/271
f 247/251/272 246/249/272 261/271/272 262/259/272
f 259/267/273 258/265/273 273/272/273 274/273/273
f 267/268/274 266/266/274 281/274/274 282/275/274
f 260/269/275 259/267/275 274/273/275 275/276/275
f 268/270/276 267/268/276 282/275/276 283/277/276
f 261/271/277 260/269/277 275/276/277 276/278/277
f 269/257/278 268/270/278 283/277/278 284/279/278
f 262/259/279 261/271/279 276/278/279 277/280/279
f 270/258/280 269/257/280 284/279/280 285/281/280
f 263/260/281 262/259/281 277/280/281 278/282/281
f 271/261/282 270/258/282 285/281/282 286/283/282
f 264/262/283 263/260/283 278/282/283 279/284/283
f 257/263/284 392/14/284 272/285/284
f 16/14/285 271/261/285 286/283/285
f 265/264/286 264/262/286 279/284/286 280/286/286
f 258/265/287 257/263/287 272/285/287 273/272/287
f 266/266/288 265/264/288 280/286/288 281/274/288
f 278/282/289 277/280/289 292/287/289 293/288/289
f 286/283/290 285/281/290 300/289/290 301/290/290
f 279/284/291 278/282/291 293/288/291 294/291/291
f 272/285/292 392/14/292 287/292/292
f 16/14/293 286/283/293 301/290/293
f 280/286/294 279/284/294 294/291/294 295/293/294
f 273/272/295 272/285/295 287/292/295 288/294/295
f 281/274/296 280/286/296 295/293/296 296/295/296
f 274/273/297 273/272/297 288/294/297 289/296/297
f 282/275/298 281/274/298 296/295/298 297/297/298
f 275/276/299 274/273/299 289/296/299 290/298/299
f 283/277/300 282/275/300 297/297/300 298/299/300
f 276/278/301 275/276/301 290/298/301 291/300/301
f 284/279/302 283/277/302 298/299/302 299/301/302
f 277/280/303 276/278/303 291/300/303 292/287/303
f 285/281/304 284/279/304 299/301/304 300/289/304
f 297/297/305 296/295/305 311/302/305 312/303/305
f 290/298/306 289/296/306 304/304/306 305/305/306
f 298/299/307 297/297/307 312/303/307 313/306/307
f 291/300/308 290/298/308 305/305/308 306/307/308
f 299/301/309 298/299/309 313/306/309 314/308/309
f 292/287/310 291/300/310 306/307/310 307/309/310
f 300/289/311 299/301/311 314/308/311 315/310/311
f 293/288/312 292/287/312 307/309/312 308/311/312
f 301/290/313 300/289/313 315/310/313 316/312/313
f 294/291/314 293/288/314 308/311/314 309/313/314
f 287/292/315 392/14/315 302/314/315
f 16/14/316 301/290/316 316/312/316
f 295/293/317 294/291/317 309/313/317 310/315/317
f 288/294/318 287/292/318 302/314/318 303/316/318
f 296/295/319 295/293/319 310/315/319 311/302/319
f 289/296/320 288/294/320 303/316/320 304/304/320
f 316/312/321 315/310/321 330/317/321 331/318/321
f 309/313/322 308/311/322 323/319/322 324/320/322
f 302/314/323 392/14/323 317/321/323
f 16/14/324 316/312/324 331/318/324
f 310/315/325 309/313/325 324/320/325 325/322/325
f 303/316/326 302/314/326 317/321/326 318/323/326
f 311/302/327 310/315/327 325/322/327 326/324/327
f 304/304/328 303/316/328 318/323/328 319/325/328
f 312/303/329 311/302/329 326/324/329 327/326/329
f 305/305/330 304/304/330 319/325/330 320/327/330
f 313/306/331 312/303/331 327/326/331 328/328/331
f 306/307/332 305/305/332 320/327/332 321/329/332
f 314/308/333 313/306/333 328/328/333 329/330/333
f 307/309/334 306/307/334 321/329/334 322/331/334
f 315/310/335 314/308/335 329/330/335 330/317/335
f 308/311/336 307/309/336 322/331/336 323/319/336
f 320/327/337 319/325/337 334/332/337 335/333/337
f 328/328/338 327/326/338 342/334/338 343/335/338
f 321/329/339 320/327/339 335/333/339 336/336/339
f 329/330/340 328/328/340 343/335/340 344/337/340
f 322/331/341 321/329/341 336/336/341 337/338/341
f 330/317/342 329/330/342 344/337/342 345/339/342
f 323/319/343 322/331/343 337/338/343 338/340/343
f 331/318/344 330/317/344 345/339/344 346/341/344
f 324/320/345 323/319/345 338/340/345 339/342/345
f 317/321/346 392/14/346 332/343/346
f 16/14/347 331/318/347 346/341/347
f 325/322/348 324/320/348 339/342/348 340/344/348
f 318/323/349 317/321/349 332/343/349 333/345/349
f 326/324/350 325/322/350 340/344/350 341/346/350
f 319/325/351 318/323/351 333/345/351 334/332/351
f 327/326/352 326/324/352 341/346/352 342/334/352
f 339/342/353 338/340/353 353/347/353 354/348/353
f 332/343/354 392/14/354 347/349/354
f 16/14/355 346/341/355 361/350/355
f 340/344/356 339/342/356 354/348/356 355/351/356
f 333/345/357 332/343/357 347/349/357 348/352/357
f 341/346/358 340/344/358 355/351/358 356/353/358
f 334/332/359 333/345/359 348/352/359 349/354/359
f 342/334/360 341/346/360 356/353/360 357/355/360
f 335/333/361 334/332/361 349/354/361 350/356/361
f 343/335/362 342/334/362 357/355/362 358/357/362
f 336/336/363 335/333/363 350/356/363 351/358/363
f 344/337/364 343/335/364 358/357/364 359/359/364
f 337/338/365 336/336/365 351/358/365 352/360/365
f 345/339/366 344/337/366 359/359/366 360/361/366
f 338/340/367 337/338/367 352/360/367 353/347/367
f 346/341/368 345/339/368 360/361/368 361/350/368
f 358/357/369 357/355/369 372/362/369 373/363/369
f 351/358/370 350/356/370 365/364/370 366/365/370
f 359/359/371 358/357/371 373/363/371 374/366/371
f 352/360/372 351/358/372 366/365/372 367/367/372
f 360/361/373 359/359/373 374/366/373 375/368/373
f 353/347/374 352/360/374 367/367/374 368/369/374
f 361/350/375 360/361/375 375/368/375 376/370/375
f 354/348/376 353/347/376 368/369/376 369/371/376
f 347/349/377 392/14/377 362/372/377
f 16/14/378 361/350/378 376/370/378
f 355/351/379 354/348/379 369/371/379 370/373/379
f 348/352/380 347/349/380 362/372/380 363/374/380
f 356/353/381 355/351/381 370/373/381 371/375/381
f 349/354/382 348/352/382 363/374/382 364/376/382
f 357/355/383 356/353/383 371/375/383 372/362/383
f 350/356/384 349/354/384 364/376/384 365/364/384
f 16/14/385 376/370/385 391/377/385
f 370/373/386 369/371/386 384/378/386 385/379/386
f 363/374/387 362/372/387 377/380/387 378/381/387
f 371/375/388 370/373/388 385/379/388 386/382/388
f 364/376/389 363/374/389 378/381/389 379/383/389
f 372/362/390 371/375/390 386/382/390 387/384/390
f 365/364/391 364/376/391 379/383/391 380/385/391
f 373/363/392 372/362/392 387/384/392 388/386/392
f 366/365/393 365/364/393 380/385/393 381/387/393
f 374/366/394 373/363/394 388/386/394 389/388/394
f 367/367/395 366/365/395 381/387/395 382/389/395
f 375/368/396 374/366/396 389/388/396 390/390/396
f 368/369/397 367/367/397 382/389/397 383/391/397
f 376/370/398 375/368/398 390/390/398 391/377/398
f 369/371/399 368/369/399 383/391/399 384/378/399
f 362/372/400 392/14/400 377/380/400
f 389/388/401 388/386/401 404/392/401 405/393/401
f 382/389/402 381/387/402 397/394/402 398/395/402
f 390/390/403 389/388/403 405/393/403 406/396/403
f 383/391/404 382/389/404 398/395/404 399/397/404
f 391/377/405 390/390/405 406/396/405 407/398/405
f 384/378/406 383/391/406 399/397/406 400/399/406
f 377/380/407 392/14/407 393/400/407
f 16/14/408 391/377/408 407/398/408
f 385/379/409 384/378/409 400/399/409 401/401/409
f 378/381/410 377/380/410 393/400/410 394/402/410
f 386/382/411 385/379/411 401/401/411 402/403/411
f 379/383/412 378/381/412 394/402/412 395/404/412
f 387/384/413 386/382/413 402/403/413 403/405/413
f 380/385/414 379/383/414 395/404/414 396/406/414
f 388/386/415 387/384/415 403/405/415 404/392/415
f 381/387/416 380/385/416 396/406/416 397/394/416
f 394/402/417 393/400/417 408/407/417 409/408/417
f 402/403/418 401/401/418 416/409/418 417/410/418
f 395/404/419 394/402/419 409/408/419 410/411/419
f 403/405/420 402/403/420 417/410/420 418/412/420
f 396/406/421 395/404/421 410/411/421 411/413/421
f 404/392/422 403/405/422 418/412/422 419/414/422
f 397/394/423 396/406/423 411/413/423 412/415/423
f 405/393/424 404/392/424 419/414/424 420/416/424
f 398/395/425 397/394/425 412/415/425 413/417/425
f 406/396/426 405/393/426 420/416/426 421/418/426
f 399/397/427 398/395/427 413/417/427 414/419/427
f 407/398/428 406/396/428 421/418/428 422/420/428
f 400/399/429 399/397/429 414/419/429 415/421/429
f 393/400/430 392/14/430 408/407/430
f 16/14/431 407/398/431 422/420/431
f 401/401/432 400/399/432 415/421/432 416/409/432
f 413/417/433 412/415/433 427/422/433 428/423/433
f 421/418/434 420/416/434 435/424/434 436/425/434
f 414/419/435 413/417/435 428/423/435 429/426/435
f 422/420/436 421/418/436 436/425/436 437/427/436
f 415/421/437 414/419/437 429/426/437 430/428/437
f 408/407/438 392/14/438 423/429/438
f 16/14/439 422/420/439 437/427/439
f 416/409/440 415/421/440 430/428/440 431/430/440
f 409/408/441 408/407/441 423/429/441 424/431/441
f 417/410/442 416/409/442 431/430/442 432/432/442
f 410/411/443 409/408/443 424/431/443 425/433/443
f 418/412/444 417/410/444 432/432/444 433/434/444
f 411/413/445 410/411/445 425/433/445 426/435/445
f 419/414/446 418/412/446 433/434/446 434/436/446
f 412/415/447 411/413/447 426/435/447 427/422/447
f 420/416/448 419/414/448 434/436/448 435/424/448
f 432/432/449 431/430/449 446/437/449 447/438/449
f 425/433/450 424/431/450 439/439/450 440/440/450
f 433/434/451 432/432/451 447/438/451 448/441/451
f 426/435/452 425/433/452 440/440/452 441/442/452
f 434/436/453 433/434/453 448/441/453 449/443/453
f 427/422/454 426/435/454 441/442/454 442/444/454
f 435/424/455 434/436/455 449/443/455 450/445/455
f 428/423/456 427/422/456 442/444/456 443/446/456
f 436/425/457 435/424/457 450/445/457 451/447/457
f 429/426/458 428/423/458 443/446/458 444/448/458
f 437/427/459 436/425/459 451/447/459 452/449/459
f 430/428/460 429/426/460 444/448/460 445/450/460
f 423/429/461 392/14/461 438/451/461
f 16/14/462 437/427/462 452/449/462
f 431/430/463 430/428/463 445/450/463 446/437/463
f 424/431/464 423/429/464 438/451/464 439/439/464
f 451/447/465 450/445/465 465/452/465 466/453/465
f 444/448/466 443/446/466 458/454/466 459/455/466
f 452/449/467 451/447/467 466/453/467 467/456/467
f 445/450/468 444/448/468 459/455/468 460/457/468
f 438/451/469 392/14/469 453/458/469
f 16/14/470 452/449/470 467/456/470
f 446/437/471 445/450/471 460/457/471 461/459/471
f 439/439/472 438/451/472 453/458/472 454/460/472
f 447/438/473 446/437/473 461/459/473 462/461/473
f 440/440/474 439/439/474 454/460/474 455/462/474
f 448/441/475 447/438/475 462/461/475 463/463/475
f 441/442/476 440/440/476 455/462/476 456/464/476
f 449/443/477 448/441/477 463/463/477 464/465/477
f 442/444/478 441/442/478 456/464/478 457/466/478
f 450/445/479 449/443/479 464/465/479 465/452/479
f 443/446/480 442/444/480 457/466/480 458/454/480
f 455/462/481 454/460/481 469/467/481 470/468/481
f 463/463/482 462/461/482 477/469/482 478/470/482
f 456/464/483 455/462/483 470/468/483 471/471/483
f 464/465/484 463/463/484 478/470/484 479/472/484
f 457/466/485 456/464/485 471/471/485 472/473/485
f 465/452/486 464/465/486 479/472/486 480/474/486
f 458/454/487 457/466/487 472/473/487 473/475/487
f 466/453/488 465/452/488 480/474/488 481/476/488
f 459/455/489 458/454/489 473/475/489 474/477/489
f 467/456/490 466/453/490 481/476/490 482/478/490
f 460/457/491 459/455/491 474/477/491 475/479/491
f 453/458/492 392/14/492 468/480/492
f 16/14/493 467/456/493 482/478/493
f 461/459/494 460/457/494 475/479/494 476/481/494
f 454/460/495 453/458/495 468/480/495 469/467/495
f 462/461/496 461/459/496 476/481/496 477/469/496
f 474/477/497 473/475/497 6/6/497 7/5/497
f 482/478/498 481/476/498 14/1/498 15/9/498
f 475/479/499 474/477/499 7/5/499 8/11/499
f 468/480/500 392/14/500 1/13/500
f 16/14/501 482/478/501 15/9/501
f 476/481/502 475/479/502 8/11/502 9/16/502
f 469/467/503 468/480/503 1/13/503 2/18/503
f 477/469/504 476/481/504 9/16/504 10/20/504
f 470/468/505 469/467/505 2/18/505 3/22/505
f 478/470/506 477/469/506 10/20/506 11/24/506
f 471/471/507 470/468/507 3/22/507 4/26/507
f 479/472/508 478/470/508 11/24/508 12/28/508
f 472/473/509 471/471/509 4/26/509 5/30/509
f 480/474/510 479/472/510 12/28/510 13/2/510
f 473/475/511 472/473/511 5/30/511 6/6/511
f 481/476/512 480/474/512 13/2/512 14/1/512
