# Blender 4.5.4 LTS
# www.blender.org
mtllib paperella.mtl
o CIAMBELLA
v 0.000001 0.000002 8.500001
v 0.000001 1.250002 8.165001
v 0.000001 2.165002 7.250001
v 0.000001 2.500002 6.000001
v 0.000001 2.165002 4.750001
v 0.000001 1.250002 3.835001
v 0.000000 0.000002 3.500001
v 0.000001 -1.249998 3.835001
v 0.000001 -2.164998 4.750001
v 0.000001 -2.499997 6.000001
v 0.000001 -2.164998 7.250001
v 0.000001 -1.249998 8.165001
v -3.252999 0.000002 7.853002
v -3.124999 1.250002 7.544001
v -2.773999 2.165002 6.698001
v -2.295999 2.500002 5.543002
v -1.817999 2.165002 4.388001
v -1.467999 1.250002 3.543001
v -1.338999 0.000002 3.234001
v -1.467999 -1.249998 3.543001
v -1.817999 -2.164998 4.388001
v -2.296000 -2.499997 5.543002
v -2.773999 -2.164998 6.698001
v -3.124999 -1.249998 7.544001
v -6.010000 0.000002 6.010002
v -5.774000 1.250003 5.774002
v -5.127000 2.165002 5.127003
v -4.243000 2.500002 4.243001
v -3.359000 2.165002 3.359002
v -2.712000 1.250002 2.712001
v -2.475000 0.000002 2.475002
v -2.712000 -1.249998 2.712001
v -3.359000 -2.164998 3.359002
v -4.243000 -2.499997 4.243001
v -5.127000 -2.164998 5.127003
v -5.774000 -1.249997 5.774002
v -7.853000 0.000003 3.253003
v -7.544000 1.250003 3.125002
v -6.697999 2.165002 2.774002
v -5.543000 2.500003 2.296001
v -4.388000 2.165002 1.818001
v -3.543000 1.250002 1.468002
v -3.234000 0.000002 1.339001
v -3.543000 -1.249998 1.468002
v -4.388000 -2.164998 1.818001
v -5.543000 -2.499997 2.296001
v -6.697999 -2.164998 2.774002
v -7.544000 -1.249997 3.125002
v -8.500000 0.000003 0.000002
v -8.165000 1.250003 0.000002
v -7.250000 2.165002 0.000002
v -6.000000 2.500003 0.000002
v -4.750000 2.165002 0.000002
v -3.835000 1.250002 0.000001
v -3.500000 0.000002 0.000001
v -3.835000 -1.249998 0.000001
v -4.750000 -2.164998 0.000002
v -6.000000 -2.499997 0.000002
v -7.250000 -2.164998 0.000002
v -8.165000 -1.249997 0.000002
v -7.853000 0.000003 -3.252998
v -7.544000 1.250003 -3.124998
v -6.697999 2.165002 -2.773998
v -5.543001 2.500003 -2.295998
v -4.388000 2.165002 -1.817999
v -3.543000 1.250002 -1.467999
v -3.234000 0.000002 -1.338999
v -3.543000 -1.249998 -1.467999
v -4.388000 -2.164998 -1.817999
v -5.543001 -2.499997 -2.295998
v -6.697999 -2.164998 -2.773998
v -7.544000 -1.249997 -3.124998
v -6.010001 0.000002 -6.009998
v -5.774001 1.250003 -5.773998
v -5.127001 2.165002 -5.126999
v -4.243001 2.500002 -4.242999
v -3.359001 2.165002 -3.359000
v -2.712000 1.250002 -2.711999
v -2.475000 0.000002 -2.474999
v -2.712000 -1.249998 -2.711999
v -3.359001 -2.164998 -3.359000
v -4.243001 -2.499997 -4.242999
v -5.127001 -2.164998 -5.126999
v -5.774001 -1.249997 -5.773998
v -3.253001 0.000002 -7.853000
v -3.125001 1.250002 -7.544000
v -2.774001 2.165002 -6.697999
v -2.296000 2.500002 -5.542998
v -1.818000 2.165002 -4.388000
v -1.468000 1.250002 -3.542999
v -1.339000 0.000002 -3.233998
v -1.468000 -1.249998 -3.542999
v -1.818000 -2.164998 -4.388000
v -2.296001 -2.499997 -5.542998
v -2.774001 -2.164998 -6.697999
v -3.125001 -1.249998 -7.544000
v -0.000001 0.000002 -8.499999
v -0.000001 1.250002 -8.165000
v -0.000001 2.165002 -7.250000
v -0.000001 2.500002 -6.000000
v -0.000001 2.165002 -4.750000
v -0.000001 1.250002 -3.834998
v -0.000000 0.000002 -3.499999
v -0.000001 -1.249998 -3.834998
v -0.000001 -2.164998 -4.750000
v -0.000001 -2.499997 -6.000000
v -0.000001 -2.164998 -7.250000
v -0.000001 -1.249998 -8.165000
v 3.252999 0.000002 -7.853000
v 3.124999 1.250002 -7.544000
v 2.773999 2.165002 -6.697999
v 2.296000 2.500002 -5.542999
v 1.817999 2.165002 -4.388000
v 1.468000 1.250002 -3.542999
v 1.338999 0.000002 -3.233998
v 1.467999 -1.249998 -3.542999
v 1.817999 -2.164998 -4.388000
v 2.295999 -2.499999 -5.542999
v 2.773999 -2.164998 -6.697999
v 3.124999 -1.249998 -7.544000
v 6.010000 0.000002 -6.010000
v 5.774000 1.250001 -5.774000
v 5.127000 2.165002 -5.127000
v 4.243000 2.500002 -4.243000
v 3.359000 2.165002 -3.359001
v 2.712000 1.250002 -2.711999
v 2.475000 0.000002 -2.475000
v 2.712000 -1.249998 -2.711999
v 3.359000 -2.164998 -3.359001
v 4.243000 -2.499999 -4.243000
v 5.127000 -2.164998 -5.127000
v 5.774000 -1.249999 -5.774000
v 7.853001 0.000001 -3.253000
v 7.544000 1.250001 -3.125000
v 6.697999 2.165002 -2.774000
v 5.543000 2.500001 -2.295999
v 4.388000 2.165002 -1.818000
v 3.543000 1.250002 -1.468000
v 3.234000 0.000002 -1.339000
v 3.543000 -1.249998 -1.468000
v 4.388000 -2.164998 -1.818000
v 5.543000 -2.499999 -2.295999
v 6.697999 -2.164998 -2.774000
v 7.544000 -1.249999 -3.125000
v 8.500000 0.000001 -0.000000
v 8.165000 1.250001 -0.000000
v 7.250000 2.165002 0.000000
v 6.000000 2.500001 0.000000
v 4.750000 2.165002 0.000000
v 3.835000 1.250002 0.000000
v 3.500000 0.000002 0.000000
v 3.835000 -1.249998 0.000000
v 4.750000 -2.164998 0.000000
v 6.000000 -2.499999 0.000000
v 7.250000 -2.164998 0.000000
v 8.165000 -1.249999 -0.000000
v 7.853001 0.000001 3.253000
v 7.544000 1.250001 3.125000
v 6.697999 2.165002 2.774000
v 5.543001 2.500001 2.296000
v 4.388000 2.165002 1.818000
v 3.543000 1.250002 1.468001
v 3.234000 0.000002 1.339000
v 3.543000 -1.249998 1.468001
v 4.388000 -2.164998 1.818000
v 5.543001 -2.499999 2.296000
v 6.697999 -2.164998 2.774000
v 7.544000 -1.249999 3.125000
v 6.010001 0.000002 6.010001
v 5.774001 1.250001 5.774001
v 5.127002 2.165002 5.127001
v 4.243001 2.500002 4.243001
v 3.359001 2.165002 3.359001
v 2.712000 1.250002 2.712001
v 2.475001 0.000002 2.475001
v 2.712000 -1.249998 2.712001
v 3.359001 -2.164998 3.359001
v 4.243001 -2.499999 4.243001
v 5.127002 -2.164998 5.127001
v 5.774001 -1.249999 5.774001
v 3.253001 0.000002 7.853002
v 3.125001 1.250002 7.544001
v 2.774001 2.165002 6.698001
v 2.296001 2.500002 5.543001
v 1.818000 2.165002 4.388001
v 1.468001 1.250002 3.543001
v 1.339000 0.000002 3.234001
v 1.468000 -1.249998 3.543001
v 1.818000 -2.164998 4.388001
v 2.296000 -2.499999 5.543001
v 2.774001 -2.164998 6.698001
v 3.125001 -1.249998 7.544001
v -5.208712 3.498894 2.071512
v -5.638151 3.498894 -0.086021
v -4.817801 3.184097 -4.903820
v -3.987113 3.498894 -4.073134
v 4.817800 3.184096 -4.903821
v 6.294055 3.184096 -2.692726
v -3.008071 5.102913 -5.938319
v -3.256076 5.102914 -7.184312
v -2.782317 4.921115 -9.966628
v -2.302589 5.102913 -9.486899
v 2.782315 4.921115 -9.966628
v 3.634865 4.921115 -8.689704
v 0.000001 6.585744 5.030777
v 0.000001 6.362560 6.151268
v 0.000001 6.585744 5.030777
v 0.000001 6.585744 5.030777
v 0.000001 6.585744 5.030777
v 0.792120 6.362560 5.822895
v 1.120492 6.362560 5.030777
v 1.463500 5.728683 6.494274
v 2.069937 5.728683 5.030777
v 0.000001 5.728683 7.100711
v 1.912610 4.779239 6.943386
v 2.703814 4.779239 5.030776
v 0.000001 4.779239 7.734590
v 2.069937 3.658748 7.100711
v 2.926997 3.658748 5.030776
v 0.000002 3.658748 7.957773
v 1.912610 2.538257 6.943386
v 2.703814 2.538257 5.030776
v 0.000001 2.538257 7.734590
v 1.463499 1.588812 6.494274
v 2.069937 1.588812 5.030777
v 0.000001 1.588812 7.100711
v 0.792119 0.954934 5.822895
v 1.120492 0.954934 5.030777
v 0.000001 0.954934 6.151268
v 0.000001 0.731751 5.030777
v 0.000001 0.731751 5.030777
v 0.000001 0.731751 5.030777
v 0.000001 0.731751 5.030777
v -0.792117 0.954934 5.822895
v 0.000001 0.731751 5.030777
v -1.120490 0.954934 5.030777
v 0.000001 0.731751 5.030777
v -0.792118 0.954934 4.238658
v 0.000001 0.731751 5.030777
v 0.000001 0.954934 3.910285
v 0.000001 0.731751 5.030777
v 0.792119 0.954934 4.238658
v 1.463499 1.588812 3.567278
v 1.912609 2.538257 3.118167
v 0.000000 1.588812 2.960841
v 0.000000 2.538257 2.326963
v -1.463498 1.588813 3.567278
v -1.912609 2.538257 3.118167
v -2.069934 1.588813 5.030777
v -2.703812 2.538257 5.030777
v -1.463497 1.588813 6.494274
v -1.912608 2.538257 6.943386
v -2.069934 3.658748 7.100711
v -1.912608 4.779239 6.943386
v -2.926996 3.658748 5.030777
v -2.703812 4.779239 5.030777
v -2.069935 3.658748 2.960841
v -1.912609 4.779239 3.118167
v 0.000001 3.658748 2.103780
v 0.000001 4.779239 2.326963
v 2.069936 3.658748 2.960841
v 1.912609 4.779239 3.118167
v 1.463500 5.728683 3.567278
v 0.792120 6.362560 4.238658
v 0.000001 5.728683 2.960841
v 0.000001 6.362560 3.910285
v -1.463497 5.728683 3.567278
v -0.792118 6.362560 4.238658
v -2.069934 5.728683 5.030777
v -1.120490 6.362560 5.030777
v -1.463497 5.728683 6.494274
v -0.792117 6.362560 5.822895
v 0.000001 6.585744 5.030777
v 0.000001 6.585744 5.030777
v 0.000001 6.585744 5.030777
v 0.000001 6.585744 5.030777
v 1.126565 3.109936 7.562958
v 1.372031 3.355401 7.562958
v 1.126565 3.355401 7.317492
v -1.126563 3.355401 7.317492
v -1.372028 3.355401 7.562958
v -1.126563 3.109936 7.562958
v 1.372031 3.596219 7.562958
v 1.126565 3.841684 7.562958
v 1.126565 3.596219 7.317492
v 1.126565 3.109936 9.816086
v 1.126565 3.355401 10.061551
v 1.372032 3.355401 9.816086
v 1.372032 3.596219 9.816086
v 1.126565 3.596219 10.061551
v 1.126565 3.841684 9.816086
v -1.126562 3.109936 9.816086
v -1.372028 3.355401 9.816086
v -1.126562 3.355401 10.061551
v -1.372028 3.596219 9.816086
v -1.126562 3.841684 9.816086
v -1.126562 3.596219 10.061551
v -1.372028 3.596219 7.562958
v -1.126563 3.596219 7.317492
v -1.126563 3.841684 7.562958
v 5.127000 2.165002 -5.127000
v 4.243000 2.500002 -4.243000
v 6.697999 2.165002 -2.774000
v 5.543000 2.500001 -2.295999
v 7.250000 2.165002 0.000000
v 6.000000 2.500001 0.000000
v 6.697999 2.165002 2.774000
v 5.543001 2.500001 2.296000
v 4.817800 3.184096 -4.903821
v 3.987112 3.498893 -4.073135
v 6.294055 3.184096 -2.692726
v 5.208713 3.498893 -2.243555
v 6.812767 3.184096 -0.086022
v 5.638151 3.498893 -0.086022
v 6.294056 3.184096 2.520684
v 5.208713 3.498893 2.071511
v 2.782315 4.921115 -9.966628
v 2.302587 5.102913 -9.486899
v 3.634865 4.921115 -8.689704
v 3.008071 5.102913 -8.430305
v 3.934424 4.921115 -7.184312
v 3.256075 5.102912 -7.184312
v 3.634865 4.921115 -5.678920
v 3.008071 5.102913 -5.938320
v -6.697999 2.165002 2.774002
v -5.543000 2.500003 2.296001
v -7.250000 2.165002 0.000002
v -6.000000 2.500003 0.000002
v -6.697999 2.165002 -2.773998
v -5.543001 2.500003 -2.295998
v -5.127001 2.165002 -5.126999
v -4.243001 2.500002 -4.242999
v -6.294055 3.184097 2.520685
v -5.208712 3.498894 2.071512
v -6.812766 3.184097 -0.086021
v -5.638151 3.498894 -0.086021
v -6.294055 3.184097 -2.692724
v -5.208712 3.498894 -2.243554
v -4.817801 3.184097 -4.903820
v -3.987113 3.498894 -4.073134
v -3.634865 4.921115 -5.678920
v -3.008071 5.102913 -5.938319
v -3.934425 4.921115 -7.184312
v -3.256076 5.102914 -7.184312
v -3.634866 4.921115 -8.689704
v -3.008072 5.102913 -8.430305
v -2.782317 4.921115 -9.966628
v -2.302589 5.102913 -9.486899
vn -0.1886 0.2540 0.9486
vn -0.1392 0.7004 0.7001
vn -0.0514 0.9646 0.2585
vn 0.0515 0.9646 -0.2585
vn 0.1394 0.7001 -0.7003
vn 0.1886 0.2541 -0.9486
vn 0.1886 -0.2541 -0.9486
vn 0.1394 -0.7001 -0.7003
vn 0.0515 -0.9646 -0.2585
vn -0.0514 -0.9646 0.2585
vn -0.1392 -0.7004 0.7001
vn -0.1886 -0.2540 0.9486
vn -0.5375 0.2536 0.8042
vn -0.3964 0.7004 0.5935
vn -0.1464 0.9646 0.2192
vn 0.1464 0.9646 -0.2192
vn 0.3966 0.7001 -0.5938
vn 0.5372 0.2543 -0.8042
vn 0.5372 -0.2543 -0.8042
vn 0.3966 -0.7001 -0.5938
vn 0.1464 -0.9646 -0.2192
vn -0.1464 -0.9646 0.2192
vn -0.3964 -0.7004 0.5935
vn -0.5375 -0.2536 0.8042
vn -0.8042 0.2536 0.5375
vn -0.5935 0.7004 0.3964
vn -0.2192 0.9646 0.1464
vn 0.2192 0.9646 -0.1464
vn 0.5938 0.7001 -0.3966
vn 0.8042 0.2543 -0.5372
vn 0.8042 -0.2543 -0.5372
vn 0.5938 -0.7001 -0.3966
vn 0.2192 -0.9646 -0.1464
vn -0.2192 -0.9646 0.1464
vn -0.5935 -0.7004 0.3964
vn -0.8042 -0.2536 0.5375
vn -0.9486 0.2540 0.1886
vn -0.7001 0.7004 0.1392
vn 0.2585 0.9646 -0.0515
vn 0.7003 0.7001 -0.1394
vn 0.9486 0.2541 -0.1886
vn 0.9486 -0.2541 -0.1886
vn 0.7003 -0.7001 -0.1394
vn 0.2585 -0.9646 -0.0515
vn -0.2585 -0.9646 0.0514
vn -0.7001 -0.7004 0.1392
vn -0.9486 -0.2540 0.1886
vn -0.9486 0.2540 -0.1886
vn -0.7001 0.7004 -0.1392
vn 0.2585 0.9646 0.0515
vn 0.7003 0.7001 0.1394
vn 0.9486 0.2541 0.1886
vn 0.9486 -0.2541 0.1886
vn 0.7003 -0.7001 0.1394
vn 0.2585 -0.9646 0.0515
vn -0.2585 -0.9646 -0.0514
vn -0.7001 -0.7004 -0.1392
vn -0.9486 -0.2540 -0.1886
vn -0.8042 0.2536 -0.5375
vn -0.5935 0.7004 -0.3964
vn 0.2192 0.9646 0.1464
vn 0.5938 0.7001 0.3966
vn 0.8042 0.2543 0.5372
vn 0.8042 -0.2543 0.5372
vn 0.5938 -0.7001 0.3966
vn 0.2192 -0.9646 0.1464
vn -0.2192 -0.9646 -0.1464
vn -0.5935 -0.7004 -0.3964
vn -0.8042 -0.2536 -0.5375
vn -0.5375 0.2536 -0.8042
vn -0.3964 0.7004 -0.5935
vn -0.1464 0.9646 -0.2192
vn 0.1464 0.9646 0.2192
vn 0.3966 0.7001 0.5938
vn 0.5372 0.2543 0.8042
vn 0.5372 -0.2543 0.8042
vn 0.3966 -0.7001 0.5938
vn 0.1464 -0.9646 0.2192
vn -0.1464 -0.9646 -0.2192
vn -0.3964 -0.7004 -0.5935
vn -0.5375 -0.2536 -0.8042
vn -0.1886 0.2540 -0.9486
vn -0.1392 0.7004 -0.7001
vn -0.0514 0.9646 -0.2585
vn 0.0515 0.9646 0.2585
vn 0.1394 0.7001 0.7003
vn 0.1886 0.2541 0.9486
vn 0.1886 -0.2541 0.9486
vn 0.1394 -0.7001 0.7003
vn 0.0515 -0.9646 0.2585
vn -0.0514 -0.9646 -0.2585
vn -0.1392 -0.7004 -0.7001
vn -0.1886 -0.2540 -0.9486
vn 0.1886 0.2540 -0.9486
vn 0.1392 0.7004 -0.7001
vn 0.0514 0.9646 -0.2585
vn -0.0515 0.9646 0.2585
vn -0.1394 0.7001 0.7003
vn -0.1886 0.2541 0.9486
vn -0.1886 -0.2541 0.9486
vn -0.1394 -0.7001 0.7003
vn -0.0515 -0.9646 0.2585
vn 0.0514 -0.9646 -0.2585
vn 0.1392 -0.7004 -0.7001
vn 0.1886 -0.2540 -0.9486
vn 0.5375 0.2536 -0.8042
vn 0.3964 0.7004 -0.5935
vn -0.3966 0.7001 0.5938
vn -0.5372 0.2543 0.8042
vn -0.5372 -0.2543 0.8042
vn -0.3966 -0.7001 0.5938
vn 0.3964 -0.7004 -0.5935
vn 0.5375 -0.2536 -0.8042
vn 0.8042 0.2536 -0.5375
vn 0.5935 0.7004 -0.3964
vn -0.5938 0.7001 0.3966
vn -0.8042 0.2543 0.5372
vn -0.8042 -0.2543 0.5372
vn -0.5938 -0.7001 0.3966
vn 0.5935 -0.7004 -0.3964
vn 0.8042 -0.2536 -0.5375
vn 0.9486 0.2540 -0.1886
vn 0.7001 0.7004 -0.1392
vn -0.2585 0.9646 0.0515
vn -0.7003 0.7001 0.1394
vn -0.9486 0.2541 0.1886
vn -0.9486 -0.2541 0.1886
vn -0.7003 -0.7001 0.1394
vn -0.2585 -0.9646 0.0515
vn 0.2585 -0.9646 -0.0514
vn 0.7001 -0.7004 -0.1392
vn 0.9486 -0.2540 -0.1886
vn 0.9486 0.2540 0.1886
vn 0.7001 0.7004 0.1392
vn -0.2585 0.9646 -0.0515
vn -0.7003 0.7001 -0.1394
vn -0.9486 0.2541 -0.1886
vn -0.9486 -0.2541 -0.1886
vn -0.7003 -0.7001 -0.1394
vn -0.2585 -0.9646 -0.0515
vn 0.2585 -0.9646 0.0514
vn 0.7001 -0.7004 0.1392
vn 0.9486 -0.2540 0.1886
vn 0.8042 0.2536 0.5375
vn 0.5935 0.7004 0.3964
vn -0.2192 0.9646 -0.1464
vn -0.5938 0.7001 -0.3966
vn -0.8042 0.2543 -0.5372
vn -0.8042 -0.2543 -0.5372
vn -0.5938 -0.7001 -0.3966
vn 0.5935 -0.7004 0.3964
vn 0.8042 -0.2536 0.5375
vn 0.5375 0.2536 0.8042
vn 0.3964 0.7004 0.5935
vn -0.3966 0.7001 -0.5938
vn -0.5372 0.2543 -0.8042
vn -0.5372 -0.2543 -0.8042
vn -0.3966 -0.7001 -0.5938
vn 0.3964 -0.7004 0.5935
vn 0.5375 -0.2536 0.8042
vn 0.1886 0.2540 0.9486
vn 0.1392 0.7004 0.7001
vn 0.0514 0.9646 0.2585
vn -0.0515 0.9646 -0.2585
vn -0.1394 0.7001 -0.7003
vn -0.1886 0.2541 -0.9486
vn -0.1886 -0.2541 -0.9486
vn -0.1394 -0.7001 -0.7003
vn -0.0515 -0.9646 -0.2585
vn 0.0514 -0.9646 0.2585
vn 0.1392 -0.7004 0.7001
vn 0.1886 -0.2540 0.9486
vn 0.6993 -0.5413 -0.4669
vn 0.4545 -0.8826 -0.1201
vn 0.3882 -0.9183 -0.0773
vn 0.0807 0.9775 0.1947
vn -0.0807 0.9775 0.1947
vn 0.1947 0.9775 0.0807
vn 0.5411 0.8105 0.2242
vn 0.2242 0.8105 0.5411
vn 0.7862 0.5254 0.3255
vn 0.3255 0.5254 0.7862
vn 0.9088 0.1807 0.3761
vn 0.3761 0.1807 0.9088
vn 0.9088 -0.1807 0.3761
vn 0.3761 -0.1807 0.9088
vn 0.7862 -0.5254 0.3255
vn 0.3255 -0.5254 0.7862
vn 0.5411 -0.8105 0.2242
vn 0.2242 -0.8105 0.5411
vn 0.1947 -0.9775 0.0807
vn 0.0807 -0.9775 0.1947
vn -0.0807 -0.9775 0.1947
vn -0.1947 -0.9775 0.0807
vn -0.1947 -0.9775 -0.0807
vn -0.0807 -0.9775 -0.1947
vn 0.0807 -0.9775 -0.1947
vn 0.1947 -0.9775 -0.0807
vn 0.5411 -0.8105 -0.2242
vn 0.2242 -0.8105 -0.5411
vn 0.7862 -0.5254 -0.3255
vn 0.3255 -0.5254 -0.7862
vn -0.3255 -0.5254 -0.7862
vn -0.2242 -0.8105 -0.5411
vn -0.7862 -0.5254 -0.3255
vn -0.5411 -0.8105 -0.2242
vn -0.7862 -0.5254 0.3255
vn -0.5411 -0.8105 0.2242
vn -0.3255 -0.5254 0.7862
vn -0.2242 -0.8105 0.5411
vn -0.9088 -0.1807 0.3761
vn -0.3761 -0.1807 0.9088
vn -0.9088 0.1807 0.3761
vn -0.3761 0.1807 0.9088
vn -0.9088 0.1807 -0.3761
vn -0.9088 -0.1807 -0.3761
vn -0.3761 0.1807 -0.9088
vn -0.3761 -0.1807 -0.9088
vn 0.3761 0.1807 -0.9088
vn 0.3761 -0.1807 -0.9088
vn 0.9088 0.1807 -0.3761
vn 0.9088 -0.1807 -0.3761
vn 0.7862 0.5254 -0.3255
vn 0.3255 0.5254 -0.7862
vn 0.5411 0.8105 -0.2242
vn 0.2242 0.8105 -0.5411
vn -0.2242 0.8105 -0.5411
vn -0.3255 0.5254 -0.7862
vn -0.5411 0.8105 -0.2242
vn -0.7862 0.5254 -0.3255
vn -0.5411 0.8105 0.2242
vn -0.7862 0.5254 0.3255
vn -0.2242 0.8105 0.5411
vn -0.3255 0.5254 0.7862
vn -0.1947 0.9775 0.0807
vn -0.1947 0.9775 -0.0807
vn -0.0807 0.9775 -0.1947
vn 0.0807 0.9775 -0.1947
vn 0.1947 0.9775 -0.0807
vn 0.5773 -0.5774 -0.5774
vn -0.5774 -0.5774 -0.5774
vn 0.5773 0.5774 -0.5774
vn 0.5773 -0.5774 0.5774
vn 0.5773 0.5774 0.5774
vn -0.5773 -0.5774 0.5774
vn -0.5773 0.5774 0.5774
vn -0.5774 0.5773 -0.5774
vn -0.0000 -0.7071 -0.7071
vn 0.7071 -0.0000 -0.7071
vn 0.7071 -0.7071 -0.0000
vn 0.7071 -0.0000 0.7071
vn -0.0000 -0.7071 0.7071
vn -0.7071 -0.0000 0.7071
vn -0.7071 -0.7071 -0.0000
vn -0.0000 0.7071 0.7071
vn -0.7071 0.7071 -0.0000
vn -0.0000 0.7071 -0.7071
vn -0.7071 -0.0000 -0.7071
vn 0.7071 0.7071 -0.0000
vn -0.0000 -0.0000 -1.0000
vn 1.0000 -0.0000 -0.0000
vn -0.0000 -1.0000 -0.0000
vn -1.0000 -0.0000 -0.0000
vn -0.0000 1.0000 -0.0000
vn -0.0000 -0.0000 1.0000
vn -0.7949 -0.2939 0.5308
vn 0.9093 0.3748 -0.1809
vn -0.7180 -0.0661 -0.6929
vn 0.7790 0.3503 -0.5201
vn 0.7556 0.6376 -0.1503
vn -0.5878 0.7074 0.3925
vn 0.2256 0.9653 0.1313
vn 0.8986 0.4006 0.1788
vn -0.9290 -0.3206 0.1849
vn -0.9192 -0.3487 -0.1830
vn -0.3588 0.0887 0.9292
vn 0.2585 0.9646 -0.0514
vn 0.2585 0.9646 0.0514
vn -0.8437 -0.5098 0.1679
vn 0.3742 0.9244 0.0745
vn -0.4545 -0.8826 -0.1201
vn -0.3882 -0.9183 -0.0773
vn 0.7180 -0.0661 -0.6929
vn 0.7949 -0.2939 0.5308
vn 0.8437 -0.5098 0.1679
vn -0.7556 0.6376 -0.1503
vn -0.8986 0.4006 0.1788
vn 0.3588 0.0887 0.9292
vn -0.9093 0.3748 -0.1809
vn 0.9192 -0.3487 -0.1830
vn -0.7790 0.3502 -0.5201
vn 0.9290 -0.3206 0.1849
vn -0.2585 0.9646 0.0514
vn -0.2585 0.9646 -0.0514
vn -0.6993 -0.5413 -0.4669
vn -0.2256 0.9653 0.1313
vn 0.5878 0.7074 0.3925
vn -0.3742 0.9244 0.0745
vt 0.357071 0.531387
vt 0.329105 0.531435
vt 0.325513 0.462673
vt 0.353329 0.459806
vt 0.304760 0.528845
vt 0.301567 0.467803
vt 0.476698 0.017288
vt 0.471433 0.042774
vt 0.420840 0.042790
vt 0.415573 0.017304
vt 0.466168 0.069928
vt 0.426107 0.069943
vt 0.462314 0.091472
vt 0.429967 0.091478
vt 0.889308 0.545140
vt 0.865110 0.543727
vt 0.865108 0.514224
vt 0.889309 0.512793
vt 0.837179 0.545139
vt 0.837180 0.512792
vt 0.813002 0.548996
vt 0.813005 0.508935
vt 0.752901 0.091472
vt 0.747636 0.065986
vt 0.798229 0.066001
vt 0.792962 0.091487
vt 0.742371 0.038832
vt 0.803496 0.038848
vt 0.738517 0.017288
vt 0.807373 0.017288
vt 0.381163 0.528714
vt 0.377571 0.459951
vt 0.315277 0.399510
vt 0.342671 0.394065
vt 0.292482 0.411703
vt 0.374093 0.062016
vt 0.359079 0.040538
vt 0.389108 0.085162
vt 0.400097 0.103770
vt 0.868079 0.486946
vt 0.892560 0.482922
vt 0.840431 0.482921
vt 0.817031 0.471934
vt 0.844975 0.085227
vt 0.829961 0.106706
vt 0.859990 0.062081
vt 0.870979 0.043473
vt 0.367335 0.396789
vt 0.299956 0.351560
vt 0.326726 0.344142
vt 0.535730 0.344142
vt 0.558525 0.359414
vt 0.549439 0.403200
vt 0.525493 0.393430
vt 0.338336 0.097572
vt 0.315867 0.083509
vt 0.360805 0.113304
vt 0.377242 0.126486
vt 0.647207 0.484485
vt 0.671865 0.491805
vt 0.676254 0.512942
vt 0.652013 0.507632
vt 0.699264 0.487206
vt 0.704070 0.510353
vt 0.722059 0.471934
vt 0.728011 0.500609
vt 0.880733 0.120783
vt 0.858264 0.134847
vt 0.903202 0.105052
vt 0.919656 0.091844
vt 0.352014 0.348838
vt 0.497677 0.390863
vt 0.521902 0.457325
vt 0.493936 0.457373
vt 0.546247 0.459915
vt 0.345474 0.150068
vt 0.318978 0.144004
vt 0.364869 0.156174
vt 0.677793 0.540320
vt 0.653701 0.537646
vt 0.705759 0.540367
vt 0.730104 0.537777
vt 0.900091 0.167215
vt 0.873595 0.171612
vt 0.926587 0.161151
vt 0.945983 0.155045
vt 0.473436 0.396152
vt 0.469844 0.460046
vt 0.525493 0.526087
vt 0.497677 0.528954
vt 0.549439 0.520957
vt 0.345489 0.189863
vt 0.318993 0.194261
vt 0.364875 0.188306
vt 0.676254 0.569783
vt 0.652013 0.569949
vt 0.704070 0.572670
vt 0.728011 0.577783
vt 0.900075 0.217472
vt 0.873580 0.211406
vt 0.926571 0.221870
vt 0.945983 0.223443
vt 0.473436 0.528809
vt 0.535730 0.589250
vt 0.508336 0.594695
vt 0.558525 0.577057
vt 0.360810 0.226615
vt 0.338348 0.240696
vt 0.377250 0.217977
vt 0.671865 0.596869
vt 0.647207 0.599610
vt 0.699264 0.602331
vt 0.722059 0.614524
vt 0.880721 0.263907
vt 0.858259 0.248159
vt 0.903183 0.277988
vt 0.919623 0.286626
vt 0.483672 0.591971
vt 0.551051 0.637200
vt 0.524281 0.644618
vt 0.299447 0.269638
vt 0.315886 0.256444
vt 0.359145 0.299369
vt 0.348142 0.317991
vt 0.374142 0.276215
vt 0.389140 0.254730
vt 0.904030 0.471934
vt 0.925997 0.488375
vt 0.919990 0.511240
vt 0.896591 0.500259
vt 0.953119 0.494397
vt 0.947633 0.515276
vt 0.692070 0.624845
vt 0.665295 0.617431
vt 0.841820 0.234965
vt 0.829929 0.276273
vt 0.818951 0.257668
vt 0.844926 0.299426
vt 0.859924 0.320912
vt 0.381163 0.363988
vt 0.403958 0.348715
vt 0.414195 0.398004
vt 0.390249 0.407773
vt 0.431352 0.344142
vt 0.442011 0.395437
vt 0.466253 0.400725
vt 0.469844 0.464620
vt 0.445753 0.461946
vt 0.415620 0.322598
vt 0.411766 0.344142
vt 0.420885 0.295445
vt 0.426151 0.269959
vt 0.916737 0.541125
vt 0.892560 0.537268
vt 0.944668 0.542536
vt 0.972119 0.511238
vt 0.968866 0.541123
vt 0.792918 0.291502
vt 0.789064 0.269959
vt 0.798183 0.318656
vt 0.803449 0.344142
vt 0.417786 0.461898
vt 0.393441 0.464489
vt 0.466253 0.533382
vt 0.442011 0.533527
vt 0.476745 0.322583
vt 0.480622 0.344142
vt 0.471478 0.295429
vt 0.466212 0.269944
vt 0.916738 0.573472
vt 0.892564 0.577329
vt 0.944667 0.572039
vt 0.968867 0.573470
vt 0.752857 0.291487
vt 0.756717 0.269953
vt 0.747590 0.318640
vt 0.742323 0.344126
vt 0.414195 0.530661
vt 0.390249 0.525531
vt 0.456016 0.596545
vt 0.431352 0.599268
vt 0.533239 0.299349
vt 0.544229 0.317957
vt 0.518225 0.276203
vt 0.503210 0.254725
vt 0.919990 0.603343
vt 0.896589 0.614330
vt 0.947637 0.599318
vt 0.972119 0.603342
vt 0.715858 0.276268
vt 0.726848 0.257661
vt 0.700844 0.299414
vt 0.685830 0.320893
vt 0.403958 0.593823
vt 0.381163 0.581630
vt 0.440695 0.644495
vt 0.415407 0.649191
vt 0.576451 0.256378
vt 0.592905 0.269586
vt 0.531513 0.226583
vt 0.553982 0.240647
vt 0.804957 0.624845
vt 0.782162 0.609572
vt 0.786968 0.586425
vt 0.810908 0.596170
vt 0.754763 0.604974
vt 0.759152 0.583837
vt 0.730104 0.612294
vt 0.734910 0.589147
vt 0.687556 0.248127
vt 0.703993 0.234944
vt 0.665087 0.263858
vt 0.642618 0.277922
vt 0.647207 0.629346
vt 0.624411 0.644618
vt 0.614175 0.595330
vt 0.638121 0.585560
vt 0.388637 0.641774
vt 0.586359 0.597897
vt 0.562117 0.592608
vt 0.558525 0.528714
vt 0.582617 0.531387
vt 0.599837 0.200279
vt 0.619232 0.206385
vt 0.546844 0.189819
vt 0.573340 0.194215
vt 0.788657 0.556411
vt 0.813002 0.559001
vt 0.760691 0.556459
vt 0.736599 0.559133
vt 0.672224 0.211362
vt 0.691620 0.205256
vt 0.645728 0.217426
vt 0.619232 0.221823
vt 0.610583 0.531435
vt 0.634928 0.528845
vt 0.562117 0.459951
vt 0.586359 0.459806
vt 0.599821 0.139560
vt 0.619232 0.137987
vt 0.546829 0.150024
vt 0.573325 0.143959
vt 0.786968 0.524108
vt 0.810908 0.518995
vt 0.759152 0.526996
vt 0.734910 0.526830
vt 0.672240 0.171568
vt 0.691626 0.173124
vt 0.645744 0.167170
vt 0.619248 0.161104
vt 0.614175 0.462673
vt 0.638121 0.467803
vt 0.572354 0.396789
vt 0.597018 0.394065
vt 0.576432 0.083443
vt 0.592872 0.074804
vt 0.553970 0.097523
vt 0.531509 0.113272
vt 0.782162 0.494447
vt 0.804957 0.482254
vt 0.754763 0.499909
vt 0.730104 0.497169
vt 0.687560 0.134815
vt 0.704000 0.143454
vt 0.665098 0.120734
vt 0.642637 0.104986
vt 0.624411 0.399510
vt 0.647207 0.411703
vt 0.342671 0.649191
vt 0.315277 0.644618
vt 0.325513 0.595330
vt 0.353329 0.597897
vt 0.292482 0.629346
vt 0.301567 0.585560
vt 0.518176 0.062004
vt 0.533173 0.040518
vt 0.503179 0.085157
vt 0.515069 0.126465
vt 0.492201 0.103762
vt 0.748192 0.479347
vt 0.774967 0.471934
vt 0.873561 0.591867
vt 0.846439 0.597889
vt 0.840431 0.575024
vt 0.868074 0.570988
vt 0.824472 0.614330
vt 0.817032 0.586004
vt 0.700893 0.085215
vt 0.715890 0.106701
vt 0.685896 0.062062
vt 0.626197 0.091793
vt 0.674892 0.043440
vt 0.612963 0.344142
vt 0.639732 0.351560
vt 0.892560 0.575025
vt 0.377571 0.592608
vt 0.194609 0.413256
vt 0.201538 0.428902
vt 0.188355 0.428776
vt 0.210856 0.419663
vt 0.179029 0.419370
vt 0.142564 0.372019
vt 0.155810 0.372019
vt 0.161425 0.384128
vt 0.136954 0.384128
vt 0.208076 0.441498
vt 0.183721 0.441269
vt 0.165180 0.400207
vt 0.133208 0.400203
vt 0.195173 0.656545
vt 0.140751 0.656204
vt 0.140714 0.616100
vt 0.210830 0.617560
vt 0.166495 0.417804
vt 0.131888 0.417802
vt 0.140788 0.570321
vt 0.218642 0.570543
vt 0.165177 0.434237
vt 0.133205 0.434233
vt 0.048738 0.363505
vt 0.053222 0.339025
vt 0.069654 0.337707
vt 0.065512 0.360331
vt 0.161419 0.446994
vt 0.136948 0.446993
vt 0.083364 0.452433
vt 0.051543 0.452714
vt 0.053850 0.442265
vt 0.078205 0.442035
vt 0.095432 0.424655
vt 0.071671 0.427659
vt 0.080997 0.418253
vt 0.058488 0.427785
vt 0.064748 0.411476
vt 0.049170 0.418546
vt 0.049168 0.405363
vt 0.058494 0.395957
vt 0.071677 0.395831
vt 0.080995 0.405069
vt 0.095432 0.400299
vt 0.078215 0.383234
vt 0.101663 0.337729
vt 0.097518 0.360321
vt 0.082413 0.351274
vt 0.085584 0.333973
vt 0.101661 0.305757
vt 0.085585 0.309502
vt 0.097519 0.283133
vt 0.082413 0.292197
vt 0.053860 0.383464
vt 0.174251 0.326748
vt 0.206223 0.326744
vt 0.202468 0.342823
vt 0.177997 0.342823
vt 0.196853 0.354932
vt 0.183607 0.354932
vt 0.151627 0.330891
vt 0.160692 0.345996
vt 0.036633 0.425200
vt 0.036633 0.400844
vt 0.069656 0.305735
vt 0.082413 0.309493
vt 0.082413 0.333963
vt 0.148450 0.313635
vt 0.172931 0.309149
vt 0.053223 0.304418
vt 0.035626 0.305734
vt 0.031481 0.283142
vt 0.048738 0.279957
vt 0.070310 0.617092
vt 0.062582 0.570425
vt 0.174247 0.292718
vt 0.206220 0.292714
vt 0.207537 0.309147
vt 0.131549 0.283131
vt 0.135691 0.305755
vt 0.119259 0.304438
vt 0.114775 0.279957
vt 0.135693 0.337728
vt 0.119260 0.339044
vt 0.110584 0.396060
vt 0.107408 0.413316
vt 0.114775 0.363505
vt 0.119649 0.380955
vt 0.148450 0.309499
vt 0.148450 0.333970
vt 0.179031 0.406186
vt 0.166495 0.423889
vt 0.166495 0.399533
vt 0.188349 0.396948
vt 0.183711 0.382468
vt 0.201532 0.397074
vt 0.208067 0.382697
vt 0.181404 0.372019
vt 0.213226 0.372300
vt 0.210858 0.406480
vt 0.225293 0.400077
vt 0.177991 0.279958
vt 0.202461 0.279957
vt 0.225293 0.424433
vt 0.019547 0.309490
vt 0.016376 0.292188
vt 0.086047 0.656305
vt 0.165934 0.758962
vt 0.160202 0.767096
vt 0.171692 0.767078
vt 0.184661 0.766924
vt 0.178892 0.758817
vt 0.173171 0.766959
vt 0.171705 0.775049
vt 0.160215 0.775067
vt 0.165972 0.783183
vt 0.139007 0.783703
vt 0.144670 0.775521
vt 0.133181 0.775636
vt 0.144591 0.767551
vt 0.138765 0.759484
vt 0.133101 0.767666
vt 0.152371 0.783426
vt 0.158042 0.775249
vt 0.146552 0.775353
vt 0.146480 0.767383
vt 0.157969 0.767278
vt 0.152150 0.759206
vt 0.173195 0.774930
vt 0.178964 0.783037
vt 0.184685 0.774895
vt 0.211112 0.992330
vt 0.211112 0.984205
vt 0.136535 0.984205
vt 0.136535 0.992330
vt 0.219236 0.984205
vt 0.219236 0.838881
vt 0.211112 0.838881
vt 0.211112 0.830757
vt 0.136535 0.830757
vt 0.136535 0.838881
vt 0.128411 0.984205
vt 0.128411 0.838881
vt 0.032027 0.984001
vt 0.032027 0.992125
vt 0.093376 0.992125
vt 0.093376 0.984001
vt 0.032027 0.844296
vt 0.023902 0.844296
vt 0.023902 0.984001
vt 0.032027 0.836171
vt 0.093376 0.844296
vt 0.093376 0.836171
vt 0.101501 0.844296
vt 0.101501 0.984001
vt 0.061894 0.772502
vt 0.009160 0.772585
vt 0.009173 0.780556
vt 0.061906 0.780473
vt 0.066316 0.780455
vt 0.119050 0.780372
vt 0.119037 0.772401
vt 0.066304 0.772484
vt 0.008758 0.767247
vt 0.061491 0.767340
vt 0.061506 0.759369
vt 0.008772 0.759276
vt 0.118745 0.767061
vt 0.118735 0.759091
vt 0.066001 0.759161
vt 0.066012 0.767132
vt 0.509459 0.898283
vt 0.437229 0.877272
vt 0.436921 0.911936
vt 0.504795 0.931680
vt 0.351281 0.839674
vt 0.448426 0.843521
vt 0.447443 0.880220
vt 0.356156 0.876605
vt 0.535717 0.868912
vt 0.529469 0.904079
vt 0.663954 0.966325
vt 0.611236 0.964237
vt 0.657878 0.984641
vt 0.697076 0.996043
vt 0.289615 0.923181
vt 0.269470 0.893806
vt 0.561174 0.974171
vt 0.572808 0.991135
vt 0.259031 0.857980
vt 0.356823 0.874086
vt 0.361364 0.908941
vt 0.280470 0.889239
vt 0.711326 0.980104
vt 0.614244 0.982912
vt 0.753197 0.800555
vt 0.724667 0.780545
vt 0.731779 0.816112
vt 0.758589 0.834915
vt 0.819433 0.787799
vt 0.820831 0.822928
vt 0.893171 0.819205
vt 0.612380 0.894442
vt 0.654157 0.892292
vt 0.807001 0.801627
vt 0.894401 0.797129
vt 0.654867 0.879543
vt 0.604393 0.882140
vt 0.897725 0.760344
vt 0.989579 0.766925
vt 0.980715 0.803314
vt 0.972442 0.789285
vt 0.964612 0.824325
vt 0.804715 0.765130
vt 0.896416 0.783836
vt 0.704714 0.883115
vt 0.695414 0.895249
vt 0.576434 0.901365
vt 0.560952 0.890506
s 0
usemtl Materiale.002
f 1/1/1 2/2/1 14/3/1 13/4/1
f 2/2/2 3/5/2 15/6/2 14/3/2
f 3/7/3 4/8/3 16/9/3 15/10/3
f 4/8/4 5/11/4 17/12/4 16/9/4
f 5/11/5 6/13/5 18/14/5 17/12/5
f 6/15/6 7/16/6 19/17/6 18/18/6
f 7/16/7 8/19/7 20/20/7 19/17/7
f 8/19/8 9/21/8 21/22/8 20/20/8
f 9/23/9 10/24/9 22/25/9 21/26/9
f 10/24/10 11/27/10 23/28/10 22/25/10
f 11/27/11 12/29/11 24/30/11 23/28/11
f 12/31/12 1/1/12 13/4/12 24/32/12
f 13/4/13 14/3/13 26/33/13 25/34/13
f 14/3/14 15/6/14 27/35/14 26/33/14
f 15/10/15 16/9/15 28/36/15 27/37/15
f 16/9/16 17/12/16 29/38/16 28/36/16
f 17/12/17 18/14/17 30/39/17 29/38/17
f 18/18/18 19/17/18 31/40/18 30/41/18
f 19/17/19 20/20/19 32/42/19 31/40/19
f 20/20/20 21/22/20 33/43/20 32/42/20
f 21/26/21 22/25/21 34/44/21 33/45/21
f 22/25/22 23/28/22 35/46/22 34/44/22
f 23/28/23 24/30/23 36/47/23 35/46/23
f 24/32/24 13/4/24 25/34/24 36/48/24
f 25/34/25 26/33/25 38/49/25 37/50/25
f 26/51/26 27/52/26 39/53/26 38/54/26
f 27/37/27 28/36/27 40/55/27 39/56/27
f 28/36/28 29/38/28 41/57/28 40/55/28
f 29/38/29 30/39/29 42/58/29 41/57/29
f 30/59/30 31/60/30 43/61/30 42/62/30
f 31/60/31 32/63/31 44/64/31 43/61/31
f 32/63/32 33/65/32 45/66/32 44/64/32
f 33/45/33 34/44/33 46/67/33 45/68/33
f 34/44/34 35/46/34 47/69/34 46/67/34
f 35/46/35 36/47/35 48/70/35 47/69/35
f 36/48/36 25/34/36 37/50/36 48/71/36
f 37/72/37 38/54/37 50/73/37 49/74/37
f 38/54/38 39/53/38 51/75/38 50/73/38
f 40/55/39 41/57/39 53/76/39 52/77/39
f 41/57/40 42/58/40 54/78/40 53/76/40
f 42/62/41 43/61/41 55/79/41 54/80/41
f 43/61/42 44/64/42 56/81/42 55/79/42
f 44/64/43 45/66/43 57/82/43 56/81/43
f 45/68/44 46/67/44 58/83/44 57/84/44
f 46/67/45 47/69/45 59/85/45 58/83/45
f 47/69/46 48/70/46 60/86/46 59/85/46
f 48/87/47 37/72/47 49/74/47 60/88/47
f 49/74/48 50/73/48 62/89/48 61/90/48
f 50/73/49 51/75/49 63/91/49 62/89/49
f 52/77/50 53/76/50 65/92/50 64/93/50
f 53/76/51 54/78/51 66/94/51 65/92/51
f 54/80/52 55/79/52 67/95/52 66/96/52
f 55/79/53 56/81/53 68/97/53 67/95/53
f 56/81/54 57/82/54 69/98/54 68/97/54
f 57/84/55 58/83/55 70/99/55 69/100/55
f 58/83/56 59/85/56 71/101/56 70/99/56
f 59/85/57 60/86/57 72/102/57 71/101/57
f 60/88/58 49/74/58 61/90/58 72/103/58
f 61/90/59 62/89/59 74/104/59 73/105/59
f 62/89/60 63/91/60 75/106/60 74/104/60
f 64/93/61 65/92/61 77/107/61 76/108/61
f 65/92/62 66/94/62 78/109/62 77/107/62
f 66/96/63 67/95/63 79/110/63 78/111/63
f 67/95/64 68/97/64 80/112/64 79/110/64
f 68/97/65 69/98/65 81/113/65 80/112/65
f 69/100/66 70/99/66 82/114/66 81/115/66
f 70/99/67 71/101/67 83/116/67 82/114/67
f 71/101/68 72/102/68 84/117/68 83/116/68
f 72/103/69 61/90/69 73/105/69 84/118/69
f 73/105/70 74/104/70 86/119/70 85/120/70
f 74/121/71 75/122/71 87/123/71 86/124/71
f 75/122/72 76/108/72 88/125/72 87/123/72
f 76/108/73 77/107/73 89/126/73 88/125/73
f 77/127/74 78/128/74 90/129/74 89/130/74
f 78/128/75 79/131/75 91/132/75 90/129/75
f 79/110/76 80/112/76 92/133/76 91/134/76
f 80/135/77 81/115/77 93/136/77 92/137/77
f 81/115/78 82/114/78 94/138/78 93/136/78
f 82/114/79 83/116/79 95/139/79 94/138/79
f 83/140/80 84/141/80 96/142/80 95/143/80
f 84/141/81 73/144/81 85/145/81 96/142/81
f 85/145/82 86/146/82 98/147/82 97/148/82
f 86/124/83 87/123/83 99/149/83 98/150/83
f 87/123/84 88/125/84 100/151/84 99/149/84
f 88/125/85 89/126/85 101/152/85 100/151/85
f 89/130/86 90/129/86 102/153/86 101/154/86
f 90/129/87 91/132/87 103/155/87 102/153/87
f 91/132/88 92/156/88 104/157/88 103/155/88
f 92/137/89 93/136/89 105/158/89 104/159/89
f 93/136/90 94/138/90 106/160/90 105/158/90
f 94/138/91 95/139/91 107/161/91 106/160/91
f 95/143/92 96/142/92 108/162/92 107/163/92
f 96/142/93 85/145/93 97/148/93 108/162/93
f 97/148/94 98/147/94 110/164/94 109/165/94
f 98/150/95 99/149/95 111/166/95 110/167/95
f 99/149/96 100/151/96 112/168/96 111/166/96
f 100/151/97 101/152/97 113/169/97 112/168/97
f 101/154/98 102/153/98 114/170/98 113/171/98
f 102/153/99 103/155/99 115/172/99 114/170/99
f 103/155/100 104/157/100 116/173/100 115/172/100
f 104/159/101 105/158/101 117/174/101 116/175/101
f 105/158/102 106/160/102 118/176/102 117/174/102
f 106/160/103 107/161/103 119/177/103 118/176/103
f 107/163/104 108/162/104 120/178/104 119/179/104
f 108/162/105 97/148/105 109/165/105 120/178/105
f 109/165/106 110/164/106 122/180/106 121/181/106
f 110/167/107 111/166/107 123/182/107 122/183/107
f 111/166/16 112/168/16 124/184/16 123/182/16
f 112/168/15 113/169/15 125/185/15 124/184/15
f 113/171/108 114/170/108 126/186/108 125/187/108
f 114/170/109 115/172/109 127/188/109 126/186/109
f 115/172/110 116/173/110 128/189/110 127/188/110
f 116/175/111 117/174/111 129/190/111 128/191/111
f 117/174/22 118/176/22 130/192/22 129/190/22
f 118/176/21 119/177/21 131/193/21 130/192/21
f 119/179/112 120/178/112 132/194/112 131/195/112
f 120/178/113 109/165/113 121/181/113 132/194/113
f 121/181/114 122/180/114 134/196/114 133/197/114
f 122/183/115 123/182/115 135/198/115 134/199/115
f 124/184/27 125/185/27 137/200/27 136/201/27
f 125/202/116 126/203/116 138/204/116 137/205/116
f 126/203/117 127/206/117 139/207/117 138/204/117
f 127/206/118 128/208/118 140/209/118 139/207/118
f 128/191/119 129/190/119 141/210/119 140/211/119
f 129/190/34 130/192/34 142/212/34 141/210/34
f 130/192/33 131/193/33 143/213/33 142/212/33
f 131/214/120 132/215/120 144/216/120 143/217/120
f 132/194/121 121/181/121 133/197/121 144/218/121
f 133/219/122 134/220/122 146/221/122 145/222/122
f 134/199/123 135/198/123 147/223/123 146/224/123
f 136/201/124 137/200/124 149/225/124 148/226/124
f 137/205/125 138/204/125 150/227/125 149/228/125
f 138/204/126 139/207/126 151/229/126 150/227/126
f 139/207/127 140/209/127 152/230/127 151/229/127
f 140/211/128 141/210/128 153/231/128 152/232/128
f 141/210/129 142/212/129 154/233/129 153/231/129
f 142/212/130 143/213/130 155/234/130 154/233/130
f 143/217/131 144/216/131 156/235/131 155/236/131
f 144/216/132 133/219/132 145/222/132 156/235/132
f 145/222/133 146/221/133 158/237/133 157/238/133
f 146/224/134 147/223/134 159/239/134 158/240/134
f 148/226/135 149/225/135 161/241/135 160/242/135
f 149/228/136 150/227/136 162/243/136 161/244/136
f 150/227/137 151/229/137 163/245/137 162/243/137
f 151/229/138 152/230/138 164/246/138 163/245/138
f 152/232/139 153/231/139 165/247/139 164/248/139
f 153/231/140 154/233/140 166/249/140 165/247/140
f 154/233/141 155/234/141 167/250/141 166/249/141
f 155/236/142 156/235/142 168/251/142 167/252/142
f 156/235/143 145/222/143 157/238/143 168/251/143
f 157/238/144 158/237/144 170/253/144 169/254/144
f 158/240/145 159/239/145 171/255/145 170/256/145
f 159/239/61 160/242/61 172/257/61 171/255/61
f 160/242/146 161/241/146 173/258/146 172/257/146
f 161/244/147 162/243/147 174/259/147 173/260/147
f 162/243/148 163/245/148 175/261/148 174/259/148
f 163/245/149 164/246/149 176/262/149 175/261/149
f 164/248/150 165/247/150 177/263/150 176/264/150
f 165/247/67 166/249/67 178/265/67 177/263/67
f 166/249/66 167/250/66 179/266/66 178/265/66
f 167/252/151 168/251/151 180/267/151 179/268/151
f 168/251/152 157/238/152 169/254/152 180/267/152
f 169/269/153 170/270/153 182/271/153 181/272/153
f 170/270/154 171/273/154 183/274/154 182/271/154
f 171/255/73 172/257/73 184/275/73 183/276/73
f 172/257/72 173/258/72 185/277/72 184/275/72
f 173/258/155 174/278/155 186/279/155 185/277/155
f 174/259/156 175/261/156 187/280/156 186/281/156
f 175/282/157 176/283/157 188/284/157 187/285/157
f 176/283/158 177/286/158 189/287/158 188/284/158
f 177/263/79 178/265/79 190/288/79 189/289/79
f 178/265/78 179/266/78 191/290/78 190/288/78
f 179/266/159 180/291/159 192/292/159 191/290/159
f 180/267/160 169/254/160 181/293/160 192/294/160
f 181/272/161 182/271/161 2/2/161 1/1/161
f 182/271/162 183/274/162 3/5/162 2/2/162
f 183/276/163 184/275/163 4/8/163 3/7/163
f 184/275/164 185/277/164 5/11/164 4/8/164
f 185/277/165 186/279/165 6/13/165 5/11/165
f 186/295/166 187/285/166 7/16/166 6/15/166
f 187/285/167 188/284/167 8/19/167 7/16/167
f 188/284/168 189/287/168 9/21/168 8/19/168
f 189/289/169 190/288/169 10/24/169 9/23/169
f 190/288/170 191/290/170 11/27/170 10/24/170
f 191/290/171 192/292/171 12/29/171 11/27/171
f 192/296/172 181/272/172 1/1/172 12/31/172
f 198/198/173 197/182/173 203/182/173 204/198/173
f 196/108/174 195/122/174 201/122/174 202/108/174
f 193/55/175 194/77/175 200/77/175 199/55/175
f 302/468/266 304/469/266 312/470/266 310/471/266
f 305/472/267 303/473/267 311/474/267 313/475/267
f 301/476/268 302/468/268 310/471/268 309/477/268
f 303/473/269 301/476/269 309/477/269 311/474/269
f 313/475/270 311/474/270 319/478/270 321/479/270
f 310/471/271 312/470/271 320/480/271 318/481/271
f 316/482/272 315/483/272 323/484/272 324/485/272
f 307/486/273 305/472/273 313/475/273 315/483/273
f 304/469/274 306/487/274 314/488/274 312/470/274
f 306/487/275 308/489/275 316/482/275 314/488/275
f 308/489/276 307/486/276 315/483/276 316/482/276
f 317/490/28 318/481/28 320/480/28 319/478/28
f 319/478/277 320/480/277 322/491/277 321/479/277
f 321/479/278 322/491/278 324/485/278 323/484/278
f 312/470/279 314/488/279 322/491/279 320/480/279
f 315/483/280 313/475/280 321/479/280 323/484/280
f 309/477/281 310/471/281 318/481/281 317/490/281
f 314/488/282 316/482/282 324/485/282 322/491/282
f 332/492/283 331/493/283 339/494/283 340/495/283
f 330/496/284 332/492/284 340/495/284 338/497/284
f 336/498/285 338/497/285 346/499/285 344/500/285
f 337/501/286 335/502/286 343/503/286 345/504/286
f 327/505/287 325/506/287 333/507/287 335/502/287
f 325/506/288 326/508/288 334/509/288 333/507/288
f 329/510/289 327/505/289 335/502/289 337/501/289
f 326/508/290 328/511/290 336/498/290 334/509/290
f 331/493/291 329/510/291 337/501/291 339/494/291
f 328/511/292 330/496/292 338/497/292 336/498/292
f 341/512/293 342/513/293 344/500/293 343/503/293
f 343/503/294 344/500/294 346/499/294 345/504/294
f 345/504/146 346/499/146 348/514/146 347/515/146
f 339/494/295 337/501/295 345/504/295 347/515/295
f 333/507/296 334/509/296 342/513/296 341/512/296
f 338/497/297 340/495/297 348/514/297 346/499/297
f 335/502/298 333/507/298 341/512/298 343/503/298
usemtl Materiale
f 208/297/176 205/297/176 206/298/176 210/299/176
f 205/297/177 207/297/177 272/300/177 206/298/177
f 209/297/178 208/297/178 210/299/178 211/301/178
f 211/302/179 210/303/179 212/304/179 213/305/179
f 210/299/180 206/298/180 214/306/180 212/307/180
f 213/305/181 212/304/181 215/308/181 216/309/181
f 212/310/182 214/311/182 217/312/182 215/313/182
f 216/309/183 215/308/183 218/314/183 219/315/183
f 215/313/184 217/312/184 220/316/184 218/317/184
f 219/315/185 218/314/185 221/318/185 222/319/185
f 218/320/186 220/321/186 223/322/186 221/323/186
f 222/319/187 221/318/187 224/324/187 225/325/187
f 221/326/188 223/327/188 226/328/188 224/329/188
f 225/330/189 224/329/189 227/331/189 228/332/189
f 224/329/190 226/328/190 229/333/190 227/331/190
f 228/332/191 227/331/191 230/334/191 231/334/191
f 227/331/192 229/333/192 232/334/192 230/334/192
f 229/333/193 234/335/193 233/334/193 232/334/193
f 234/335/194 236/336/194 235/334/194 233/334/194
f 236/336/195 238/337/195 237/334/195 235/334/195
f 238/337/196 240/338/196 239/334/196 237/334/196
f 240/338/197 242/339/197 241/334/197 239/334/197
f 242/339/198 228/332/198 231/334/198 241/334/198
f 243/340/199 225/330/199 228/332/199 242/339/199
f 245/341/200 243/340/200 242/339/200 240/338/200
f 244/342/201 222/343/201 225/344/201 243/345/201
f 246/346/202 244/342/202 243/345/202 245/347/202
f 248/348/203 246/346/203 245/347/203 247/349/203
f 247/350/204 245/341/204 240/338/204 238/337/204
f 250/351/205 248/352/205 247/353/205 249/354/205
f 249/354/206 247/353/206 238/355/206 236/356/206
f 252/357/207 250/351/207 249/354/207 251/358/207
f 251/359/208 249/360/208 236/336/208 234/335/208
f 223/322/209 252/361/209 251/362/209 226/363/209
f 226/328/210 251/359/210 234/335/210 229/333/210
f 253/364/211 255/365/211 250/351/211 252/357/211
f 220/321/212 253/366/212 252/361/212 223/322/212
f 254/367/213 256/368/213 255/369/213 253/366/213
f 217/312/214 254/370/214 253/371/214 220/316/214
f 256/372/215 258/373/215 257/374/215 255/365/215
f 255/365/216 257/374/216 248/352/216 250/351/216
f 258/375/217 260/376/217 259/377/217 257/378/217
f 257/378/218 259/377/218 246/346/218 248/348/218
f 260/376/219 262/379/219 261/380/219 259/377/219
f 259/377/220 261/380/220 244/342/220 246/346/220
f 262/381/221 216/309/221 219/315/221 261/382/221
f 261/380/222 219/383/222 222/343/222 244/342/222
f 263/384/223 213/305/223 216/309/223 262/381/223
f 265/385/224 263/386/224 262/379/224 260/376/224
f 264/387/225 211/301/225 213/388/225 263/389/225
f 266/390/226 264/387/226 263/389/226 265/391/226
f 268/392/227 266/390/227 265/391/227 267/393/227
f 267/393/228 265/391/228 260/394/228 258/395/228
f 270/396/229 268/392/229 267/393/229 269/397/229
f 269/398/230 267/399/230 258/373/230 256/372/230
f 272/300/231 270/396/231 269/397/231 271/400/231
f 271/401/232 269/402/232 256/368/232 254/367/232
f 206/298/233 272/300/233 271/400/233 214/306/233
f 214/311/234 271/403/234 254/370/234 217/312/234
f 207/297/235 273/297/235 270/396/235 272/300/235
f 273/297/236 274/297/236 268/392/236 270/396/236
f 274/297/237 275/297/237 266/390/237 268/392/237
f 275/297/238 276/297/238 264/387/238 266/390/238
f 276/297/239 209/297/239 211/301/239 264/387/239
usemtl Materiale.001
f 277/404/240 279/405/240 278/406/240
f 280/407/241 282/408/241 281/409/241
f 283/410/242 285/411/242 284/412/242
f 286/413/243 288/414/243 287/415/243
f 289/416/244 291/417/244 290/418/244
f 292/419/245 294/420/245 293/421/245
f 295/422/246 297/423/246 296/424/246
f 298/425/247 300/426/247 299/427/247
f 279/428/248 277/429/248 282/430/248 280/431/248
f 278/406/249 279/405/249 285/411/249 283/410/249
f 277/429/250 278/432/250 288/433/250 286/434/250
f 287/415/251 288/414/251 289/416/251 290/418/251
f 286/434/252 287/435/252 294/436/252 292/437/252
f 293/421/253 294/420/253 297/423/253 295/422/253
f 281/438/254 282/430/254 292/437/254 293/439/254
f 296/440/255 297/441/255 290/442/255 291/443/255
f 300/444/256 298/445/256 295/446/256 296/440/256
f 299/447/257 300/444/257 284/448/257 285/449/257
f 280/407/258 281/409/258 298/425/258 299/427/258
f 283/450/259 284/448/259 291/443/259 289/451/259
f 279/452/260 280/453/260 299/454/260 285/455/260
f 283/456/261 289/457/261 288/458/261 278/459/261
f 277/429/262 286/434/262 292/437/262 282/430/262
f 281/460/263 293/461/263 295/462/263 298/463/263
f 300/444/264 296/440/264 291/443/264 284/448/264
f 287/464/265 290/465/265 297/466/265 294/467/265
