# Blender 4.5.4 LTS
# www.blender.org
mtllib portach_sx.mtl
o Cylinder_Cylinder_door
v -0.485437 1.374531 0.380778
v -0.360499 1.374531 0.380664
v -0.361186 1.374531 -0.369086
v -0.486124 1.374531 -0.368971
v -0.485322 -0.374531 0.505654
v -0.485322 -0.499500 0.505653
v -0.486239 -0.499500 -0.493846
v -0.486239 -0.374531 -0.493846
v -0.486124 -0.374531 -0.368971
v -0.486238 1.374531 -0.493846
v -0.485437 0.374969 0.380778
v -0.485437 -0.374531 0.380778
v -0.486124 0.374969 -0.368971
v -0.485322 1.374531 0.505653
v -0.486238 1.499500 -0.493846
v -0.485322 1.499500 0.505653
v -0.361301 -0.374531 -0.493961
v -0.361301 -0.499500 -0.493961
v -0.360384 -0.499500 0.505539
v -0.360384 -0.374531 0.505539
v -0.361186 -0.374531 -0.369086
v -0.361300 1.374531 -0.493961
v -0.360384 1.374531 0.505539
v -0.360384 1.499500 0.505539
v -0.361300 1.499500 -0.493961
v -0.360499 -0.374531 0.380664
v -0.361186 0.374969 -0.369086
v -0.360499 0.374969 0.380664
v -0.360499 0.374969 -0.371380
v -0.485437 0.374969 -0.371265
v -0.360691 1.364783 0.379520
v -0.361376 1.364783 -0.367941
v -0.485247 1.364783 0.379634
v -0.485932 1.364783 -0.367827
v -0.360499 0.828022 0.380664
v -0.485437 0.828022 0.380778
v -0.422968 1.374531 0.380721
v -0.423655 1.374531 -0.369029
v -0.422968 0.374969 0.380721
v -0.423655 0.374969 -0.369029
v -0.422968 0.374969 -0.371323
v -0.422968 0.828022 0.380721
v -0.360499 0.601496 0.380664
v -0.485437 0.601496 0.380778
v -0.422968 0.601496 0.380721
v -0.360499 0.488232 0.380664
v -0.485437 0.488232 0.380778
v -0.422968 0.488232 0.380721
v -0.360499 0.431601 0.380664
v -0.485437 0.431601 0.380778
v -0.422968 0.431601 0.380721
v -0.454889 1.374531 -0.369000
v -0.454202 1.374531 0.380750
v -0.454202 0.374969 0.380750
v -0.454890 0.374969 -0.369000
v -0.454202 0.374969 -0.371294
v -0.454202 0.828022 0.380750
v -0.454202 0.601496 0.380750
v -0.454202 0.488232 0.380750
v -0.454202 0.431601 0.380750
v -0.391733 1.374531 0.380693
v -0.391733 0.374969 0.380693
v -0.392421 0.374969 -0.369057
v -0.391733 0.374969 -0.371351
v -0.391733 0.828022 0.380693
v -0.392420 1.374531 -0.369057
v -0.391733 0.601496 0.380693
v -0.391733 0.488232 0.380693
v -0.391733 0.431601 0.380693
v -0.376116 1.374531 0.380678
v -0.376116 0.374969 0.380678
v -0.376803 0.374969 -0.369071
v -0.376116 0.374969 -0.371366
v -0.376116 0.828022 0.380678
v -0.376116 0.601496 0.380678
v -0.376116 0.488232 0.380678
v -0.376116 0.431601 0.380678
v -0.376803 1.374531 -0.369071
v -0.470507 1.374531 -0.368986
v -0.469819 1.374531 0.380764
v -0.469819 0.374969 0.380764
v -0.470507 0.374969 -0.368986
v -0.469819 0.374969 -0.371280
v -0.469819 0.828022 0.380764
v -0.469819 0.601496 0.380764
v -0.469819 0.488232 0.380764
v -0.469819 0.431601 0.380764
v -0.360499 0.403285 0.380664
v -0.485437 0.403285 0.380778
v -0.376812 0.403285 -0.377961
v -0.454202 0.403285 0.380750
v -0.470515 0.431601 -0.377875
v -0.376116 0.403285 0.380678
v -0.469819 0.403285 0.380764
v -0.360499 0.389127 0.380664
v -0.485437 0.389127 0.380778
v -0.422968 0.389127 0.380721
v -0.454202 0.389127 0.380750
v -0.391733 0.389127 0.380693
v -0.376116 0.389127 0.380678
v -0.469819 0.389127 0.380764
v -0.360499 0.417443 0.380664
v -0.485437 0.417443 0.380778
v -0.454898 0.431601 -0.377889
v -0.376812 0.389127 -0.377961
v -0.391733 0.417443 0.380693
v -0.376116 0.417443 0.380678
v -0.469819 0.417443 0.380764
v -0.430776 0.403285 0.380728
v -0.391733 0.408948 0.380693
v -0.415159 0.417443 0.380714
v -0.422968 0.400453 0.380721
v -0.422968 0.420274 0.380721
v -0.454202 0.411780 0.380750
v -0.392429 0.389127 -0.377946
v -0.470515 0.417443 -0.377875
v -0.423664 0.420274 -0.377918
v -0.415855 0.417443 -0.377925
v -0.392429 0.408948 -0.377946
v -0.423664 0.400453 -0.377918
v -0.431472 0.403285 -0.377910
v -0.454898 0.411780 -0.377889
v -0.358678 0.638745 0.381998
v -0.358678 0.525481 0.381998
v -0.374296 0.638745 0.382012
v -0.374296 0.525481 0.382012
v -0.374991 0.440534 -0.376627
v -0.468695 0.468850 -0.376541
v -0.453078 0.468850 -0.376555
v -0.374991 0.426376 -0.376627
v -0.390609 0.426376 -0.376612
v -0.468695 0.454692 -0.376541
v -0.421843 0.457523 -0.376584
v -0.414034 0.454692 -0.376591
v -0.390609 0.446197 -0.376612
v -0.421843 0.437702 -0.376584
v -0.429652 0.440534 -0.376577
v -0.453078 0.449029 -0.376555
v -0.360499 0.601496 0.380664
v -0.360499 0.488232 0.380664
v -0.390774 0.432579 -0.376656
v -0.376116 0.601496 0.380678
v -0.376116 0.488232 0.380678
v -0.375157 0.432573 -0.376620
v -0.470645 0.402309 0.381721
v -0.376930 0.430584 0.382015
v -0.468872 0.404297 -0.376913
v -0.453261 0.390132 -0.376914
v -0.468878 0.390139 -0.376950
v -0.392547 0.430591 0.381978
v -0.470651 0.388151 0.381684
v -0.375162 0.418415 -0.376657
v -0.414212 0.404274 -0.376785
v -0.453252 0.409954 -0.376862
v -0.429823 0.418438 -0.376785
v -0.422021 0.401445 -0.376811
v -0.422013 0.421266 -0.376759
v -0.390782 0.412758 -0.376708
v -0.455034 0.388144 0.381721
v -0.376936 0.416426 0.381978
v -0.423787 0.419278 0.381876
v -0.431596 0.416450 0.381850
v -0.455026 0.407965 0.381773
v -0.423795 0.399457 0.381824
v -0.415985 0.402285 0.381849
v -0.392556 0.410770 0.381926
v -0.358678 0.638745 0.381998
v -0.358678 0.525481 0.381998
v -0.392574 0.469832 -0.377898
v -0.374296 0.638745 0.382012
v -0.374296 0.525481 0.382012
v -0.376957 0.469826 -0.377862
v -0.472446 0.439562 0.380479
v -0.378731 0.467837 0.380773
v -0.470672 0.441550 -0.378155
v -0.455061 0.427386 -0.378156
v -0.470678 0.427392 -0.378192
v -0.394348 0.467844 0.380736
v -0.472452 0.425404 0.380442
v -0.376963 0.455668 -0.377899
v -0.416012 0.441527 -0.378027
v -0.455053 0.447207 -0.378104
v -0.431623 0.455691 -0.378027
v -0.423822 0.438699 -0.378053
v -0.423813 0.458520 -0.378001
v -0.392582 0.450011 -0.377950
v -0.456835 0.425397 0.380479
v -0.378737 0.453679 0.380736
v -0.425587 0.456531 0.380634
v -0.433397 0.453703 0.380608
v -0.456826 0.445218 0.380531
v -0.425595 0.436710 0.380582
v -0.417786 0.439538 0.380607
v -0.394356 0.448023 0.380684
v -0.361327 0.675244 0.380886
v -0.361327 0.561980 0.380886
v -0.389913 0.506327 -0.376682
v -0.376944 0.675244 0.380900
v -0.376944 0.561980 0.380900
v -0.374296 0.506321 -0.376646
v -0.469785 0.476057 0.381696
v -0.376070 0.504332 0.381989
v -0.468012 0.478045 -0.376939
v -0.452400 0.463881 -0.376940
v -0.468018 0.463887 -0.376976
v -0.391687 0.504339 0.381952
v -0.469791 0.461899 0.381658
v -0.374302 0.492163 -0.376683
v -0.413351 0.478022 -0.376811
v -0.452392 0.483702 -0.376888
v -0.428963 0.492186 -0.376811
v -0.421161 0.475193 -0.376837
v -0.421153 0.495014 -0.376785
v -0.389922 0.486506 -0.376734
v -0.454174 0.461892 0.381695
v -0.376076 0.490174 0.381952
v -0.422926 0.493026 0.381850
v -0.430736 0.490198 0.381824
v -0.454166 0.481713 0.381747
v -0.422935 0.473205 0.381798
v -0.415125 0.476033 0.381823
v -0.391696 0.484518 0.381900
v -0.359507 0.712493 0.382220
v -0.359507 0.599229 0.382220
v -0.391714 0.543580 -0.377924
v -0.375124 0.712493 0.382234
v -0.375124 0.599229 0.382234
v -0.376097 0.543574 -0.377888
v -0.471586 0.513310 0.380454
v -0.377870 0.541585 0.380747
v -0.469812 0.515298 -0.378181
v -0.454201 0.501134 -0.378182
v -0.469818 0.501140 -0.378218
v -0.393488 0.541592 0.380710
v -0.471592 0.499152 0.380416
v -0.376103 0.529416 -0.377925
v -0.415152 0.515275 -0.378053
v -0.454192 0.520955 -0.378130
v -0.430763 0.529439 -0.378052
v -0.422961 0.512447 -0.378079
v -0.422953 0.532268 -0.378027
v -0.391722 0.523759 -0.377976
v -0.455974 0.499145 0.380453
v -0.377876 0.527427 0.380710
v -0.424727 0.530279 0.380608
v -0.432537 0.527451 0.380582
v -0.455966 0.518966 0.380505
v -0.424735 0.510458 0.380556
v -0.416925 0.513286 0.380581
v -0.393496 0.521771 0.380658
v -0.360499 0.747277 0.380664
v -0.360499 0.634013 0.380664
v -0.376116 0.747277 0.380678
v -0.376116 0.634013 0.380678
v -0.454221 0.411618 0.380683
v -0.430795 0.403124 0.380662
v -0.422986 0.400292 0.380655
v -0.391752 0.408787 0.380626
v -0.415178 0.417282 0.380648
v -0.422986 0.420113 0.380655
v -0.469838 0.417282 0.380698
v -0.391752 0.388966 0.380626
v -0.376135 0.388966 0.380612
v -0.454221 0.431439 0.380683
v -0.469838 0.431439 0.380698
v -0.376135 0.403124 0.380612
v -0.358678 0.784526 0.381998
v -0.358678 0.671263 0.381998
v -0.374296 0.784526 0.382012
v -0.374296 0.671263 0.382012
v -0.360499 0.747277 0.380664
v -0.360499 0.634013 0.380664
v -0.390712 0.578360 -0.376274
v -0.376116 0.747277 0.380678
v -0.376116 0.634013 0.380678
v -0.375095 0.578353 -0.376238
v -0.470584 0.548089 0.382104
v -0.376869 0.576365 0.382397
v -0.468810 0.550078 -0.376531
v -0.453199 0.535913 -0.376531
v -0.468816 0.535920 -0.376568
v -0.392486 0.576371 0.382361
v -0.470590 0.533931 0.382067
v -0.375101 0.564195 -0.376275
v -0.414150 0.550054 -0.376403
v -0.453191 0.555734 -0.376479
v -0.429761 0.564219 -0.376402
v -0.421960 0.547226 -0.376429
v -0.421951 0.567047 -0.376377
v -0.390720 0.558539 -0.376326
v -0.454973 0.533925 0.382103
v -0.376875 0.562207 0.382360
v -0.423725 0.565059 0.382258
v -0.431535 0.562230 0.382232
v -0.454964 0.553746 0.382155
v -0.423733 0.545237 0.382206
v -0.415924 0.548066 0.382232
v -0.392494 0.556550 0.382309
v -0.358678 0.784526 0.381998
v -0.358678 0.671263 0.381998
v -0.392512 0.615613 -0.377516
v -0.374296 0.784526 0.382012
v -0.374296 0.671263 0.382012
v -0.376895 0.615606 -0.377480
v -0.472384 0.585342 0.380862
v -0.378669 0.613618 0.381155
v -0.470610 0.587331 -0.377773
v -0.454999 0.573166 -0.377773
v -0.470616 0.573173 -0.377810
v -0.394286 0.613625 0.381118
v -0.472390 0.571184 0.380825
v -0.376901 0.601448 -0.377517
v -0.415950 0.587307 -0.377645
v -0.454991 0.592987 -0.377721
v -0.431562 0.601472 -0.377644
v -0.423760 0.584479 -0.377671
v -0.423752 0.604300 -0.377619
v -0.392521 0.595792 -0.377568
v -0.456773 0.571178 0.380861
v -0.378675 0.599460 0.381118
v -0.425525 0.602312 0.381016
v -0.433335 0.599483 0.380990
v -0.456765 0.590999 0.380913
v -0.425534 0.582491 0.380964
v -0.417724 0.585319 0.380989
v -0.394294 0.593804 0.381067
v -0.361327 0.821025 0.380886
v -0.361327 0.707762 0.380886
v -0.389852 0.652108 -0.376300
v -0.376944 0.821025 0.380900
v -0.376944 0.707762 0.380900
v -0.374235 0.652101 -0.376263
v -0.469724 0.621837 0.382078
v -0.376008 0.650113 0.382371
v -0.467950 0.623826 -0.376557
v -0.452339 0.609661 -0.376557
v -0.467956 0.609668 -0.376594
v -0.391626 0.650120 0.382335
v -0.469730 0.607679 0.382041
v -0.374241 0.637943 -0.376300
v -0.413290 0.623802 -0.376429
v -0.452330 0.629482 -0.376505
v -0.428901 0.637967 -0.376428
v -0.421099 0.620974 -0.376454
v -0.421091 0.640795 -0.376403
v -0.389860 0.632287 -0.376352
v -0.454112 0.607673 0.382077
v -0.376014 0.635955 0.382334
v -0.422865 0.638807 0.382232
v -0.430675 0.635978 0.382206
v -0.454104 0.627494 0.382129
v -0.422873 0.618986 0.382180
v -0.415063 0.621814 0.382206
v -0.391634 0.630299 0.382283
v -0.359507 0.858274 0.382220
v -0.359507 0.745011 0.382220
v -0.391652 0.689361 -0.377542
v -0.375124 0.858274 0.382234
v -0.375124 0.745011 0.382234
v -0.376035 0.689354 -0.377505
v -0.471524 0.659090 0.380836
v -0.377809 0.687366 0.381129
v -0.469750 0.661079 -0.377799
v -0.454139 0.646914 -0.377799
v -0.469756 0.646921 -0.377836
v -0.393426 0.687373 0.381093
v -0.471530 0.644933 0.380799
v -0.376041 0.675197 -0.377542
v -0.415090 0.661055 -0.377671
v -0.454131 0.666735 -0.377747
v -0.430701 0.675220 -0.377670
v -0.422900 0.658227 -0.377697
v -0.422891 0.678048 -0.377645
v -0.391661 0.669540 -0.377594
v -0.455913 0.644926 0.380835
v -0.377815 0.673208 0.381092
v -0.424665 0.676060 0.380990
v -0.432475 0.673232 0.380964
v -0.455904 0.664747 0.380887
v -0.424673 0.656239 0.380938
v -0.416864 0.659067 0.380964
v -0.393434 0.667552 0.381041
v -0.358773 0.897465 0.380202
v -0.358773 0.784201 0.380202
v -0.374390 0.897465 0.380216
v -0.374390 0.784201 0.380216
v -0.375086 0.699254 -0.378423
v -0.468790 0.727570 -0.378337
v -0.453172 0.727570 -0.378351
v -0.375086 0.685096 -0.378423
v -0.390703 0.685096 -0.378409
v -0.468790 0.713412 -0.378337
v -0.421938 0.716244 -0.378380
v -0.414129 0.713412 -0.378387
v -0.390703 0.704917 -0.378409
v -0.421938 0.696422 -0.378380
v -0.429746 0.699254 -0.378373
v -0.453172 0.707749 -0.378351
v -0.356953 0.934714 0.381535
v -0.356953 0.821450 0.381535
v -0.372570 0.934714 0.381550
v -0.372570 0.821450 0.381550
v -0.373266 0.736503 -0.377089
v -0.466969 0.764819 -0.377003
v -0.451352 0.764819 -0.377018
v -0.373266 0.722345 -0.377089
v -0.388883 0.722345 -0.377075
v -0.466969 0.750661 -0.377003
v -0.420117 0.753493 -0.377046
v -0.412309 0.750661 -0.377053
v -0.388883 0.742166 -0.377075
v -0.420117 0.733671 -0.377046
v -0.427926 0.736503 -0.377039
v -0.451352 0.744998 -0.377018
v -0.358773 0.897465 0.380202
v -0.358773 0.784201 0.380202
v -0.392376 0.728547 -0.375423
v -0.374390 0.897465 0.380216
v -0.374390 0.784201 0.380216
v -0.376759 0.728540 -0.375387
v -0.472247 0.698276 0.382954
v -0.378532 0.726552 0.383248
v -0.470474 0.700265 -0.375680
v -0.454863 0.686100 -0.375681
v -0.470480 0.686107 -0.375717
v -0.394149 0.726558 0.383211
v -0.472253 0.684118 0.382917
v -0.376765 0.714382 -0.375424
v -0.415814 0.700241 -0.375552
v -0.454854 0.705921 -0.375629
v -0.431425 0.714406 -0.375552
v -0.423623 0.697413 -0.375578
v -0.423615 0.717234 -0.375526
v -0.392384 0.708726 -0.375475
v -0.456636 0.684111 0.382954
v -0.378538 0.712394 0.383210
v -0.425389 0.715245 0.383108
v -0.433199 0.712417 0.383083
v -0.456628 0.703932 0.383006
v -0.425397 0.695424 0.383056
v -0.417587 0.698253 0.383082
v -0.394158 0.706737 0.383159
v -0.356953 0.934714 0.381535
v -0.356953 0.821450 0.381535
v -0.394176 0.765800 -0.376665
v -0.372570 0.934714 0.381550
v -0.372570 0.821450 0.381550
v -0.378559 0.765793 -0.376629
v -0.474048 0.735529 0.381712
v -0.380333 0.763805 0.382006
v -0.472274 0.737518 -0.376922
v -0.456663 0.723353 -0.376923
v -0.472280 0.723360 -0.376959
v -0.395950 0.763811 0.381969
v -0.474054 0.721371 0.381675
v -0.378565 0.751635 -0.376666
v -0.417614 0.737494 -0.376794
v -0.456655 0.743174 -0.376871
v -0.433225 0.751659 -0.376794
v -0.425424 0.734666 -0.376820
v -0.425415 0.754487 -0.376768
v -0.394184 0.745979 -0.376717
v -0.458437 0.721365 0.381712
v -0.380339 0.749647 0.381968
v -0.427189 0.752499 0.381866
v -0.434999 0.749670 0.381841
v -0.458428 0.741186 0.381764
v -0.427197 0.732678 0.381814
v -0.419388 0.735506 0.381840
v -0.395958 0.743990 0.381917
v -0.359601 0.971213 0.380424
v -0.359601 0.857949 0.380424
v -0.391516 0.802295 -0.375449
v -0.375219 0.971213 0.380438
v -0.375219 0.857949 0.380438
v -0.375898 0.802288 -0.375413
v -0.471387 0.772024 0.382928
v -0.377672 0.800300 0.383222
v -0.469614 0.774013 -0.375706
v -0.454002 0.759848 -0.375707
v -0.469620 0.759855 -0.375743
v -0.393289 0.800306 0.383185
v -0.471393 0.757866 0.382891
v -0.375904 0.788130 -0.375450
v -0.414953 0.773989 -0.375578
v -0.453994 0.779669 -0.375655
v -0.430565 0.788154 -0.375578
v -0.422763 0.771161 -0.375604
v -0.422755 0.790982 -0.375552
v -0.391524 0.782474 -0.375501
v -0.455776 0.757860 0.382928
v -0.377678 0.786142 0.383185
v -0.424528 0.788994 0.383083
v -0.432338 0.786165 0.383057
v -0.455768 0.777681 0.382980
v -0.424537 0.769172 0.383031
v -0.416727 0.772001 0.383056
v -0.393298 0.780485 0.383133
v -0.357781 1.008462 0.381757
v -0.357781 0.895198 0.381757
v -0.393316 0.839548 -0.376691
v -0.373398 1.008462 0.381772
v -0.373398 0.895198 0.381772
v -0.377699 0.839541 -0.376655
v -0.473188 0.809277 0.381686
v -0.379472 0.837553 0.381980
v -0.471414 0.811266 -0.376948
v -0.455803 0.797101 -0.376949
v -0.471420 0.797108 -0.376985
v -0.395090 0.837560 0.381943
v -0.473194 0.795119 0.381649
v -0.377705 0.825383 -0.376692
v -0.416754 0.811242 -0.376820
v -0.455794 0.816922 -0.376897
v -0.432365 0.825407 -0.376820
v -0.424563 0.808414 -0.376846
v -0.424555 0.828235 -0.376794
v -0.393324 0.819727 -0.376743
v -0.457576 0.795113 0.381686
v -0.379478 0.823395 0.381943
v -0.426329 0.826247 0.381840
v -0.434139 0.823418 0.381815
v -0.457568 0.814934 0.381738
v -0.426337 0.806426 0.381788
v -0.418527 0.809254 0.381814
v -0.395098 0.817739 0.381891
v -0.358773 1.043246 0.380202
v -0.358773 0.929982 0.380202
v -0.374390 1.043246 0.380216
v -0.374390 0.929982 0.380216
v -0.375086 0.845035 -0.378423
v -0.468790 0.873351 -0.378337
v -0.453172 0.873351 -0.378351
v -0.375086 0.830877 -0.378423
v -0.390703 0.830877 -0.378409
v -0.468790 0.859193 -0.378337
v -0.421938 0.862025 -0.378380
v -0.414129 0.859193 -0.378387
v -0.390703 0.850698 -0.378409
v -0.421938 0.842204 -0.378380
v -0.429746 0.845035 -0.378373
v -0.453172 0.853530 -0.378351
v -0.356953 1.080495 0.381535
v -0.356953 0.967232 0.381535
v -0.372570 1.080495 0.381550
v -0.372570 0.967232 0.381550
v -0.373266 0.882284 -0.377089
v -0.466969 0.910600 -0.377003
v -0.451352 0.910600 -0.377018
v -0.373266 0.868126 -0.377089
v -0.388883 0.868126 -0.377075
v -0.466969 0.896442 -0.377003
v -0.420117 0.899274 -0.377046
v -0.412309 0.896442 -0.377053
v -0.388883 0.887947 -0.377075
v -0.420117 0.879453 -0.377046
v -0.427926 0.882284 -0.377039
v -0.451352 0.890779 -0.377018
v -0.358773 1.043246 0.380202
v -0.358773 0.929982 0.380202
v -0.392314 0.874327 -0.375041
v -0.374390 1.043246 0.380216
v -0.374390 0.929982 0.380216
v -0.376697 0.874321 -0.375005
v -0.472186 0.844057 0.383337
v -0.378471 0.872332 0.383630
v -0.470412 0.846045 -0.375298
v -0.454801 0.831881 -0.375299
v -0.470418 0.831887 -0.375335
v -0.394088 0.872339 0.383593
v -0.472192 0.829899 0.383299
v -0.376703 0.860163 -0.375042
v -0.415752 0.846022 -0.375170
v -0.454793 0.851702 -0.375247
v -0.431363 0.860186 -0.375169
v -0.423562 0.843194 -0.375196
v -0.423553 0.863015 -0.375144
v -0.392323 0.854506 -0.375093
v -0.456575 0.829892 0.383336
v -0.378477 0.858174 0.383593
v -0.425327 0.861026 0.383491
v -0.433137 0.858198 0.383465
v -0.456566 0.849713 0.383388
v -0.425335 0.841205 0.383439
v -0.417526 0.844033 0.383464
v -0.394096 0.852518 0.383541
v -0.356953 1.080495 0.381535
v -0.356953 0.967232 0.381535
v -0.394114 0.911581 -0.376283
v -0.372570 1.080495 0.381550
v -0.372570 0.967232 0.381550
v -0.378497 0.911574 -0.376247
v -0.473986 0.881310 0.382095
v -0.380271 0.909585 0.382388
v -0.472213 0.883298 -0.376540
v -0.456601 0.869134 -0.376541
v -0.472219 0.869140 -0.376577
v -0.395888 0.909592 0.382351
v -0.473992 0.867152 0.382057
v -0.378503 0.897416 -0.376284
v -0.417552 0.883275 -0.376412
v -0.456593 0.888955 -0.376489
v -0.433164 0.897439 -0.376412
v -0.425362 0.880447 -0.376438
v -0.425354 0.900268 -0.376386
v -0.394123 0.891760 -0.376335
v -0.458375 0.867145 0.382094
v -0.380277 0.895428 0.382351
v -0.427127 0.898279 0.382249
v -0.434937 0.895451 0.382223
v -0.458367 0.886966 0.382146
v -0.427136 0.878458 0.382197
v -0.419326 0.881286 0.382222
v -0.395897 0.889771 0.382299
v -0.359601 1.116994 0.380424
v -0.359601 1.003731 0.380424
v -0.391454 0.948075 -0.375067
v -0.375219 1.116994 0.380438
v -0.375219 1.003731 0.380438
v -0.375837 0.948069 -0.375031
v -0.471326 0.917805 0.383311
v -0.377610 0.946080 0.383604
v -0.469552 0.919793 -0.375324
v -0.453941 0.905629 -0.375324
v -0.469558 0.905635 -0.375361
v -0.393228 0.946087 0.383568
v -0.471332 0.903647 0.383274
v -0.375843 0.933911 -0.375068
v -0.414892 0.919770 -0.375196
v -0.453932 0.925450 -0.375272
v -0.430503 0.933934 -0.375195
v -0.422702 0.916942 -0.375222
v -0.422693 0.936763 -0.375170
v -0.391462 0.928255 -0.375119
v -0.455714 0.903640 0.383310
v -0.377616 0.931922 0.383567
v -0.424467 0.934774 0.383465
v -0.432277 0.931946 0.383439
v -0.455706 0.923461 0.383362
v -0.424475 0.914953 0.383413
v -0.416665 0.917781 0.383438
v -0.393236 0.926266 0.383516
v -0.357781 1.154243 0.381757
v -0.357781 1.040980 0.381757
v -0.393254 0.985329 -0.376309
v -0.373398 1.154243 0.381772
v -0.373398 1.040980 0.381772
v -0.377637 0.985322 -0.376272
v -0.473126 0.955058 0.382069
v -0.379411 0.983333 0.382362
v -0.471352 0.957046 -0.376566
v -0.455741 0.942882 -0.376566
v -0.471358 0.942888 -0.376603
v -0.395028 0.983340 0.382326
v -0.473132 0.940900 0.382032
v -0.377643 0.971164 -0.376310
v -0.416692 0.957023 -0.376438
v -0.455733 0.962703 -0.376514
v -0.432303 0.971188 -0.376437
v -0.424502 0.954195 -0.376464
v -0.424493 0.974016 -0.376412
v -0.393263 0.965508 -0.376361
v -0.457515 0.940893 0.382068
v -0.379417 0.969176 0.382325
v -0.426267 0.972027 0.382223
v -0.434077 0.969199 0.382197
v -0.457506 0.960714 0.382120
v -0.426276 0.952206 0.382171
v -0.418466 0.955034 0.382196
v -0.395036 0.963519 0.382274
v -0.358773 1.187655 0.380202
v -0.358773 1.074392 0.380202
v -0.374390 1.187655 0.380216
v -0.374390 1.074392 0.380216
v -0.375086 0.989444 -0.378423
v -0.468790 1.017760 -0.378337
v -0.453172 1.017760 -0.378351
v -0.375086 0.975286 -0.378423
v -0.390703 0.975286 -0.378409
v -0.468790 1.003602 -0.378337
v -0.421938 1.006434 -0.378380
v -0.414129 1.003602 -0.378387
v -0.390703 0.995107 -0.378409
v -0.421938 0.986613 -0.378380
v -0.429746 0.989444 -0.378373
v -0.453172 0.997939 -0.378351
v -0.356953 1.224904 0.381535
v -0.356953 1.111641 0.381535
v -0.372570 1.224904 0.381550
v -0.372570 1.111641 0.381550
v -0.373266 1.026693 -0.377089
v -0.466969 1.055009 -0.377003
v -0.451352 1.055009 -0.377018
v -0.373266 1.012535 -0.377089
v -0.388883 1.012535 -0.377075
v -0.466969 1.040851 -0.377003
v -0.420117 1.043683 -0.377046
v -0.412309 1.040851 -0.377053
v -0.388883 1.032357 -0.377075
v -0.420117 1.023862 -0.377046
v -0.427926 1.026693 -0.377039
v -0.451352 1.035188 -0.377018
v -0.358773 1.187655 0.380202
v -0.358773 1.074392 0.380202
v -0.392253 1.018736 -0.374662
v -0.374390 1.187655 0.380216
v -0.374390 1.074392 0.380216
v -0.376636 1.018729 -0.374626
v -0.472125 0.988465 0.383715
v -0.378410 1.016741 0.384009
v -0.470351 0.990454 -0.374919
v -0.454740 0.976289 -0.374920
v -0.470357 0.976296 -0.374956
v -0.394027 1.016748 0.383972
v -0.472131 0.974307 0.383678
v -0.376642 1.004571 -0.374663
v -0.415691 0.990430 -0.374792
v -0.454732 0.996110 -0.374868
v -0.431302 1.004595 -0.374791
v -0.423501 0.987602 -0.374817
v -0.423492 1.007423 -0.374765
v -0.392261 0.998915 -0.374714
v -0.456514 0.974301 0.383715
v -0.378416 1.002583 0.383971
v -0.425266 1.005435 0.383869
v -0.433076 1.002606 0.383844
v -0.456505 0.994122 0.383767
v -0.425274 0.985614 0.383817
v -0.417465 0.988442 0.383843
v -0.394035 0.996927 0.383920
v -0.356953 1.224904 0.381535
v -0.356953 1.111641 0.381535
v -0.394053 1.055989 -0.375904
v -0.372570 1.224904 0.381550
v -0.372570 1.111641 0.381550
v -0.378436 1.055982 -0.375868
v -0.473925 1.025718 0.382473
v -0.380210 1.053994 0.382766
v -0.472151 1.027707 -0.376161
v -0.456540 1.013542 -0.376162
v -0.472157 1.013549 -0.376198
v -0.395827 1.054001 0.382730
v -0.473931 1.011561 0.382436
v -0.378442 1.041825 -0.375905
v -0.417491 1.027683 -0.376034
v -0.456532 1.033363 -0.376110
v -0.433103 1.041848 -0.376033
v -0.425301 1.024855 -0.376059
v -0.425293 1.044676 -0.376007
v -0.394062 1.036168 -0.375956
v -0.458314 1.011554 0.382473
v -0.380216 1.039836 0.382729
v -0.427066 1.042688 0.382627
v -0.434876 1.039860 0.382602
v -0.458306 1.031375 0.382525
v -0.427075 1.022867 0.382575
v -0.419265 1.025695 0.382601
v -0.395835 1.034180 0.382678
v -0.359601 1.261403 0.380424
v -0.359601 1.148140 0.380424
v -0.391393 1.092484 -0.374688
v -0.375219 1.261403 0.380438
v -0.375219 1.148140 0.380438
v -0.375776 1.092477 -0.374652
v -0.471265 1.062213 0.383689
v -0.377549 1.090489 0.383983
v -0.469491 1.064202 -0.374945
v -0.453880 1.050037 -0.374946
v -0.469497 1.050044 -0.374982
v -0.393167 1.090496 0.383946
v -0.471271 1.048056 0.383652
v -0.375782 1.078320 -0.374689
v -0.414831 1.064178 -0.374817
v -0.453871 1.069858 -0.374894
v -0.430442 1.078343 -0.374817
v -0.422640 1.061350 -0.374843
v -0.422632 1.081171 -0.374791
v -0.391401 1.072663 -0.374740
v -0.455653 1.048049 0.383689
v -0.377555 1.076331 0.383946
v -0.424406 1.079183 0.383843
v -0.432216 1.076355 0.383818
v -0.455645 1.067870 0.383741
v -0.424414 1.059362 0.383791
v -0.416604 1.062190 0.383817
v -0.393175 1.070675 0.383894
v -0.357781 1.298652 0.381757
v -0.357781 1.185389 0.381757
v -0.393193 1.129737 -0.375930
v -0.373398 1.298652 0.381772
v -0.373398 1.185389 0.381772
v -0.377576 1.129731 -0.375894
v -0.473065 1.099466 0.382447
v -0.379350 1.127742 0.382741
v -0.471291 1.101455 -0.376187
v -0.455680 1.087290 -0.376188
v -0.471297 1.087297 -0.376224
v -0.394967 1.127749 0.382704
v -0.473071 1.085309 0.382410
v -0.377582 1.115573 -0.375931
v -0.416631 1.101432 -0.376059
v -0.455672 1.107111 -0.376136
v -0.432242 1.115596 -0.376059
v -0.424441 1.098603 -0.376085
v -0.424432 1.118424 -0.376033
v -0.393202 1.109916 -0.375982
v -0.457454 1.085302 0.382447
v -0.379356 1.113584 0.382703
v -0.426206 1.116436 0.382601
v -0.434016 1.113608 0.382576
v -0.457445 1.105123 0.382499
v -0.426214 1.096615 0.382549
v -0.418405 1.099443 0.382575
v -0.394975 1.107928 0.382652
v -0.358773 1.333436 0.380202
v -0.358773 1.220173 0.380202
v -0.374390 1.333436 0.380216
v -0.374390 1.220173 0.380216
v -0.375086 1.135225 -0.378423
v -0.468790 1.163541 -0.378337
v -0.453172 1.163541 -0.378351
v -0.375086 1.121068 -0.378423
v -0.390703 1.121068 -0.378409
v -0.468790 1.149383 -0.378337
v -0.421938 1.152215 -0.378380
v -0.414129 1.149383 -0.378387
v -0.390703 1.140889 -0.378409
v -0.421938 1.132394 -0.378380
v -0.429746 1.135225 -0.378373
v -0.453172 1.143720 -0.378351
v -0.356953 1.370685 0.381535
v -0.356953 1.257422 0.381535
v -0.372570 1.370685 0.381550
v -0.372570 1.257422 0.381550
v -0.373266 1.172474 -0.377089
v -0.466969 1.200790 -0.377003
v -0.451352 1.200790 -0.377018
v -0.373266 1.158316 -0.377089
v -0.388883 1.158316 -0.377075
v -0.466969 1.186632 -0.377003
v -0.420117 1.189464 -0.377046
v -0.412309 1.186632 -0.377053
v -0.388883 1.178138 -0.377075
v -0.420117 1.169643 -0.377046
v -0.427926 1.172474 -0.377039
v -0.451352 1.180969 -0.377018
v -0.358773 1.333436 0.380202
v -0.358773 1.220173 0.380202
v -0.392191 1.164517 -0.374280
v -0.374390 1.333436 0.380216
v -0.374390 1.220173 0.380216
v -0.376574 1.164510 -0.374244
v -0.472063 1.134246 0.384098
v -0.378348 1.162521 0.384391
v -0.470290 1.136235 -0.374537
v -0.454678 1.122070 -0.374538
v -0.470295 1.122077 -0.374574
v -0.393965 1.162528 0.384354
v -0.472069 1.120088 0.384060
v -0.376580 1.150352 -0.374281
v -0.415629 1.136211 -0.374409
v -0.454670 1.141891 -0.374486
v -0.431241 1.150376 -0.374409
v -0.423439 1.133383 -0.374435
v -0.423431 1.153204 -0.374383
v -0.392200 1.144696 -0.374332
v -0.456452 1.120081 0.384097
v -0.378354 1.148364 0.384354
v -0.425204 1.151215 0.384252
v -0.433014 1.148387 0.384226
v -0.456444 1.139902 0.384149
v -0.425213 1.131394 0.384200
v -0.417403 1.134223 0.384225
v -0.393974 1.142707 0.384302
v -0.356953 1.370685 0.381535
v -0.356953 1.257422 0.381535
v -0.393992 1.201770 -0.375522
v -0.372570 1.370685 0.381550
v -0.372570 1.257422 0.381550
v -0.378375 1.201763 -0.375486
v -0.473864 1.171499 0.382855
v -0.380148 1.199775 0.383149
v -0.472090 1.173488 -0.375779
v -0.456479 1.159323 -0.375780
v -0.472096 1.159330 -0.375816
v -0.395765 1.199781 0.383112
v -0.473870 1.157341 0.382818
v -0.378381 1.187605 -0.375523
v -0.417430 1.173464 -0.375651
v -0.456470 1.179144 -0.375728
v -0.433041 1.187629 -0.375651
v -0.425239 1.170636 -0.375677
v -0.425231 1.190457 -0.375625
v -0.394000 1.181949 -0.375574
v -0.458252 1.157335 0.382855
v -0.380154 1.185617 0.383112
v -0.427005 1.188469 0.383010
v -0.434815 1.185640 0.382984
v -0.458244 1.177156 0.382907
v -0.427013 1.168648 0.382958
v -0.419203 1.171476 0.382983
v -0.395774 1.179960 0.383060
v -0.359601 1.407184 0.380424
v -0.359601 1.293921 0.380424
v -0.391331 1.238265 -0.374306
v -0.375219 1.407184 0.380438
v -0.375219 1.293921 0.380438
v -0.375714 1.238258 -0.374270
v -0.471203 1.207994 0.384072
v -0.377488 1.236270 0.384365
v -0.469429 1.209983 -0.374563
v -0.453818 1.195818 -0.374563
v -0.469435 1.195825 -0.374600
v -0.393105 1.236276 0.384328
v -0.471209 1.193836 0.384035
v -0.375720 1.224100 -0.374307
v -0.414769 1.209959 -0.374435
v -0.453810 1.215639 -0.374511
v -0.430380 1.224124 -0.374434
v -0.422579 1.207131 -0.374461
v -0.422570 1.226952 -0.374409
v -0.391340 1.218444 -0.374358
v -0.455592 1.193830 0.384071
v -0.377494 1.222112 0.384328
v -0.424344 1.224963 0.384226
v -0.432154 1.222135 0.384200
v -0.455583 1.213650 0.384123
v -0.424352 1.205142 0.384174
v -0.416543 1.207971 0.384199
v -0.393113 1.216455 0.384277
v -0.357781 1.444433 0.381757
v -0.357781 1.331170 0.381757
v -0.393132 1.275518 -0.375548
v -0.373398 1.444433 0.381772
v -0.373398 1.331170 0.381772
v -0.377514 1.275511 -0.375512
v -0.473003 1.245247 0.382830
v -0.379288 1.273523 0.383123
v -0.471230 1.247236 -0.375805
v -0.455618 1.233071 -0.375805
v -0.471236 1.233078 -0.375842
v -0.394905 1.273529 0.383086
v -0.473009 1.231089 0.382792
v -0.377520 1.261353 -0.375549
v -0.416570 1.247212 -0.375677
v -0.455610 1.252892 -0.375754
v -0.432181 1.261377 -0.375676
v -0.424379 1.244384 -0.375703
v -0.424371 1.264205 -0.375651
v -0.393140 1.255697 -0.375600
v -0.457392 1.231083 0.382829
v -0.379294 1.259365 0.383086
v -0.426144 1.262217 0.382984
v -0.433954 1.259388 0.382958
v -0.457384 1.250904 0.382881
v -0.426153 1.242396 0.382932
v -0.418343 1.245224 0.382957
v -0.394914 1.253708 0.383034
v -0.392966 1.314842 -0.383186
v -0.377349 1.314835 -0.383150
v -0.472838 1.284571 0.375191
v -0.379122 1.312847 0.375485
v -0.471064 1.286560 -0.383443
v -0.455453 1.272395 -0.383444
v -0.471070 1.272402 -0.383480
v -0.394740 1.312854 0.375448
v -0.472844 1.270414 0.375154
v -0.377355 1.300678 -0.383187
v -0.416404 1.286536 -0.383315
v -0.455444 1.292216 -0.383392
v -0.432015 1.300701 -0.383315
v -0.424213 1.283708 -0.383341
v -0.424205 1.303529 -0.383289
v -0.392974 1.295021 -0.383238
v -0.457226 1.270407 0.375191
v -0.379128 1.298689 0.375447
v -0.425979 1.301541 0.375345
v -0.433789 1.298712 0.375320
v -0.457218 1.290228 0.375243
v -0.425987 1.281720 0.375293
v -0.418177 1.284548 0.375319
v -0.394748 1.293033 0.375396
v -0.394766 1.352095 -0.384428
v -0.379149 1.352089 -0.384392
v -0.474638 1.321825 0.373949
v -0.380923 1.350100 0.374243
v -0.472864 1.323813 -0.384685
v -0.457253 1.309648 -0.384686
v -0.472870 1.309655 -0.384722
v -0.396540 1.350107 0.374206
v -0.474644 1.307667 0.373912
v -0.379155 1.337931 -0.384429
v -0.418204 1.323790 -0.384557
v -0.457245 1.329469 -0.384634
v -0.433815 1.337954 -0.384557
v -0.426014 1.320961 -0.384583
v -0.426005 1.340782 -0.384531
v -0.394775 1.332274 -0.384480
v -0.459027 1.307660 0.373949
v -0.380929 1.335942 0.374205
v -0.427779 1.338794 0.374103
v -0.435589 1.335966 0.374078
v -0.459018 1.327481 0.374001
v -0.427787 1.318973 0.374051
v -0.419978 1.321801 0.374077
v -0.396548 1.330286 0.374154
v -0.335186 0.221246 -0.430086
v -0.335326 0.221246 -0.430086
v -0.335047 0.221246 -0.277734
v -0.335186 0.221246 -0.277734
v -0.335186 0.260450 -0.430086
v -0.335326 0.260450 -0.430086
v -0.335047 0.260450 -0.277734
v -0.335186 0.260450 -0.277734
v -0.324145 0.221246 -0.277734
v -0.324284 0.221246 -0.430086
v -0.324424 0.221246 -0.430086
v -0.324284 0.221246 -0.277734
v -0.324145 0.260450 -0.277734
v -0.324284 0.260450 -0.277734
v -0.324284 0.260450 -0.430086
v -0.324424 0.260450 -0.430086
v -0.325002 0.221246 -0.277734
v -0.325142 0.221246 -0.430086
v -0.358869 0.221246 -0.430086
v -0.325142 0.221246 -0.277734
v -0.325002 0.260450 -0.277734
v -0.325142 0.260450 -0.277734
v -0.325142 0.260450 -0.430086
v -0.358869 0.260450 -0.430086
v -0.290268 0.221246 -0.242113
v -0.290407 0.221246 -0.394465
v -0.290268 0.260450 -0.242113
v -0.290407 0.260450 -0.394465
v -0.324284 0.221246 -0.430086
v -0.324284 0.260450 -0.430086
v -0.290407 0.221246 -0.394465
v -0.290407 0.260450 -0.394465
v -0.325072 0.221246 -0.353910
v -0.325212 0.221246 -0.353910
v -0.325072 0.260450 -0.353910
v -0.325212 0.260450 -0.353910
v -0.325107 0.221246 -0.391998
v -0.358834 0.260450 -0.391998
v -0.358834 0.221246 -0.391998
v -0.325107 0.260450 -0.391998
v -0.521595 0.260442 -0.277734
v -0.521456 0.260442 -0.430086
v -0.521316 0.260441 -0.430086
v -0.521456 0.260442 -0.277734
v -0.521782 0.221238 -0.277734
v -0.521642 0.221238 -0.277734
v -0.521642 0.221238 -0.430086
v -0.521502 0.221237 -0.430086
v -0.520738 0.260438 -0.277734
v -0.520598 0.260438 -0.430086
v -0.486872 0.260277 -0.430086
v -0.520598 0.260438 -0.277734
v -0.520924 0.221234 -0.277734
v -0.520785 0.221234 -0.277734
v -0.520785 0.221234 -0.430086
v -0.487058 0.221073 -0.430086
v -0.555472 0.260604 -0.242113
v -0.555332 0.260603 -0.394465
v -0.555659 0.221399 -0.242113
v -0.555519 0.221399 -0.394465
v -0.521456 0.260442 -0.430086
v -0.521642 0.221238 -0.430086
v -0.555332 0.260603 -0.394465
v -0.555519 0.221399 -0.394465
v -0.520668 0.260438 -0.353910
v -0.520528 0.260437 -0.353910
v -0.520854 0.221234 -0.353910
v -0.520715 0.221233 -0.353910
v -0.520633 0.260438 -0.391998
v -0.487093 0.221073 -0.391998
v -0.486907 0.260277 -0.391998
v -0.520820 0.221234 -0.391998
vn -0.000000 -1.000000 0.000000
vn -1.000000 -0.000000 0.000900
vn 1.000000 -0.000000 -0.000900
vn -0.000000 1.000000 0.000000
vn -0.000900 -0.000000 -1.000000
vn 0.000900 -0.000000 1.000000
vn -0.115500 -0.653600 -0.747900
vn -0.302200 0.301500 -0.904300
vn 0.114100 0.653500 -0.748200
vn 0.300700 -0.301500 -0.904800
vn 0.415000 0.291500 -0.861900
vn 0.240400 0.664900 -0.707200
vn 0.240500 0.664900 -0.707200
vn -0.416500 -0.291500 -0.861100
vn 0.240500 0.664800 -0.707200
vn 0.127800 0.731100 -0.670200
vn -0.577900 0.577300 -0.576800
vn -0.656900 -0.460100 -0.597300
vn -0.241800 -0.664900 -0.706700
vn -0.241700 -0.664900 -0.706700
vn -0.129100 -0.731200 -0.669900
vn 0.576900 -0.577300 -0.577900
vn 0.655800 0.460100 -0.598500
vn 0.240500 0.664900 -0.707100
vn 0.127900 0.731200 -0.670100
vn -0.241700 -0.664800 -0.706800
vn -0.129100 -0.731100 -0.669900
vn -0.340500 0.940200 0.001700
vn -0.172600 0.985000 0.002200
vn -0.129700 0.729300 0.671800
vn -0.242400 0.663000 0.708200
vn 0.340500 -0.940200 -0.001700
vn 0.239100 -0.666700 0.705900
vn 0.576200 0.575600 0.580200
vn 0.654700 -0.462000 0.598200
vn 0.126600 -0.732800 0.668500
vn -0.578900 -0.578600 0.574500
vn -0.657500 0.458900 0.597600
vn -0.242400 0.663000 0.708300
vn 0.818600 -0.574400 0.000400
vn 0.172600 -0.985000 -0.002200
vn -0.707400 -0.706800 -0.003500
vn 0.707400 0.706800 0.003500
vn -0.818600 0.574400 -0.000400
vn 0.239100 -0.666800 0.705900
vn -0.242400 0.663100 0.708200
vn 0.127900 0.731100 -0.670100
vn 0.240400 0.665000 -0.707100
vn -0.241700 -0.665000 -0.706700
vn 0.240500 0.665000 -0.707100
vn -0.241800 -0.664800 -0.706800
vn -0.241700 -0.664900 -0.706800
vn -0.000000 -0.000000 -1.000000
vn 0.724600 -0.000000 -0.689100
vn -0.724600 -0.000000 0.689100
vn -0.749700 -0.000000 0.661800
vn -0.004700 -1.000000 0.000000
vn 0.000900 -0.000000 -1.000000
vn 0.004700 1.000000 0.000000
vn -0.000900 -0.000000 1.000000
vn -0.004800 -1.000000 0.000000
vn -1.000000 0.004800 -0.000900
vn 0.004800 1.000000 0.000000
vn 1.000000 -0.004800 0.000900
vn -0.724600 0.003400 -0.689100
vn 0.724600 -0.003400 0.689100
vn 0.749700 -0.003600 0.661800
vt 0.820288 0.312500
vt 0.828100 0.312500
vt 0.828100 0.687500
vt 0.820287 0.687500
vt 0.078100 0.062500
vt 0.078100 0.000000
vt 0.578100 0.000000
vt 0.578100 0.062500
vt 0.515600 0.937500
vt 0.515600 0.062500
vt 0.578100 0.937500
vt 0.139370 0.432578
vt 0.140600 0.062500
vt 0.514370 0.432578
vt 0.140600 0.937500
vt 0.078100 0.937500
vt 0.578100 1.000000
vt 0.078100 1.000000
vt 0.515600 0.434570
vt 0.140600 0.434570
vt 0.765600 0.250000
vt 0.828100 0.250000
vt 0.828100 0.750000
vt 0.765600 0.750000
vt 0.734400 0.250000
vt 0.734400 0.750000
vt 0.671900 0.750000
vt 0.671900 0.250000
vt 0.640600 0.000000
vt 0.640600 1.000000
vt 0.015600 1.000000
vt 0.015600 0.000000
vt 0.585912 0.444582
vt 0.578100 0.444582
vt 0.578100 0.437500
vt 0.585912 0.437500
vt 0.023412 0.937500
vt 0.015600 0.937500
vt 0.015600 0.437500
vt 0.023412 0.437500
vt 0.734400 0.312500
vt 0.734400 0.687500
vt 0.671900 0.687500
vt 0.671900 0.312500
vt 0.585912 0.937500
vt 0.578100 0.664126
vt 0.585913 0.664126
vt 0.624975 0.937500
vt 0.609350 0.937500
vt 0.609350 0.664126
vt 0.624975 0.664126
vt 0.624975 0.437500
vt 0.609350 0.437500
vt 0.624975 0.437500
vt 0.062475 0.937500
vt 0.046850 0.937500
vt 0.046850 0.437500
vt 0.062475 0.437500
vt 0.624975 0.444582
vt 0.609350 0.444582
vt 0.781225 0.312500
vt 0.796850 0.312500
vt 0.796850 0.687500
vt 0.781225 0.687500
vt 0.609350 0.550813
vt 0.624975 0.550813
vt 0.578100 0.550813
vt 0.585913 0.550813
vt 0.609350 0.494156
vt 0.624975 0.494156
vt 0.578100 0.494156
vt 0.585912 0.494157
vt 0.609350 0.465828
vt 0.624975 0.465828
vt 0.578100 0.465828
vt 0.585912 0.465828
vt 0.593725 0.494157
vt 0.593725 0.465828
vt 0.593725 0.550813
vt 0.593725 0.664126
vt 0.773412 0.312500
vt 0.773413 0.687500
vt 0.070287 0.937500
vt 0.070287 0.437500
vt 0.593725 0.937500
vt 0.593725 0.437500
vt 0.593725 0.444582
vt 0.632787 0.494156
vt 0.632787 0.465828
vt 0.632787 0.550813
vt 0.632788 0.664126
vt 0.632787 0.444582
vt 0.632787 0.437500
vt 0.632787 0.937500
vt 0.031225 0.937500
vt 0.031225 0.437500
vt 0.812475 0.312500
vt 0.812475 0.687500
vt 0.640600 0.937500
vt 0.640600 0.664126
vt 0.640600 0.437500
vt 0.640600 0.444582
vt 0.640600 0.550813
vt 0.957242 0.252128
vt 0.940518 0.252128
vt 0.940518 0.130843
vt 0.957242 0.130843
vt 0.640600 0.494156
vt 0.640600 0.465828
vt 0.078100 0.437500
vt 0.765600 0.312500
vt 0.765600 0.687500
vt 0.640600 0.458746
vt 0.632787 0.458746
vt 0.632787 0.451664
vt 0.640600 0.451664
vt 0.624975 0.458746
vt 0.624975 0.454497
vt 0.613256 0.458746
vt 0.585912 0.458746
vt 0.578100 0.458746
vt 0.578100 0.451664
vt 0.585912 0.451664
vt 0.593725 0.451664
vt 0.890345 0.058072
vt 0.856896 0.070200
vt 0.840172 0.070200
vt 0.840172 0.055040
vt 0.856896 0.048975
vt 0.881983 0.039879
vt 0.890345 0.036847
vt 0.923794 0.024718
vt 0.940518 0.024718
vt 0.940518 0.039879
vt 0.923794 0.045943
vt 0.898707 0.055040
vt 0.609350 0.460163
vt 0.609350 0.450248
vt 0.605444 0.451664
vt 0.593725 0.455913
vt 0.375000 0.000000
vt 0.375000 0.250000
vt 0.625000 0.250000
vt 0.625000 0.000000
vt 0.375000 0.500000
vt 0.625000 0.500000
vt 0.375000 0.750000
vt 0.625000 0.750000
vt 0.375000 1.000000
vt 0.625000 1.000000
vt 0.125000 0.500000
vt 0.125000 0.750000
vt 0.875000 0.750000
vt 0.875000 0.500000
vt 0.771218 0.772815
vt 0.771218 0.820966
vt 0.819370 0.820966
vt 0.819370 0.772815
vt 0.771218 0.869117
vt 0.819370 0.869117
vt 0.771218 0.917269
vt 0.819370 0.917269
vt 0.771218 0.965420
vt 0.819370 0.965420
vt 0.867521 0.917269
vt 0.867521 0.869117
vt 0.771218 0.796890
vt 0.819370 0.796890
vt 0.771218 0.905231
vt 0.819370 0.905231
vt 0.723067 0.905231
vt 0.723067 0.917269
vt 0.867521 0.905231
vt 0.723067 0.869117
vt 0.867521 0.893193
vt 0.819370 0.893193
vt 0.771218 0.893193
vt 0.723067 0.893193
vt 0.771218 0.784852
vt 0.819370 0.784852
s 1
f 70/1/1 78/4/1 3/3/1 2/2/1
f 5/5/2 8/8/2 7/7/2 6/6/2
f 4/9/2 10/11/2 8/8/2 9/10/2
f 11/12/2 13/14/2 9/10/2 12/13/2
f 5/5/2 14/16/2 1/15/2 12/13/2
f 14/16/2 16/18/2 15/17/2 10/11/2
f 17/8/3 20/5/3 19/6/3 18/7/3
f 17/8/3 22/11/3 3/9/3 21/10/3
f 22/11/3 25/17/3 24/18/3 23/16/3
f 2/15/3 23/16/3 20/5/3 26/13/3
f 27/19/3 28/20/3 26/13/3 21/10/3
f 6/21/1 7/24/1 18/23/1 19/22/1
f 16/25/4 24/28/4 25/27/4 15/26/4
f 15/17/5 25/30/5 18/29/5 7/7/5
f 6/6/6 19/32/6 24/31/6 16/18/6
f 101/33/5 81/36/5 11/35/5 96/34/5
f 78/37/6 72/40/6 27/39/6 3/38/6
f 33/41/4 31/44/4 32/43/4 34/42/4
f 81/36/4 83/36/4 30/35/4 11/35/4
f 80/45/5 84/47/5 36/46/5 1/11/5
f 61/48/5 65/51/5 42/50/5 37/49/5
f 62/52/4 64/54/4 41/53/4 39/53/4
f 52/55/6 55/58/6 40/57/6 38/56/6
f 99/59/7 62/52/5 39/53/5 97/60/5
f 53/61/1 52/64/1 38/63/1 37/62/1
f 65/51/5 67/66/5 45/65/5 42/50/5
f 84/47/5 85/68/5 44/67/5 36/46/5
f 67/66/5 68/70/5 48/69/5 45/65/5
f 85/68/5 86/72/5 47/71/5 44/67/5
f 68/70/5 69/74/5 51/73/5 48/69/5
f 86/72/5 87/76/8 50/75/5 47/71/5
f 48/69/5 51/73/5 60/78/9 59/77/5
f 45/65/5 48/69/5 59/77/5 58/79/5
f 42/50/5 45/65/5 58/79/5 57/80/5
f 80/81/1 79/82/1 52/64/1 53/61/1
f 79/83/6 82/84/6 55/58/6 52/55/6
f 37/49/5 42/50/5 57/80/5 53/85/5
f 39/53/4 41/53/4 56/86/4 54/86/4
f 97/60/5 39/53/5 54/86/5 98/87/5
f 76/88/5 77/89/5 69/74/5 68/70/5
f 75/90/5 76/88/5 68/70/5 67/66/5
f 74/91/5 75/90/5 67/66/5 65/51/5
f 100/92/10 71/93/5 62/52/5 99/59/7
f 71/93/4 73/93/4 64/54/4 62/52/4
f 70/94/5 74/91/5 65/51/5 61/48/5
f 38/56/6 40/57/6 63/96/6 66/95/6
f 37/62/1 38/63/1 66/98/1 61/97/1
f 2/99/5 35/100/5 74/91/5 70/94/5
f 28/101/4 29/101/4 73/93/4 71/93/4
f 95/102/5 28/101/5 71/93/5 100/92/10
f 35/100/5 43/103/5 75/90/5 74/91/5
f 43/104/5 46/107/5 76/106/5 75/105/5
f 46/108/5 49/109/5 77/89/5 76/88/5
f 66/95/6 63/96/6 72/40/6 78/37/6
f 61/97/1 66/98/1 78/4/1 70/1/1
f 4/16/6 13/110/6 82/84/6 79/83/6
f 1/111/1 4/112/1 79/82/1 80/81/1
f 59/77/5 60/78/9 87/76/8 86/72/5
f 58/79/5 59/77/5 86/72/5 85/68/5
f 57/80/5 58/79/5 85/68/5 84/47/5
f 53/85/5 57/80/5 84/47/5 80/45/5
f 54/86/4 56/86/4 83/36/4 81/36/4
f 98/87/5 54/86/5 81/36/5 101/33/5
f 102/113/5 88/116/5 93/115/11 107/114/5
f 107/114/5 93/115/11 110/118/12 106/117/5
f 106/117/5 110/118/12 111/119/13
f 108/120/14 94/123/5 89/122/5 103/121/5
f 91/124/5 98/87/5 101/33/5 94/123/5
f 88/116/5 95/102/5 100/92/10 93/115/11
f 117/125/15 118/136/24 119/135/13 90/134/23 105/133/22 115/132/21 120/131/20 121/130/20 122/129/19 116/128/18 92/127/17 104/126/16
f 94/123/5 101/33/5 96/34/5 89/122/5
f 87/76/8 108/120/14 103/121/5 50/75/5
f 69/74/5 106/117/5 111/119/13 113/137/13 51/73/5
f 51/73/5 113/137/13 60/78/9
f 77/89/5 107/114/5 106/117/5 69/74/5
f 49/109/5 102/113/5 107/114/5 77/89/5
f 112/138/19 97/60/5 98/87/5 91/124/5 109/139/19
f 109/139/19 91/124/5 114/140/20
f 114/140/20 91/124/5 94/123/5 108/120/14
f 99/59/7 97/60/5 112/138/19
f 123/104/5 124/107/5 126/106/5 125/105/5
f 133/125/13 134/136/24 135/135/13 127/134/23 130/133/22 131/132/27 136/131/26 137/130/20 138/129/19 132/128/18 128/127/17 129/126/25
f 139/104/5 140/107/5 143/106/5 142/105/5
f 157/125/28 161/125/31 150/126/30 141/126/29
f 158/129/32 166/129/33 165/130/33 153/130/32
f 161/125/31 162/136/39 163/135/31 145/134/38 151/133/37 159/132/36 164/131/33 165/130/33 166/129/33 160/128/35 146/127/34 150/126/30
f 152/128/40 160/128/35 166/129/33 158/129/32
f 148/132/41 159/132/36 151/133/37 149/133/42
f 156/131/32 164/131/33 159/132/36 148/132/41
f 141/126/29 150/126/30 146/127/34 144/127/43
f 144/127/43 146/127/34 160/128/35 152/128/40
f 147/134/44 145/134/38 163/135/31 154/135/28
f 153/130/32 165/130/33 164/131/33 156/131/32
f 155/136/28 162/136/39 161/125/31 157/125/28
f 154/135/28 163/135/31 162/136/39 155/136/28
f 149/133/42 151/133/37 145/134/38 147/134/44
f 167/104/5 168/107/5 171/106/5 170/105/5
f 185/125/28 189/125/39 178/126/30 169/126/29
f 186/129/32 194/129/33 193/130/33 181/130/32
f 189/125/39 190/136/39 191/135/39 173/134/38 179/133/37 187/132/36 192/131/33 193/130/33 194/129/33 188/128/35 174/127/34 178/126/30
f 180/128/40 188/128/35 194/129/33 186/129/32
f 176/132/41 187/132/36 179/133/37 177/133/42
f 184/131/32 192/131/33 187/132/36 176/132/41
f 169/126/29 178/126/30 174/127/34 172/127/43
f 172/127/43 174/127/34 188/128/35 180/128/40
f 175/134/44 173/134/38 191/135/39 182/135/28
f 181/130/32 193/130/33 192/131/33 184/131/32
f 183/136/28 190/136/39 189/125/39 185/125/28
f 182/135/28 191/135/39 190/136/39 183/136/28
f 177/133/42 179/133/37 173/134/38 175/134/44
f 195/104/5 196/107/5 199/106/5 198/105/5
f 213/125/28 217/125/31 206/126/30 197/126/29
f 214/129/32 222/129/33 221/130/33 209/130/32
f 217/125/31 218/136/31 219/135/31 201/134/38 207/133/37 215/132/36 220/131/45 221/130/33 222/129/33 216/128/35 202/127/34 206/126/30
f 208/128/40 216/128/35 222/129/33 214/129/32
f 204/132/41 215/132/36 207/133/37 205/133/42
f 212/131/32 220/131/45 215/132/36 204/132/41
f 197/126/29 206/126/30 202/127/34 200/127/43
f 200/127/43 202/127/34 216/128/35 208/128/40
f 203/134/44 201/134/38 219/135/31 210/135/28
f 209/130/32 221/130/33 220/131/45 212/131/32
f 211/136/28 218/136/31 217/125/31 213/125/28
f 210/135/28 219/135/31 218/136/31 211/136/28
f 205/133/42 207/133/37 201/134/38 203/134/44
f 223/104/5 224/107/5 227/106/5 226/105/5
f 241/125/28 245/125/39 234/126/30 225/126/29
f 242/129/32 250/129/33 249/130/33 237/130/32
f 245/125/39 246/136/39 247/135/31 229/134/38 235/133/37 243/132/36 248/131/33 249/130/33 250/129/33 244/128/35 230/127/34 234/126/30
f 236/128/40 244/128/35 250/129/33 242/129/32
f 232/132/41 243/132/36 235/133/37 233/133/42
f 240/131/32 248/131/33 243/132/36 232/132/41
f 225/126/29 234/126/30 230/127/34 228/127/43
f 228/127/43 230/127/34 244/128/35 236/128/40
f 231/134/44 229/134/38 247/135/31 238/135/28
f 237/130/32 249/130/33 248/131/33 240/131/32
f 239/136/28 246/136/39 245/125/39 241/125/28
f 238/135/28 247/135/31 246/136/39 239/136/28
f 233/133/42 235/133/37 229/134/38 231/134/44
f 251/104/5 252/107/5 254/106/5 253/105/5
f 260/125/5 259/136/5 258/135/5 266/134/5 263/133/5 262/132/5 257/131/5 256/130/5 255/129/5 261/128/5 265/127/5 264/126/5
f 267/104/5 268/107/5 270/106/5 269/105/5
f 271/104/5 272/107/5 275/106/5 274/105/5
f 289/125/28 293/125/46 282/126/30 273/126/29
f 290/129/32 298/129/33 297/130/33 285/130/32
f 293/125/46 294/136/31 295/135/39 277/134/38 283/133/37 291/132/36 296/131/33 297/130/33 298/129/33 292/128/35 278/127/34 282/126/30
f 284/128/40 292/128/35 298/129/33 290/129/32
f 280/132/41 291/132/36 283/133/37 281/133/42
f 288/131/32 296/131/33 291/132/36 280/132/41
f 273/126/29 282/126/30 278/127/34 276/127/43
f 276/127/43 278/127/34 292/128/35 284/128/40
f 279/134/44 277/134/38 295/135/39 286/135/28
f 285/130/32 297/130/33 296/131/33 288/131/32
f 287/136/28 294/136/31 293/125/46 289/125/28
f 286/135/28 295/135/39 294/136/31 287/136/28
f 281/133/42 283/133/37 277/134/38 279/134/44
f 299/104/5 300/107/5 303/106/5 302/105/5
f 317/125/28 321/125/39 310/126/30 301/126/29
f 318/129/32 326/129/45 325/130/45 313/130/32
f 321/125/39 322/136/39 323/135/31 305/134/38 311/133/37 319/132/36 324/131/33 325/130/45 326/129/45 320/128/35 306/127/34 310/126/30
f 312/128/40 320/128/35 326/129/45 318/129/32
f 308/132/41 319/132/36 311/133/37 309/133/42
f 316/131/32 324/131/33 319/132/36 308/132/41
f 301/126/29 310/126/30 306/127/34 304/127/43
f 304/127/43 306/127/34 320/128/35 312/128/40
f 307/134/44 305/134/38 323/135/31 314/135/28
f 313/130/32 325/130/45 324/131/33 316/131/32
f 315/136/28 322/136/39 321/125/39 317/125/28
f 314/135/28 323/135/31 322/136/39 315/136/28
f 309/133/42 311/133/37 305/134/38 307/134/44
f 327/104/5 328/107/5 331/106/5 330/105/5
f 345/125/28 349/125/39 338/126/30 329/126/29
f 346/129/32 354/129/33 353/130/45 341/130/32
f 349/125/39 350/136/39 351/135/31 333/134/38 339/133/37 347/132/36 352/131/33 353/130/45 354/129/33 348/128/35 334/127/34 338/126/30
f 340/128/40 348/128/35 354/129/33 346/129/32
f 336/132/41 347/132/36 339/133/37 337/133/42
f 344/131/32 352/131/33 347/132/36 336/132/41
f 329/126/29 338/126/30 334/127/34 332/127/43
f 332/127/43 334/127/34 348/128/35 340/128/40
f 335/134/44 333/134/38 351/135/31 342/135/28
f 341/130/32 353/130/45 352/131/33 344/131/32
f 343/136/28 350/136/39 349/125/39 345/125/28
f 342/135/28 351/135/31 350/136/39 343/136/28
f 337/133/42 339/133/37 333/134/38 335/134/44
f 355/104/5 356/107/5 359/106/5 358/105/5
f 373/125/28 377/125/31 366/126/30 357/126/29
f 374/129/32 382/129/33 381/130/33 369/130/32
f 377/125/31 378/136/31 379/135/31 361/134/38 367/133/37 375/132/36 380/131/33 381/130/33 382/129/33 376/128/35 362/127/34 366/126/30
f 368/128/40 376/128/35 382/129/33 374/129/32
f 364/132/41 375/132/36 367/133/37 365/133/42
f 372/131/32 380/131/33 375/132/36 364/132/41
f 357/126/29 366/126/30 362/127/34 360/127/43
f 360/127/43 362/127/34 376/128/35 368/128/40
f 363/134/44 361/134/38 379/135/31 370/135/28
f 369/130/32 381/130/33 380/131/33 372/131/32
f 371/136/28 378/136/31 377/125/31 373/125/28
f 370/135/28 379/135/31 378/136/31 371/136/28
f 365/133/42 367/133/37 361/134/38 363/134/44
f 383/104/5 384/107/5 386/106/5 385/105/5
f 393/125/15 394/136/12 395/135/24 387/134/23 390/133/22 391/132/21 396/131/19 397/130/20 398/129/20 392/128/18 388/127/17 389/126/47
f 399/104/5 400/107/5 402/106/5 401/105/5
f 409/125/13 410/136/12 411/135/24 403/134/23 406/133/22 407/132/21 412/131/20 413/130/19 414/129/20 408/128/18 404/127/17 405/126/25
f 415/104/5 416/107/5 419/106/5 418/105/5
f 433/125/28 437/125/31 426/126/30 417/126/29
f 434/129/32 442/129/33 441/130/45 429/130/32
f 437/125/31 438/136/39 439/135/39 421/134/38 427/133/37 435/132/36 440/131/33 441/130/45 442/129/33 436/128/35 422/127/34 426/126/30
f 428/128/40 436/128/35 442/129/33 434/129/32
f 424/132/41 435/132/36 427/133/37 425/133/42
f 432/131/32 440/131/33 435/132/36 424/132/41
f 417/126/29 426/126/30 422/127/34 420/127/43
f 420/127/43 422/127/34 436/128/35 428/128/40
f 423/134/44 421/134/38 439/135/39 430/135/28
f 429/130/32 441/130/45 440/131/33 432/131/32
f 431/136/28 438/136/39 437/125/31 433/125/28
f 430/135/28 439/135/39 438/136/39 431/136/28
f 425/133/42 427/133/37 421/134/38 423/134/44
f 443/104/5 444/107/5 447/106/5 446/105/5
f 461/125/28 465/125/31 454/126/30 445/126/29
f 462/129/32 470/129/45 469/130/33 457/130/32
f 465/125/31 466/136/31 467/135/39 449/134/38 455/133/37 463/132/36 468/131/33 469/130/33 470/129/45 464/128/35 450/127/34 454/126/30
f 456/128/40 464/128/35 470/129/45 462/129/32
f 452/132/41 463/132/36 455/133/37 453/133/42
f 460/131/32 468/131/33 463/132/36 452/132/41
f 445/126/29 454/126/30 450/127/34 448/127/43
f 448/127/43 450/127/34 464/128/35 456/128/40
f 451/134/44 449/134/38 467/135/39 458/135/28
f 457/130/32 469/130/33 468/131/33 460/131/32
f 459/136/28 466/136/31 465/125/31 461/125/28
f 458/135/28 467/135/39 466/136/31 459/136/28
f 453/133/42 455/133/37 449/134/38 451/134/44
f 471/104/5 472/107/5 475/106/5 474/105/5
f 489/125/28 493/125/31 482/126/30 473/126/29
f 490/129/32 498/129/33 497/130/33 485/130/32
f 493/125/31 494/136/39 495/135/39 477/134/38 483/133/37 491/132/36 496/131/33 497/130/33 498/129/33 492/128/35 478/127/34 482/126/30
f 484/128/40 492/128/35 498/129/33 490/129/32
f 480/132/41 491/132/36 483/133/37 481/133/42
f 488/131/32 496/131/33 491/132/36 480/132/41
f 473/126/29 482/126/30 478/127/34 476/127/43
f 476/127/43 478/127/34 492/128/35 484/128/40
f 479/134/44 477/134/38 495/135/39 486/135/28
f 485/130/32 497/130/33 496/131/33 488/131/32
f 487/136/28 494/136/39 493/125/31 489/125/28
f 486/135/28 495/135/39 494/136/39 487/136/28
f 481/133/42 483/133/37 477/134/38 479/134/44
f 499/104/5 500/107/5 503/106/5 502/105/5
f 517/125/28 521/125/31 510/126/30 501/126/29
f 518/129/32 526/129/33 525/130/33 513/130/32
f 521/125/31 522/136/39 523/135/31 505/134/38 511/133/37 519/132/36 524/131/33 525/130/33 526/129/33 520/128/35 506/127/34 510/126/30
f 512/128/40 520/128/35 526/129/33 518/129/32
f 508/132/41 519/132/36 511/133/37 509/133/42
f 516/131/32 524/131/33 519/132/36 508/132/41
f 501/126/29 510/126/30 506/127/34 504/127/43
f 504/127/43 506/127/34 520/128/35 512/128/40
f 507/134/44 505/134/38 523/135/31 514/135/28
f 513/130/32 525/130/33 524/131/33 516/131/32
f 515/136/28 522/136/39 521/125/31 517/125/28
f 514/135/28 523/135/31 522/136/39 515/136/28
f 509/133/42 511/133/37 505/134/38 507/134/44
f 527/104/5 528/107/5 530/106/5 529/105/5
f 537/125/13 538/136/12 539/135/48 531/134/23 534/133/22 535/132/21 540/131/19 541/130/20 542/129/20 536/128/18 532/127/17 533/126/16
f 543/104/5 544/107/5 546/106/5 545/105/5
f 553/125/12 554/136/13 555/135/24 547/134/23 550/133/22 551/132/21 556/131/20 557/130/19 558/129/20 552/128/18 548/127/17 549/126/16
f 559/104/5 560/107/5 563/106/5 562/105/5
f 577/125/28 581/125/31 570/126/30 561/126/29
f 578/129/32 586/129/33 585/130/33 573/130/32
f 581/125/31 582/136/39 583/135/39 565/134/38 571/133/37 579/132/36 584/131/33 585/130/33 586/129/33 580/128/35 566/127/34 570/126/30
f 572/128/40 580/128/35 586/129/33 578/129/32
f 568/132/41 579/132/36 571/133/37 569/133/42
f 576/131/32 584/131/33 579/132/36 568/132/41
f 561/126/29 570/126/30 566/127/34 564/127/43
f 564/127/43 566/127/34 580/128/35 572/128/40
f 567/134/44 565/134/38 583/135/39 574/135/28
f 573/130/32 585/130/33 584/131/33 576/131/32
f 575/136/28 582/136/39 581/125/31 577/125/28
f 574/135/28 583/135/39 582/136/39 575/136/28
f 569/133/42 571/133/37 565/134/38 567/134/44
f 587/104/5 588/107/5 591/106/5 590/105/5
f 605/125/28 609/125/31 598/126/30 589/126/29
f 606/129/32 614/129/33 613/130/33 601/130/32
f 609/125/31 610/136/31 611/135/31 593/134/38 599/133/37 607/132/36 612/131/33 613/130/33 614/129/33 608/128/35 594/127/34 598/126/30
f 600/128/40 608/128/35 614/129/33 606/129/32
f 596/132/41 607/132/36 599/133/37 597/133/42
f 604/131/32 612/131/33 607/132/36 596/132/41
f 589/126/29 598/126/30 594/127/34 592/127/43
f 592/127/43 594/127/34 608/128/35 600/128/40
f 595/134/44 593/134/38 611/135/31 602/135/28
f 601/130/32 613/130/33 612/131/33 604/131/32
f 603/136/28 610/136/31 609/125/31 605/125/28
f 602/135/28 611/135/31 610/136/31 603/136/28
f 597/133/42 599/133/37 593/134/38 595/134/44
f 615/104/5 616/107/5 619/106/5 618/105/5
f 633/125/28 637/125/31 626/126/30 617/126/29
f 634/129/32 642/129/33 641/130/33 629/130/32
f 637/125/31 638/136/39 639/135/39 621/134/38 627/133/37 635/132/36 640/131/33 641/130/33 642/129/33 636/128/35 622/127/34 626/126/30
f 628/128/40 636/128/35 642/129/33 634/129/32
f 624/132/41 635/132/36 627/133/37 625/133/42
f 632/131/32 640/131/33 635/132/36 624/132/41
f 617/126/29 626/126/30 622/127/34 620/127/43
f 620/127/43 622/127/34 636/128/35 628/128/40
f 623/134/44 621/134/38 639/135/39 630/135/28
f 629/130/32 641/130/33 640/131/33 632/131/32
f 631/136/28 638/136/39 637/125/31 633/125/28
f 630/135/28 639/135/39 638/136/39 631/136/28
f 625/133/42 627/133/37 621/134/38 623/134/44
f 643/104/5 644/107/5 647/106/5 646/105/5
f 661/125/28 665/125/31 654/126/30 645/126/29
f 662/129/32 670/129/33 669/130/33 657/130/32
f 665/125/31 666/136/31 667/135/31 649/134/38 655/133/37 663/132/36 668/131/33 669/130/33 670/129/33 664/128/35 650/127/34 654/126/30
f 656/128/40 664/128/35 670/129/33 662/129/32
f 652/132/41 663/132/36 655/133/37 653/133/42
f 660/131/32 668/131/33 663/132/36 652/132/41
f 645/126/29 654/126/30 650/127/34 648/127/43
f 648/127/43 650/127/34 664/128/35 656/128/40
f 651/134/44 649/134/38 667/135/31 658/135/28
f 657/130/32 669/130/33 668/131/33 660/131/32
f 659/136/28 666/136/31 665/125/31 661/125/28
f 658/135/28 667/135/31 666/136/31 659/136/28
f 653/133/42 655/133/37 649/134/38 651/134/44
f 671/104/5 672/107/5 674/106/5 673/105/5
f 681/125/13 682/136/50 683/135/48 675/134/23 678/133/22 679/132/21 684/131/19 685/130/49 686/129/20 680/128/18 676/127/17 677/126/16
f 687/104/5 688/107/5 690/106/5 689/105/5
f 697/125/12 698/136/13 699/135/24 691/134/23 694/133/22 695/132/21 700/131/26 701/130/51 702/129/20 696/128/18 692/127/17 693/126/25
f 703/104/5 704/107/5 707/106/5 706/105/5
f 721/125/28 725/125/31 714/126/30 705/126/29
f 722/129/32 730/129/33 729/130/33 717/130/32
f 725/125/31 726/136/39 727/135/39 709/134/38 715/133/37 723/132/36 728/131/33 729/130/33 730/129/33 724/128/35 710/127/34 714/126/30
f 716/128/40 724/128/35 730/129/33 722/129/32
f 712/132/41 723/132/36 715/133/37 713/133/42
f 720/131/32 728/131/33 723/132/36 712/132/41
f 705/126/29 714/126/30 710/127/34 708/127/43
f 708/127/43 710/127/34 724/128/35 716/128/40
f 711/134/44 709/134/38 727/135/39 718/135/28
f 717/130/32 729/130/33 728/131/33 720/131/32
f 719/136/28 726/136/39 725/125/31 721/125/28
f 718/135/28 727/135/39 726/136/39 719/136/28
f 713/133/42 715/133/37 709/134/38 711/134/44
f 731/104/5 732/107/5 735/106/5 734/105/5
f 749/125/28 753/125/31 742/126/30 733/126/29
f 750/129/32 758/129/33 757/130/33 745/130/32
f 753/125/31 754/136/39 755/135/39 737/134/38 743/133/37 751/132/36 756/131/45 757/130/33 758/129/33 752/128/35 738/127/34 742/126/30
f 744/128/40 752/128/35 758/129/33 750/129/32
f 740/132/41 751/132/36 743/133/37 741/133/42
f 748/131/32 756/131/45 751/132/36 740/132/41
f 733/126/29 742/126/30 738/127/34 736/127/43
f 736/127/43 738/127/34 752/128/35 744/128/40
f 739/134/44 737/134/38 755/135/39 746/135/28
f 745/130/32 757/130/33 756/131/45 748/131/32
f 747/136/28 754/136/39 753/125/31 749/125/28
f 746/135/28 755/135/39 754/136/39 747/136/28
f 741/133/42 743/133/37 737/134/38 739/134/44
f 759/104/5 760/107/5 763/106/5 762/105/5
f 777/125/28 781/125/31 770/126/30 761/126/29
f 778/129/32 786/129/33 785/130/33 773/130/32
f 781/125/31 782/136/31 783/135/31 765/134/38 771/133/37 779/132/36 784/131/33 785/130/33 786/129/33 780/128/35 766/127/34 770/126/30
f 772/128/40 780/128/35 786/129/33 778/129/32
f 768/132/41 779/132/36 771/133/37 769/133/42
f 776/131/32 784/131/33 779/132/36 768/132/41
f 761/126/29 770/126/30 766/127/34 764/127/43
f 764/127/43 766/127/34 780/128/35 772/128/40
f 767/134/44 765/134/38 783/135/31 774/135/28
f 773/130/32 785/130/33 784/131/33 776/131/32
f 775/136/28 782/136/31 781/125/31 777/125/28
f 774/135/28 783/135/31 782/136/31 775/136/28
f 769/133/42 771/133/37 765/134/38 767/134/44
f 787/104/5 788/107/5 791/106/5 790/105/5
f 805/125/28 809/125/31 798/126/30 789/126/29
f 806/129/32 814/129/45 813/130/33 801/130/32
f 809/125/31 810/136/39 811/135/31 793/134/38 799/133/37 807/132/36 812/131/33 813/130/33 814/129/45 808/128/35 794/127/34 798/126/30
f 800/128/40 808/128/35 814/129/45 806/129/32
f 796/132/41 807/132/36 799/133/37 797/133/42
f 804/131/32 812/131/33 807/132/36 796/132/41
f 789/126/29 798/126/30 794/127/34 792/127/43
f 792/127/43 794/127/34 808/128/35 800/128/40
f 795/134/44 793/134/38 811/135/31 802/135/28
f 801/130/32 813/130/33 812/131/33 804/131/32
f 803/136/28 810/136/39 809/125/31 805/125/28
f 802/135/28 811/135/31 810/136/39 803/136/28
f 797/133/42 799/133/37 793/134/38 795/134/44
f 815/104/5 816/107/5 818/106/5 817/105/5
f 825/125/13 826/136/50 827/135/48 819/134/23 822/133/22 823/132/21 828/131/19 829/130/49 830/129/20 824/128/18 820/127/17 821/126/16
f 831/104/5 832/107/5 834/106/5 833/105/5
f 841/125/12 842/136/13 843/135/24 835/134/23 838/133/22 839/132/27 844/131/52 845/130/51 846/129/20 840/128/18 836/127/17 837/126/25
f 847/104/5 848/107/5 851/106/5 850/105/5
f 865/125/28 869/125/31 858/126/30 849/126/29
f 866/129/32 874/129/33 873/130/33 861/130/32
f 869/125/31 870/136/39 871/135/31 853/134/38 859/133/37 867/132/36 872/131/33 873/130/33 874/129/33 868/128/35 854/127/34 858/126/30
f 860/128/40 868/128/35 874/129/33 866/129/32
f 856/132/41 867/132/36 859/133/37 857/133/42
f 864/131/32 872/131/33 867/132/36 856/132/41
f 849/126/29 858/126/30 854/127/34 852/127/43
f 852/127/43 854/127/34 868/128/35 860/128/40
f 855/134/44 853/134/38 871/135/31 862/135/28
f 861/130/32 873/130/33 872/131/33 864/131/32
f 863/136/28 870/136/39 869/125/31 865/125/28
f 862/135/28 871/135/31 870/136/39 863/136/28
f 857/133/42 859/133/37 853/134/38 855/134/44
f 875/104/5 876/107/5 879/106/5 878/105/5
f 893/125/28 897/125/39 886/126/30 877/126/29
f 894/129/32 902/129/33 901/130/33 889/130/32
f 897/125/39 898/136/39 899/135/39 881/134/38 887/133/37 895/132/36 900/131/45 901/130/33 902/129/33 896/128/35 882/127/34 886/126/30
f 888/128/40 896/128/35 902/129/33 894/129/32
f 884/132/41 895/132/36 887/133/37 885/133/42
f 892/131/32 900/131/45 895/132/36 884/132/41
f 877/126/29 886/126/30 882/127/34 880/127/43
f 880/127/43 882/127/34 896/128/35 888/128/40
f 883/134/44 881/134/38 899/135/39 890/135/28
f 889/130/32 901/130/33 900/131/45 892/131/32
f 891/136/28 898/136/39 897/125/39 893/125/28
f 890/135/28 899/135/39 898/136/39 891/136/28
f 885/133/42 887/133/37 881/134/38 883/134/44
f 903/104/5 904/107/5 907/106/5 906/105/5
f 921/125/28 925/125/39 914/126/30 905/126/29
f 922/129/32 930/129/33 929/130/33 917/130/32
f 925/125/39 926/136/31 927/135/31 909/134/38 915/133/37 923/132/36 928/131/33 929/130/33 930/129/33 924/128/35 910/127/34 914/126/30
f 916/128/40 924/128/35 930/129/33 922/129/32
f 912/132/41 923/132/36 915/133/37 913/133/42
f 920/131/32 928/131/33 923/132/36 912/132/41
f 905/126/29 914/126/30 910/127/34 908/127/43
f 908/127/43 910/127/34 924/128/35 916/128/40
f 911/134/44 909/134/38 927/135/31 918/135/28
f 917/130/32 929/130/33 928/131/33 920/131/32
f 919/136/28 926/136/31 925/125/39 921/125/28
f 918/135/28 927/135/31 926/136/31 919/136/28
f 913/133/42 915/133/37 909/134/38 911/134/44
f 931/104/5 932/107/5 935/106/5 934/105/5
f 949/125/28 953/125/39 942/126/30 933/126/29
f 950/129/32 958/129/33 957/130/33 945/130/32
f 953/125/39 954/136/39 955/135/39 937/134/38 943/133/37 951/132/36 956/131/33 957/130/33 958/129/33 952/128/35 938/127/34 942/126/30
f 944/128/40 952/128/35 958/129/33 950/129/32
f 940/132/41 951/132/36 943/133/37 941/133/42
f 948/131/32 956/131/33 951/132/36 940/132/41
f 933/126/29 942/126/30 938/127/34 936/127/43
f 936/127/43 938/127/34 952/128/35 944/128/40
f 939/134/44 937/134/38 955/135/39 946/135/28
f 945/130/32 957/130/33 956/131/33 948/131/32
f 947/136/28 954/136/39 953/125/39 949/125/28
f 946/135/28 955/135/39 954/136/39 947/136/28
f 941/133/42 943/133/37 937/134/38 939/134/44
f 973/125/28 977/125/28 966/126/29 959/126/29
f 974/129/32 982/129/32 981/130/32 969/130/32
f 968/128/40 976/128/40 982/129/32 974/129/32
f 964/132/41 975/132/41 967/133/42 965/133/42
f 972/131/32 980/131/32 975/132/41 964/132/41
f 959/126/29 966/126/29 962/127/43 960/127/43
f 960/127/43 962/127/43 976/128/40 968/128/40
f 963/134/44 961/134/44 979/135/28 970/135/28
f 969/130/32 981/130/32 980/131/32 972/131/32
f 971/136/28 978/136/28 977/125/28 973/125/28
f 970/135/28 979/135/28 978/136/28 971/136/28
f 965/133/42 967/133/42 961/134/44 963/134/44
f 997/125/28 1001/125/28 990/126/29 983/126/29
f 998/129/32 1006/129/32 1005/130/32 993/130/32
f 992/128/40 1000/128/40 1006/129/32 998/129/32
f 988/132/41 999/132/41 991/133/42 989/133/42
f 996/131/32 1004/131/32 999/132/41 988/132/41
f 983/126/29 990/126/29 986/127/43 984/127/43
f 984/127/43 986/127/43 1000/128/40 992/128/40
f 987/134/44 985/134/44 1003/135/28 994/135/28
f 993/130/32 1005/130/32 1004/131/32 996/131/32
f 995/136/28 1002/136/28 1001/125/28 997/125/28
f 994/135/28 1003/135/28 1002/136/28 995/136/28
f 989/133/42 991/133/42 985/134/44 987/134/44
s 0
f 1007/141/4 1008/144/4 1010/143/4 1009/142/4
f 1009/142/5 1010/143/5 1014/146/5 1013/145/5
f 1013/145/1 1014/146/1 1012/148/1 1011/147/1
f 1011/147/6 1012/148/6 1008/150/6 1007/149/6
f 1009/151/2 1013/145/2 1011/147/2 1007/152/2
f 1014/146/3 1010/154/3 1008/153/3 1012/148/3
f 1016/155/4 1017/158/4 1018/157/4 1015/156/4
f 1015/156/5 1018/157/5 1020/160/5 1019/159/5
f 1019/159/1 1020/160/1 1022/162/1 1021/161/1
f 1021/161/6 1022/162/6 1017/164/6 1016/163/6
f 1015/156/4 1031/156/4 1032/155/4 1016/155/4
f 1020/160/3 1018/166/3 1017/165/3 1022/162/3
f 1039/167/1 1023/156/1 1026/157/1 1040/168/1
f 1023/156/6 1027/159/6 1028/160/6 1026/157/6
f 1046/169/4 1029/161/4 1030/162/4 1044/170/4
f 1029/161/53 1024/163/53 1025/164/53 1030/162/53
f 1043/171/3 1024/172/3 1029/161/3 1046/169/3
f 1044/170/2 1030/162/2 1025/165/2 1045/173/2
f 1031/174/2 1033/159/2 1034/161/2 1032/172/2
f 1021/161/1 1034/161/1 1033/159/1 1019/159/1
f 1021/161/53 1036/161/53 1038/161/53 1034/161/53
f 1019/159/54 1033/159/54 1031/156/54 1015/156/54
f 1035/163/55 1037/163/55 1038/161/55 1036/161/55
f 1034/161/53 1038/161/53 1037/172/53 1032/172/53
f 1016/163/53 1035/163/53 1036/161/53 1021/161/53
f 1032/155/53 1037/155/53 1035/155/53 1016/155/53
f 1028/160/2 1042/176/2 1040/175/2 1026/166/2
f 1023/174/3 1039/178/3 1041/177/3 1027/159/3
f 1027/159/4 1041/177/4 1042/176/4 1028/160/4
f 1043/179/1 1039/167/1 1040/168/1 1045/180/1
f 1024/155/1 1043/179/1 1045/180/1 1025/158/1
f 1042/176/56 1044/170/56 1045/173/56 1040/175/56
f 1039/178/3 1043/171/3 1046/169/3 1041/177/3
f 1041/177/4 1046/169/4 1044/170/4 1042/176/4
f 1048/155/57 1049/158/57 1050/157/57 1047/156/57
f 1047/156/58 1050/157/58 1052/160/58 1051/159/58
f 1051/159/59 1052/160/59 1054/162/59 1053/161/59
f 1053/161/60 1054/162/60 1049/164/60 1048/163/60
f 1047/156/61 1063/156/61 1064/155/61 1048/155/61
f 1052/160/62 1050/166/62 1049/165/62 1054/162/62
f 1071/167/63 1055/156/63 1058/157/63 1072/168/63
f 1055/156/60 1059/159/60 1060/160/60 1058/157/60
f 1078/169/61 1061/161/61 1062/162/61 1076/170/61
f 1061/161/53 1056/163/53 1057/164/53 1062/162/53
f 1075/171/62 1056/172/62 1061/161/62 1078/169/62
f 1076/170/64 1062/162/64 1057/165/64 1077/173/64
f 1063/174/64 1065/159/64 1066/161/64 1064/172/64
f 1053/161/63 1066/161/63 1065/159/63 1051/159/63
f 1053/161/53 1068/161/53 1070/161/53 1066/161/53
f 1051/159/65 1065/159/65 1063/156/65 1047/156/65
f 1067/163/66 1069/163/66 1070/161/66 1068/161/66
f 1066/161/53 1070/161/53 1069/172/53 1064/172/53
f 1048/163/53 1067/163/53 1068/161/53 1053/161/53
f 1064/155/53 1069/155/53 1067/155/53 1048/155/53
f 1060/160/64 1074/176/64 1072/175/64 1058/166/64
f 1055/174/62 1071/178/62 1073/177/62 1059/159/62
f 1059/159/61 1073/177/61 1074/176/61 1060/160/61
f 1075/179/63 1071/167/63 1072/168/63 1077/180/63
f 1056/155/63 1075/179/63 1077/180/63 1057/158/63
f 1074/176/67 1076/170/67 1077/173/67 1072/175/67
f 1071/178/62 1075/171/62 1078/169/62 1073/177/62
f 1073/177/61 1078/169/61 1076/170/61 1074/176/61
