# Blender 4.5.4 LTS
# www.blender.org
mtllib portaop_sx.mtl
o Cylinder_Cylinder_door
v -0.378158 1.374531 0.369230
v -0.378078 1.374531 0.494168
v 0.371672 1.374531 0.493689
v 0.371592 1.374531 0.368751
v -0.503033 -0.374531 0.369310
v -0.503033 -0.499500 0.369310
v 0.496467 -0.499500 0.368671
v 0.496467 -0.374531 0.368671
v 0.371592 -0.374531 0.368751
v 0.496467 1.374531 0.368671
v -0.378158 0.374969 0.369230
v -0.378158 -0.374531 0.369230
v 0.371592 0.374969 0.368751
v -0.503033 1.374531 0.369310
v 0.496467 1.499500 0.368671
v -0.503033 1.499500 0.369310
v 0.496546 -0.374531 0.493609
v 0.496546 -0.499500 0.493609
v -0.502953 -0.499500 0.494248
v -0.502953 -0.374531 0.494248
v 0.371671 -0.374531 0.493689
v 0.496546 1.374531 0.493609
v -0.502953 1.374531 0.494248
v -0.502953 1.499500 0.494248
v 0.496546 1.499500 0.493609
v -0.378078 -0.374531 0.494168
v 0.371671 0.374969 0.493689
v -0.378078 0.374969 0.494168
v 0.373965 0.374969 0.494377
v 0.373886 0.374969 0.369439
v -0.376934 1.364783 0.493977
v 0.370527 1.364783 0.493499
v -0.377014 1.364783 0.369421
v 0.370448 1.364783 0.368943
v -0.378078 0.828022 0.494168
v -0.378158 0.828022 0.369230
v -0.378118 1.374531 0.431699
v 0.371632 1.374531 0.431220
v -0.378118 0.374969 0.431699
v 0.371632 0.374969 0.431220
v 0.373926 0.374969 0.431908
v -0.378118 0.828022 0.431699
v -0.378078 0.601496 0.494168
v -0.378158 0.601496 0.369230
v -0.378118 0.601496 0.431699
v -0.378078 0.488232 0.494168
v -0.378158 0.488232 0.369230
v -0.378118 0.488232 0.431699
v -0.378078 0.431601 0.494168
v -0.378158 0.431601 0.369230
v -0.378118 0.431601 0.431699
v 0.371612 1.374531 0.399986
v -0.378138 1.374531 0.400465
v -0.378138 0.374969 0.400465
v 0.371612 0.374969 0.399985
v 0.373906 0.374969 0.400673
v -0.378138 0.828022 0.400465
v -0.378138 0.601496 0.400465
v -0.378138 0.488232 0.400465
v -0.378138 0.431601 0.400465
v -0.378098 1.374531 0.462934
v -0.378098 0.374969 0.462934
v 0.371652 0.374969 0.462454
v 0.373946 0.374969 0.463142
v -0.378098 0.828022 0.462934
v 0.371652 1.374531 0.462455
v -0.378098 0.601496 0.462934
v -0.378098 0.488232 0.462934
v -0.378098 0.431601 0.462934
v -0.378088 1.374531 0.478551
v -0.378088 0.374969 0.478551
v 0.371661 0.374969 0.478072
v 0.373955 0.374969 0.478760
v -0.378088 0.828022 0.478551
v -0.378088 0.601496 0.478551
v -0.378088 0.488232 0.478551
v -0.378088 0.431601 0.478551
v 0.371662 1.374531 0.478072
v 0.371602 1.374531 0.384368
v -0.378148 1.374531 0.384848
v -0.378148 0.374969 0.384848
v 0.371602 0.374969 0.384368
v 0.373896 0.374969 0.385056
v -0.378148 0.828022 0.384848
v -0.378148 0.601496 0.384848
v -0.378148 0.488232 0.384847
v -0.378148 0.431601 0.384848
v -0.378078 0.403285 0.494168
v -0.378158 0.403285 0.369230
v 0.380551 0.403285 0.478066
v -0.378138 0.403285 0.400465
v 0.380491 0.431601 0.384362
v -0.378088 0.403285 0.478551
v -0.378148 0.403285 0.384848
v -0.378078 0.389127 0.494168
v -0.378158 0.389127 0.369230
v -0.378118 0.389127 0.431699
v -0.378138 0.389127 0.400465
v -0.378098 0.389127 0.462934
v -0.378088 0.389127 0.478551
v -0.378148 0.389127 0.384848
v -0.378078 0.417443 0.494168
v -0.378158 0.417443 0.369230
v 0.380501 0.431601 0.399979
v 0.380551 0.389127 0.478066
v -0.378098 0.417443 0.462934
v -0.378088 0.417443 0.478551
v -0.378148 0.417443 0.384848
v -0.378123 0.403285 0.423891
v -0.378098 0.408948 0.462934
v -0.378113 0.417443 0.439508
v -0.378118 0.400453 0.431699
v -0.378118 0.420274 0.431699
v -0.378138 0.411780 0.400465
v 0.380541 0.389127 0.462448
v 0.380491 0.417443 0.384362
v 0.380521 0.420275 0.431214
v 0.380526 0.417443 0.439023
v 0.380541 0.408948 0.462448
v 0.380521 0.400453 0.431214
v 0.380516 0.403285 0.423405
v 0.380501 0.411780 0.399979
v -0.379413 0.638745 0.495988
v -0.379413 0.525481 0.495988
v -0.379423 0.638745 0.480371
v -0.379423 0.525481 0.480371
v 0.379216 0.440534 0.479886
v 0.379156 0.468850 0.386182
v 0.379166 0.468850 0.401800
v 0.379216 0.426376 0.479886
v 0.379206 0.426376 0.464269
v 0.379156 0.454692 0.386182
v 0.379186 0.457524 0.433034
v 0.379191 0.454692 0.440843
v 0.379206 0.446197 0.464269
v 0.379186 0.437702 0.433034
v 0.379181 0.440534 0.425226
v 0.379166 0.449029 0.401800
v -0.378078 0.601496 0.494168
v -0.378078 0.488232 0.494168
v 0.379250 0.432579 0.464103
v -0.378088 0.601496 0.478551
v -0.378088 0.488232 0.478551
v 0.379209 0.432573 0.479721
v -0.379105 0.402309 0.384021
v -0.379425 0.430584 0.477736
v 0.379529 0.404297 0.386005
v 0.379525 0.390133 0.401617
v 0.379566 0.390139 0.385999
v -0.379384 0.430591 0.462119
v -0.379068 0.388151 0.384015
v 0.379247 0.418415 0.479715
v 0.379386 0.404274 0.440666
v 0.379473 0.409954 0.401625
v 0.379389 0.418438 0.425054
v 0.379414 0.401445 0.432856
v 0.379362 0.421266 0.432864
v 0.379302 0.412758 0.464095
v -0.379109 0.388144 0.399633
v -0.379387 0.416426 0.477730
v -0.379272 0.419278 0.430880
v -0.379245 0.416450 0.423070
v -0.379161 0.407965 0.399641
v -0.379220 0.399457 0.430872
v -0.379248 0.402285 0.438681
v -0.379332 0.410770 0.462111
v -0.379413 0.638745 0.495988
v -0.379413 0.525481 0.495988
v 0.380493 0.469832 0.462303
v -0.379423 0.638745 0.480371
v -0.379423 0.525481 0.480371
v 0.380452 0.469826 0.477921
v -0.377863 0.439562 0.382221
v -0.378182 0.467837 0.475937
v 0.380771 0.441550 0.384205
v 0.380767 0.427386 0.399817
v 0.380808 0.427392 0.384199
v -0.378141 0.467844 0.460319
v -0.377826 0.425404 0.382215
v 0.380489 0.455668 0.477915
v 0.380628 0.441527 0.438866
v 0.380715 0.447207 0.399825
v 0.380632 0.455691 0.423254
v 0.380656 0.438699 0.431056
v 0.380604 0.458520 0.431064
v 0.380545 0.450012 0.462295
v -0.377866 0.425397 0.397833
v -0.378145 0.453679 0.475930
v -0.378030 0.456531 0.429080
v -0.378002 0.453703 0.421270
v -0.377918 0.445218 0.397841
v -0.377978 0.436710 0.429072
v -0.378006 0.439538 0.436881
v -0.378089 0.448023 0.460311
v -0.378300 0.675244 0.493340
v -0.378300 0.561980 0.493340
v 0.379276 0.506327 0.464964
v -0.378310 0.675244 0.477723
v -0.378310 0.561980 0.477723
v 0.379235 0.506321 0.480581
v -0.379080 0.476057 0.384882
v -0.379399 0.504332 0.478597
v 0.379554 0.478045 0.386866
v 0.379551 0.463881 0.402477
v 0.379591 0.463887 0.386860
v -0.379358 0.504339 0.462980
v -0.379043 0.461899 0.384876
v 0.379272 0.492163 0.480575
v 0.379411 0.478022 0.441526
v 0.379499 0.483702 0.402485
v 0.379415 0.492186 0.425915
v 0.379439 0.475194 0.433716
v 0.379387 0.495015 0.433724
v 0.379328 0.486506 0.464955
v -0.379083 0.461892 0.400493
v -0.379362 0.490174 0.478591
v -0.379247 0.493026 0.431740
v -0.379219 0.490198 0.423930
v -0.379135 0.481713 0.400501
v -0.379195 0.473205 0.431732
v -0.379223 0.476033 0.439542
v -0.379306 0.484518 0.462971
v -0.379634 0.712493 0.495160
v -0.379634 0.599230 0.495160
v 0.380518 0.543581 0.463164
v -0.379644 0.712493 0.479543
v -0.379644 0.599230 0.479543
v 0.380477 0.543574 0.478781
v -0.377837 0.513310 0.383082
v -0.378156 0.541585 0.476797
v 0.380797 0.515298 0.385066
v 0.380793 0.501134 0.400677
v 0.380834 0.501140 0.385060
v -0.378116 0.541592 0.461180
v -0.377800 0.499152 0.383076
v 0.380515 0.529416 0.478775
v 0.380654 0.515275 0.439726
v 0.380741 0.520955 0.400685
v 0.380657 0.529439 0.424115
v 0.380682 0.512447 0.431916
v 0.380630 0.532268 0.431924
v 0.380570 0.523760 0.463155
v -0.377841 0.499145 0.398693
v -0.378119 0.527427 0.476791
v -0.378004 0.530279 0.429940
v -0.377976 0.527451 0.422130
v -0.377893 0.518966 0.398701
v -0.377952 0.510458 0.429932
v -0.377980 0.513286 0.437742
v -0.378064 0.521771 0.461171
v -0.378078 0.747277 0.494168
v -0.378078 0.634014 0.494168
v -0.378088 0.747277 0.478551
v -0.378088 0.634014 0.478551
v -0.378072 0.411618 0.400446
v -0.378057 0.403124 0.423872
v -0.378052 0.400292 0.431681
v -0.378032 0.408787 0.462915
v -0.378047 0.417282 0.439489
v -0.378052 0.420113 0.431681
v -0.378082 0.417282 0.384829
v -0.378032 0.388966 0.462915
v -0.378022 0.388966 0.478532
v -0.378072 0.431439 0.400446
v -0.378082 0.431439 0.384829
v -0.378022 0.403124 0.478532
v -0.379413 0.784526 0.495988
v -0.379413 0.671263 0.495988
v -0.379423 0.784526 0.480371
v -0.379423 0.671263 0.480371
v -0.378078 0.747277 0.494168
v -0.378078 0.634014 0.494168
v 0.378868 0.578360 0.464165
v -0.378088 0.747277 0.478551
v -0.378088 0.634014 0.478551
v 0.378827 0.578353 0.479782
v -0.379488 0.548089 0.384083
v -0.379807 0.576365 0.477798
v 0.379146 0.550078 0.386067
v 0.379143 0.535913 0.401678
v 0.379183 0.535920 0.386061
v -0.379766 0.576371 0.462181
v -0.379450 0.533931 0.384077
v 0.378864 0.564195 0.479776
v 0.379003 0.550054 0.440727
v 0.379091 0.555734 0.401687
v 0.379007 0.564219 0.425116
v 0.379031 0.547226 0.432917
v 0.378979 0.567047 0.432926
v 0.378920 0.558539 0.464157
v -0.379491 0.533925 0.399694
v -0.379770 0.562207 0.477792
v -0.379655 0.565059 0.430942
v -0.379627 0.562230 0.423132
v -0.379543 0.553746 0.399702
v -0.379603 0.545238 0.430933
v -0.379631 0.548066 0.438743
v -0.379714 0.556551 0.462172
v -0.379413 0.784526 0.495988
v -0.379413 0.671263 0.495988
v 0.380110 0.615613 0.462365
v -0.379423 0.784526 0.480371
v -0.379423 0.671263 0.480371
v 0.380070 0.615606 0.477982
v -0.378245 0.585342 0.382283
v -0.378564 0.613618 0.475998
v 0.380389 0.587331 0.384267
v 0.380385 0.573166 0.399878
v 0.380426 0.573173 0.384261
v -0.378523 0.613625 0.460381
v -0.378208 0.571184 0.382277
v 0.380107 0.601449 0.477976
v 0.380246 0.587307 0.438927
v 0.380333 0.592987 0.399887
v 0.380250 0.601472 0.423316
v 0.380274 0.584479 0.431117
v 0.380222 0.604300 0.431126
v 0.380162 0.595792 0.462357
v -0.378249 0.571178 0.397894
v -0.378527 0.599460 0.475992
v -0.378412 0.602312 0.429142
v -0.378384 0.599483 0.421332
v -0.378301 0.590999 0.397902
v -0.378360 0.582491 0.429133
v -0.378388 0.585319 0.436943
v -0.378472 0.593804 0.460372
v -0.378300 0.821025 0.493340
v -0.378300 0.707762 0.493340
v 0.378894 0.652108 0.465025
v -0.378310 0.821025 0.477723
v -0.378310 0.707762 0.477723
v 0.378853 0.652101 0.480642
v -0.379462 0.621837 0.384943
v -0.379781 0.650113 0.478658
v 0.379172 0.623826 0.386927
v 0.379168 0.609661 0.402538
v 0.379209 0.609668 0.386921
v -0.379740 0.650120 0.463041
v -0.379425 0.607679 0.384937
v 0.378890 0.637944 0.480636
v 0.379029 0.623802 0.441587
v 0.379116 0.629482 0.402547
v 0.379033 0.637967 0.425976
v 0.379057 0.620974 0.433778
v 0.379005 0.640795 0.433786
v 0.378945 0.632287 0.465017
v -0.379466 0.607673 0.400554
v -0.379744 0.635955 0.478652
v -0.379629 0.638807 0.431802
v -0.379601 0.635978 0.423992
v -0.379518 0.627494 0.400563
v -0.379577 0.618986 0.431793
v -0.379605 0.621814 0.439603
v -0.379688 0.630299 0.463033
v -0.379634 0.858274 0.495160
v -0.379634 0.745011 0.495160
v 0.380136 0.689361 0.463225
v -0.379644 0.858274 0.479543
v -0.379644 0.745011 0.479543
v 0.380095 0.689354 0.478842
v -0.378219 0.659090 0.383143
v -0.378539 0.687366 0.476858
v 0.380415 0.661079 0.385127
v 0.380411 0.646914 0.400738
v 0.380452 0.646921 0.385121
v -0.378498 0.687373 0.461241
v -0.378182 0.644933 0.383137
v 0.380132 0.675197 0.478836
v 0.380272 0.661055 0.439787
v 0.380359 0.666735 0.400747
v 0.380275 0.675220 0.424176
v 0.380299 0.658227 0.431978
v 0.380247 0.678048 0.431986
v 0.380188 0.669540 0.463217
v -0.378223 0.644926 0.398754
v -0.378502 0.673208 0.476852
v -0.378386 0.676060 0.430002
v -0.378359 0.673232 0.422192
v -0.378275 0.664747 0.398763
v -0.378334 0.656239 0.429993
v -0.378362 0.659067 0.437803
v -0.378446 0.667552 0.461233
v -0.377616 0.897465 0.495894
v -0.377616 0.784201 0.495894
v -0.377627 0.897465 0.480277
v -0.377627 0.784201 0.480277
v 0.381012 0.699254 0.479792
v 0.380953 0.727570 0.386088
v 0.380963 0.727570 0.401705
v 0.381012 0.685096 0.479792
v 0.381003 0.685096 0.464174
v 0.380953 0.713412 0.386088
v 0.380983 0.716244 0.432940
v 0.380988 0.713412 0.440748
v 0.381003 0.704917 0.464174
v 0.380983 0.696422 0.432940
v 0.380978 0.699254 0.425131
v 0.380963 0.707749 0.401705
v -0.378951 0.934714 0.497714
v -0.378951 0.821450 0.497714
v -0.378961 0.934714 0.482097
v -0.378961 0.821450 0.482097
v 0.379678 0.736503 0.481612
v 0.379618 0.764819 0.387908
v 0.379628 0.764819 0.403525
v 0.379678 0.722345 0.481612
v 0.379668 0.722345 0.465994
v 0.379618 0.750661 0.387908
v 0.379648 0.753493 0.434760
v 0.379653 0.750661 0.442569
v 0.379668 0.742166 0.465994
v 0.379648 0.733671 0.434760
v 0.379643 0.736503 0.426951
v 0.379628 0.744998 0.403525
v -0.377616 0.897465 0.495894
v -0.377616 0.784201 0.495894
v 0.378018 0.728547 0.462501
v -0.377627 0.897465 0.480277
v -0.377627 0.784201 0.480277
v 0.377977 0.728540 0.478118
v -0.380338 0.698276 0.382419
v -0.380657 0.726552 0.476134
v 0.378296 0.700265 0.384403
v 0.378292 0.686100 0.400014
v 0.378333 0.686107 0.384397
v -0.380616 0.726558 0.460517
v -0.380301 0.684118 0.382413
v 0.378014 0.714382 0.478112
v 0.378153 0.700241 0.439063
v 0.378240 0.705921 0.400023
v 0.378157 0.714406 0.423452
v 0.378181 0.697413 0.431253
v 0.378129 0.717234 0.431262
v 0.378070 0.708726 0.462493
v -0.380341 0.684111 0.398030
v -0.380620 0.712394 0.476128
v -0.380505 0.715245 0.429278
v -0.380477 0.712417 0.421468
v -0.380393 0.703932 0.398039
v -0.380453 0.695424 0.429269
v -0.380481 0.698253 0.437079
v -0.380564 0.706737 0.460508
v -0.378951 0.934714 0.497714
v -0.378951 0.821450 0.497714
v 0.379260 0.765800 0.460701
v -0.378961 0.934714 0.482097
v -0.378961 0.821450 0.482097
v 0.379219 0.765793 0.476318
v -0.379095 0.735529 0.380619
v -0.379415 0.763805 0.474334
v 0.379539 0.737518 0.382603
v 0.379535 0.723353 0.398214
v 0.379576 0.723360 0.382597
v -0.379374 0.763812 0.458717
v -0.379058 0.721371 0.380613
v 0.379257 0.751635 0.476312
v 0.379396 0.737494 0.437263
v 0.379483 0.743174 0.398223
v 0.379400 0.751659 0.421652
v 0.379424 0.734666 0.429453
v 0.379372 0.754487 0.429462
v 0.379312 0.745979 0.460693
v -0.379099 0.721365 0.396230
v -0.379377 0.749647 0.474328
v -0.379262 0.752499 0.427478
v -0.379235 0.749670 0.419668
v -0.379151 0.741186 0.396238
v -0.379210 0.732678 0.427469
v -0.379238 0.735506 0.435279
v -0.379322 0.743991 0.458709
v -0.377838 0.971213 0.495066
v -0.377838 0.857949 0.495066
v 0.378043 0.802295 0.463361
v -0.377848 0.971213 0.479448
v -0.377848 0.857949 0.479448
v 0.378003 0.802288 0.478978
v -0.380312 0.772024 0.383279
v -0.380631 0.800300 0.476994
v 0.378322 0.774013 0.385263
v 0.378318 0.759848 0.400875
v 0.378359 0.759855 0.385257
v -0.380591 0.800306 0.461377
v -0.380275 0.757866 0.383273
v 0.378040 0.788130 0.478972
v 0.378179 0.773989 0.439923
v 0.378266 0.779669 0.400883
v 0.378183 0.788154 0.424312
v 0.378207 0.771161 0.432114
v 0.378155 0.790982 0.432122
v 0.378095 0.782474 0.463353
v -0.380316 0.757860 0.398890
v -0.380594 0.786142 0.476988
v -0.380479 0.788994 0.430138
v -0.380451 0.786165 0.422328
v -0.380368 0.777681 0.398899
v -0.380427 0.769172 0.430130
v -0.380455 0.772001 0.437939
v -0.380539 0.780485 0.461369
v -0.379173 1.008462 0.496886
v -0.379173 0.895199 0.496886
v 0.379286 0.839548 0.461561
v -0.379183 1.008462 0.481268
v -0.379183 0.895199 0.481269
v 0.379245 0.839541 0.477178
v -0.379070 0.809277 0.381479
v -0.379389 0.837553 0.475194
v 0.379564 0.811266 0.383463
v 0.379561 0.797101 0.399075
v 0.379602 0.797108 0.383457
v -0.379348 0.837560 0.459577
v -0.379032 0.795119 0.381473
v 0.379282 0.825383 0.477172
v 0.379421 0.811242 0.438123
v 0.379509 0.816922 0.399083
v 0.379425 0.825407 0.422512
v 0.379449 0.808414 0.430314
v 0.379397 0.828235 0.430322
v 0.379338 0.819727 0.461553
v -0.379073 0.795113 0.397090
v -0.379352 0.823395 0.475188
v -0.379237 0.826247 0.428338
v -0.379209 0.823418 0.420528
v -0.379125 0.814934 0.397099
v -0.379185 0.806426 0.428330
v -0.379213 0.809254 0.436139
v -0.379296 0.817739 0.459569
v -0.377616 1.043246 0.495894
v -0.377616 0.929982 0.495894
v -0.377627 1.043246 0.480277
v -0.377627 0.929983 0.480277
v 0.381012 0.845035 0.479792
v 0.380953 0.873351 0.386088
v 0.380963 0.873351 0.401705
v 0.381012 0.830877 0.479792
v 0.381002 0.830877 0.464174
v 0.380953 0.859193 0.386088
v 0.380983 0.862025 0.432940
v 0.380988 0.859193 0.440748
v 0.381003 0.850698 0.464174
v 0.380983 0.842204 0.432940
v 0.380978 0.845035 0.425131
v 0.380963 0.853530 0.401705
v -0.378951 1.080495 0.497714
v -0.378951 0.967232 0.497714
v -0.378961 1.080495 0.482097
v -0.378961 0.967232 0.482097
v 0.379678 0.882284 0.481612
v 0.379618 0.910600 0.387908
v 0.379628 0.910600 0.403525
v 0.379678 0.868126 0.481612
v 0.379668 0.868126 0.465994
v 0.379618 0.896442 0.387908
v 0.379648 0.899274 0.434760
v 0.379653 0.896442 0.442569
v 0.379668 0.887947 0.465994
v 0.379648 0.879453 0.434760
v 0.379643 0.882284 0.426951
v 0.379628 0.890779 0.403525
v -0.377616 1.043246 0.495894
v -0.377616 0.929982 0.495894
v 0.377635 0.874327 0.462563
v -0.377627 1.043246 0.480277
v -0.377627 0.929983 0.480277
v 0.377595 0.874321 0.478180
v -0.380720 0.844057 0.382480
v -0.381039 0.872332 0.476196
v 0.377914 0.846045 0.384465
v 0.377910 0.831881 0.400076
v 0.377951 0.831887 0.384459
v -0.380998 0.872339 0.460578
v -0.380683 0.829899 0.382474
v 0.377632 0.860163 0.478174
v 0.377771 0.846022 0.439125
v 0.377858 0.851702 0.400084
v 0.377775 0.860186 0.423514
v 0.377799 0.843194 0.431315
v 0.377747 0.863015 0.431323
v 0.377687 0.854506 0.462554
v -0.380724 0.829892 0.398092
v -0.381002 0.858174 0.476190
v -0.380887 0.861026 0.429339
v -0.380859 0.858198 0.421529
v -0.380776 0.849713 0.398100
v -0.380835 0.841205 0.429331
v -0.380863 0.844033 0.437140
v -0.380947 0.852518 0.460570
v -0.378951 1.080495 0.497714
v -0.378951 0.967232 0.497714
v 0.378878 0.911581 0.460763
v -0.378961 1.080495 0.482097
v -0.378961 0.967232 0.482097
v 0.378837 0.911574 0.476380
v -0.379477 0.881310 0.380680
v -0.379797 0.909585 0.474396
v 0.379157 0.883298 0.382665
v 0.379153 0.869134 0.398276
v 0.379194 0.869140 0.382659
v -0.379756 0.909592 0.458778
v -0.379440 0.867152 0.380674
v 0.378874 0.897416 0.476374
v 0.379013 0.883275 0.437325
v 0.379101 0.888955 0.398284
v 0.379017 0.897439 0.421714
v 0.379041 0.880447 0.429515
v 0.378989 0.900268 0.429523
v 0.378930 0.891760 0.460754
v -0.379481 0.867145 0.396292
v -0.379760 0.895428 0.474390
v -0.379645 0.898279 0.427539
v -0.379617 0.895451 0.419729
v -0.379533 0.886966 0.396300
v -0.379593 0.878458 0.427531
v -0.379620 0.881286 0.435341
v -0.379704 0.889771 0.458770
v -0.377838 1.116994 0.495066
v -0.377838 1.003731 0.495066
v 0.377661 0.948076 0.463423
v -0.377848 1.116994 0.479448
v -0.377848 1.003731 0.479448
v 0.377620 0.948069 0.479040
v -0.380694 0.917805 0.383341
v -0.381014 0.946080 0.477056
v 0.377940 0.919793 0.385325
v 0.377936 0.905629 0.400936
v 0.377977 0.905635 0.385319
v -0.380973 0.946087 0.461439
v -0.380657 0.903647 0.383335
v 0.377657 0.933911 0.479034
v 0.377797 0.919770 0.439985
v 0.377884 0.925450 0.400944
v 0.377800 0.933934 0.424374
v 0.377824 0.916942 0.432175
v 0.377772 0.936763 0.432184
v 0.377713 0.928255 0.463414
v -0.380698 0.903640 0.398952
v -0.380977 0.931922 0.477050
v -0.380861 0.934774 0.430199
v -0.380834 0.931946 0.422390
v -0.380750 0.923461 0.398960
v -0.380810 0.914953 0.430191
v -0.380837 0.917781 0.438001
v -0.380921 0.926266 0.461430
v -0.379173 1.154243 0.496886
v -0.379173 1.040980 0.496886
v 0.378904 0.985329 0.461623
v -0.379183 1.154243 0.481268
v -0.379183 1.040980 0.481268
v 0.378863 0.985322 0.477240
v -0.379452 0.955058 0.381541
v -0.379771 0.983334 0.475256
v 0.379182 0.957046 0.383525
v 0.379178 0.942882 0.399136
v 0.379219 0.942888 0.383519
v -0.379730 0.983340 0.459639
v -0.379415 0.940900 0.381535
v 0.378900 0.971164 0.477234
v 0.379039 0.957023 0.438185
v 0.379126 0.962703 0.399144
v 0.379043 0.971188 0.422574
v 0.379067 0.954195 0.430375
v 0.379015 0.974016 0.430384
v 0.378956 0.965508 0.461614
v -0.379456 0.940893 0.397152
v -0.379734 0.969176 0.475250
v -0.379619 0.972027 0.428399
v -0.379591 0.969199 0.420590
v -0.379508 0.960714 0.397160
v -0.379567 0.952206 0.428391
v -0.379595 0.955034 0.436201
v -0.379678 0.963519 0.459630
v -0.377617 1.187655 0.495894
v -0.377617 1.074391 0.495894
v -0.377627 1.187655 0.480277
v -0.377627 1.074391 0.480277
v 0.381012 0.989444 0.479791
v 0.380953 1.017760 0.386088
v 0.380963 1.017760 0.401705
v 0.381012 0.975286 0.479791
v 0.381002 0.975286 0.464174
v 0.380953 1.003602 0.386088
v 0.380983 1.006434 0.432940
v 0.380987 1.003602 0.440748
v 0.381002 0.995107 0.464174
v 0.380983 0.986613 0.432940
v 0.380978 0.989444 0.425131
v 0.380963 0.997939 0.401705
v -0.378951 1.224904 0.497714
v -0.378951 1.111641 0.497714
v -0.378961 1.224904 0.482097
v -0.378961 1.111641 0.482097
v 0.379678 1.026693 0.481612
v 0.379618 1.055009 0.387908
v 0.379628 1.055009 0.403525
v 0.379678 1.012535 0.481612
v 0.379668 1.012535 0.465994
v 0.379618 1.040851 0.387908
v 0.379648 1.043683 0.434760
v 0.379653 1.040851 0.442569
v 0.379668 1.032356 0.465994
v 0.379648 1.023862 0.434760
v 0.379643 1.026693 0.426951
v 0.379628 1.035188 0.403525
v -0.377617 1.187655 0.495894
v -0.377617 1.074391 0.495894
v 0.377257 1.018736 0.462623
v -0.377627 1.187655 0.480277
v -0.377627 1.074391 0.480277
v 0.377216 1.018729 0.478241
v -0.381099 0.988465 0.382541
v -0.381418 1.016741 0.476257
v 0.377535 0.990454 0.384526
v 0.377531 0.976289 0.400137
v 0.377572 0.976296 0.384520
v -0.381377 1.016747 0.460639
v -0.381062 0.974307 0.382535
v 0.377253 1.004571 0.478235
v 0.377392 0.990430 0.439186
v 0.377479 0.996110 0.400145
v 0.377396 1.004595 0.423574
v 0.377420 0.987602 0.431376
v 0.377368 1.007423 0.431384
v 0.377309 0.998915 0.462615
v -0.381102 0.974301 0.398153
v -0.381381 1.002583 0.476251
v -0.381266 1.005435 0.429400
v -0.381238 1.002606 0.421590
v -0.381154 0.994122 0.398161
v -0.381214 0.985614 0.429392
v -0.381242 0.988442 0.437201
v -0.381325 0.996927 0.460631
v -0.378951 1.224904 0.497714
v -0.378951 1.111641 0.497714
v 0.378499 1.055989 0.460824
v -0.378961 1.224904 0.482097
v -0.378961 1.111641 0.482097
v 0.378458 1.055982 0.476441
v -0.379856 1.025718 0.380741
v -0.380175 1.053994 0.474457
v 0.378778 1.027707 0.382726
v 0.378774 1.013542 0.398337
v 0.378815 1.013549 0.382720
v -0.380135 1.054001 0.458839
v -0.379819 1.011560 0.380735
v 0.378496 1.041824 0.476435
v 0.378635 1.027683 0.437386
v 0.378722 1.033363 0.398345
v 0.378639 1.041848 0.421774
v 0.378663 1.024855 0.429576
v 0.378611 1.044676 0.429584
v 0.378551 1.036168 0.460815
v -0.379860 1.011554 0.396353
v -0.380138 1.039836 0.474451
v -0.380023 1.042688 0.427600
v -0.379995 1.039860 0.419790
v -0.379912 1.031375 0.396361
v -0.379971 1.022867 0.427592
v -0.379999 1.025695 0.435401
v -0.380083 1.034180 0.458831
v -0.377838 1.261403 0.495066
v -0.377838 1.148140 0.495066
v 0.377282 1.092484 0.463484
v -0.377848 1.261403 0.479448
v -0.377848 1.148140 0.479448
v 0.377242 1.092477 0.479101
v -0.381073 1.062213 0.383402
v -0.381392 1.090489 0.477117
v 0.377561 1.064202 0.385386
v 0.377557 1.050037 0.400997
v 0.377598 1.050044 0.385380
v -0.381352 1.090496 0.461500
v -0.381036 1.048055 0.383396
v 0.377279 1.078319 0.479095
v 0.377418 1.064178 0.440046
v 0.377505 1.069858 0.401005
v 0.377422 1.078343 0.424435
v 0.377446 1.061350 0.432236
v 0.377394 1.081171 0.432245
v 0.377334 1.072663 0.463475
v -0.381077 1.048049 0.399013
v -0.381355 1.076331 0.477111
v -0.381240 1.079183 0.430260
v -0.381212 1.076354 0.422451
v -0.381129 1.067870 0.399021
v -0.381188 1.059362 0.430252
v -0.381216 1.062190 0.438062
v -0.381300 1.070675 0.461491
v -0.379173 1.298652 0.496886
v -0.379173 1.185389 0.496886
v 0.378525 1.129737 0.461684
v -0.379183 1.298652 0.481268
v -0.379183 1.185389 0.481268
v 0.378484 1.129730 0.477301
v -0.379831 1.099466 0.381602
v -0.380150 1.127742 0.475317
v 0.378803 1.101455 0.383586
v 0.378800 1.087290 0.399197
v 0.378841 1.087297 0.383580
v -0.380109 1.127749 0.459700
v -0.379793 1.085309 0.381596
v 0.378521 1.115573 0.477295
v 0.378660 1.101431 0.438246
v 0.378748 1.107111 0.399205
v 0.378664 1.115596 0.422635
v 0.378688 1.098603 0.430436
v 0.378636 1.118424 0.430445
v 0.378577 1.109916 0.461675
v -0.379834 1.085302 0.397213
v -0.380113 1.113584 0.475311
v -0.379998 1.116436 0.428460
v -0.379970 1.113608 0.420651
v -0.379886 1.105123 0.397221
v -0.379946 1.096615 0.428452
v -0.379974 1.099443 0.436262
v -0.380057 1.107928 0.459691
v -0.377617 1.333436 0.495894
v -0.377617 1.220173 0.495894
v -0.377627 1.333436 0.480277
v -0.377627 1.220173 0.480277
v 0.381012 1.135225 0.479791
v 0.380953 1.163541 0.386088
v 0.380963 1.163541 0.401705
v 0.381012 1.121067 0.479791
v 0.381002 1.121067 0.464174
v 0.380953 1.149383 0.386088
v 0.380983 1.152215 0.432940
v 0.380987 1.149383 0.440748
v 0.381002 1.140888 0.464174
v 0.380983 1.132394 0.432940
v 0.380978 1.135225 0.425131
v 0.380963 1.143720 0.401705
v -0.378951 1.370685 0.497714
v -0.378951 1.257422 0.497714
v -0.378961 1.370685 0.482097
v -0.378961 1.257422 0.482097
v 0.379678 1.172474 0.481612
v 0.379618 1.200790 0.387908
v 0.379628 1.200790 0.403525
v 0.379678 1.158316 0.481612
v 0.379668 1.158316 0.465994
v 0.379618 1.186632 0.387908
v 0.379648 1.189464 0.434760
v 0.379653 1.186632 0.442569
v 0.379668 1.178138 0.465994
v 0.379648 1.169643 0.434760
v 0.379643 1.172474 0.426951
v 0.379628 1.180969 0.403525
v -0.377617 1.333436 0.495894
v -0.377617 1.220173 0.495894
v 0.376874 1.164517 0.462685
v -0.377627 1.333436 0.480277
v -0.377627 1.220173 0.480277
v 0.376834 1.164510 0.478302
v -0.381481 1.134246 0.382603
v -0.381800 1.162521 0.476318
v 0.377153 1.136234 0.384587
v 0.377149 1.122070 0.400198
v 0.377190 1.122076 0.384581
v -0.381759 1.162528 0.460701
v -0.381444 1.120088 0.382597
v 0.376871 1.150352 0.478296
v 0.377010 1.136211 0.439247
v 0.377097 1.141891 0.400207
v 0.377014 1.150375 0.423636
v 0.377038 1.133383 0.431437
v 0.376986 1.153204 0.431446
v 0.376926 1.144696 0.462677
v -0.381485 1.120081 0.398214
v -0.381763 1.148363 0.476312
v -0.381648 1.151215 0.429462
v -0.381620 1.148387 0.421652
v -0.381537 1.139902 0.398223
v -0.381596 1.131394 0.429453
v -0.381624 1.134222 0.437263
v -0.381708 1.142707 0.460692
v -0.378951 1.370685 0.497714
v -0.378951 1.257422 0.497714
v 0.378117 1.201770 0.460885
v -0.378961 1.370685 0.482097
v -0.378961 1.257422 0.482097
v 0.378076 1.201763 0.476502
v -0.380238 1.171499 0.380803
v -0.380558 1.199775 0.474518
v 0.378395 1.173488 0.382787
v 0.378392 1.159323 0.398398
v 0.378433 1.159330 0.382781
v -0.380517 1.199781 0.458901
v -0.380201 1.157341 0.380797
v 0.378113 1.187605 0.476496
v 0.378252 1.173464 0.437447
v 0.378340 1.179144 0.398407
v 0.378256 1.187629 0.421836
v 0.378280 1.170636 0.429637
v 0.378228 1.190457 0.429646
v 0.378169 1.181949 0.460877
v -0.380242 1.157334 0.396414
v -0.380521 1.185617 0.474512
v -0.380406 1.188468 0.427662
v -0.380378 1.185640 0.419852
v -0.380294 1.177155 0.396422
v -0.380354 1.168647 0.427653
v -0.380381 1.171476 0.435463
v -0.380465 1.179960 0.458892
v -0.377838 1.407184 0.495066
v -0.377838 1.293921 0.495066
v 0.376900 1.238265 0.463545
v -0.377848 1.407184 0.479448
v -0.377848 1.293921 0.479448
v 0.376859 1.238258 0.479162
v -0.381455 1.207994 0.383463
v -0.381775 1.236269 0.477178
v 0.377179 1.209983 0.385447
v 0.377175 1.195818 0.401059
v 0.377216 1.195825 0.385441
v -0.381734 1.236276 0.461561
v -0.381418 1.193836 0.383457
v 0.376896 1.224100 0.479156
v 0.377036 1.209959 0.440107
v 0.377123 1.215639 0.401067
v 0.377039 1.224124 0.424496
v 0.377063 1.207131 0.432298
v 0.377011 1.226952 0.432306
v 0.376952 1.218444 0.463537
v -0.381459 1.193829 0.399074
v -0.381738 1.222112 0.477172
v -0.381622 1.224963 0.430322
v -0.381595 1.222135 0.422512
v -0.381511 1.213650 0.399083
v -0.381570 1.205142 0.430314
v -0.381598 1.207970 0.438123
v -0.381682 1.216455 0.461553
v -0.379173 1.444433 0.496886
v -0.379173 1.331170 0.496886
v 0.378143 1.275518 0.461745
v -0.379183 1.444433 0.481269
v -0.379183 1.331170 0.481268
v 0.378102 1.275511 0.477362
v -0.380213 1.245247 0.381663
v -0.380532 1.273523 0.475378
v 0.378421 1.247236 0.383647
v 0.378417 1.233071 0.399258
v 0.378458 1.233078 0.383641
v -0.380491 1.273529 0.459761
v -0.380176 1.231089 0.381657
v 0.378139 1.261353 0.477357
v 0.378278 1.247212 0.438307
v 0.378365 1.252892 0.399267
v 0.378282 1.261377 0.422696
v 0.378306 1.244384 0.430498
v 0.378254 1.264205 0.430506
v 0.378195 1.255697 0.461737
v -0.380217 1.231082 0.397274
v -0.380495 1.259365 0.475372
v -0.380380 1.262216 0.428522
v -0.380352 1.259388 0.420712
v -0.380269 1.250904 0.397283
v -0.380328 1.242396 0.428514
v -0.380356 1.245224 0.436323
v -0.380439 1.253708 0.459753
v 0.385781 1.314842 0.461913
v 0.385740 1.314835 0.477530
v -0.372575 1.284571 0.381831
v -0.372894 1.312847 0.475546
v 0.386059 1.286560 0.383815
v 0.386056 1.272395 0.399426
v 0.386097 1.272402 0.383809
v -0.372853 1.312854 0.459929
v -0.372537 1.270413 0.381825
v 0.385777 1.300677 0.477524
v 0.385916 1.286536 0.438475
v 0.386004 1.292216 0.399435
v 0.385920 1.300701 0.422864
v 0.385944 1.283708 0.430665
v 0.385892 1.303529 0.430674
v 0.385833 1.295021 0.461905
v -0.372578 1.270407 0.397442
v -0.372857 1.298689 0.475540
v -0.372742 1.301541 0.428690
v -0.372714 1.298712 0.420880
v -0.372630 1.290228 0.397450
v -0.372690 1.281720 0.428681
v -0.372718 1.284548 0.436491
v -0.372801 1.293033 0.459920
v 0.387023 1.352095 0.460113
v 0.386983 1.352088 0.475730
v -0.371332 1.321824 0.380031
v -0.371651 1.350100 0.473746
v 0.387302 1.323813 0.382015
v 0.387298 1.309648 0.397626
v 0.387339 1.309655 0.382009
v -0.371610 1.350107 0.458129
v -0.371295 1.307667 0.380025
v 0.387020 1.337931 0.475724
v 0.387159 1.323789 0.436675
v 0.387246 1.329469 0.397635
v 0.387163 1.337954 0.421064
v 0.387187 1.320961 0.428865
v 0.387135 1.340782 0.428874
v 0.387075 1.332274 0.460105
v -0.371336 1.307660 0.395642
v -0.371614 1.335942 0.473740
v -0.371499 1.338794 0.426890
v -0.371471 1.335966 0.419080
v -0.371388 1.327481 0.395651
v -0.371447 1.318973 0.426881
v -0.371475 1.321801 0.434691
v -0.371559 1.330286 0.458120
v 0.432665 0.221246 0.519706
v 0.432665 0.221246 0.519566
v 0.280313 0.221246 0.519803
v 0.280313 0.221246 0.519663
v 0.432665 0.260450 0.519706
v 0.432665 0.260450 0.519566
v 0.280313 0.260450 0.519803
v 0.280313 0.260450 0.519663
v 0.280310 0.221246 0.530705
v 0.432662 0.221246 0.530607
v 0.432661 0.221246 0.530468
v 0.280310 0.221246 0.530565
v 0.280310 0.260450 0.530705
v 0.280310 0.260450 0.530565
v 0.432662 0.260450 0.530607
v 0.432661 0.260450 0.530468
v 0.280310 0.221246 0.529847
v 0.432662 0.221246 0.529750
v 0.432671 0.221246 0.496023
v 0.280310 0.221246 0.529708
v 0.280310 0.260450 0.529847
v 0.280310 0.260450 0.529708
v 0.432662 0.260450 0.529750
v 0.432671 0.260450 0.496023
v 0.244679 0.221246 0.564572
v 0.397031 0.221246 0.564475
v 0.244679 0.260450 0.564572
v 0.397031 0.260450 0.564475
v 0.432662 0.221246 0.530607
v 0.432662 0.260450 0.530607
v 0.397031 0.221246 0.564475
v 0.397031 0.260450 0.564475
v 0.356486 0.221246 0.529799
v 0.356486 0.221246 0.529659
v 0.356486 0.260450 0.529799
v 0.356486 0.260450 0.529659
v 0.394574 0.221246 0.529774
v 0.394583 0.260450 0.496048
v 0.394583 0.221246 0.496048
v 0.394574 0.260450 0.529774
v 0.280365 0.260442 0.333254
v 0.432716 0.260442 0.333436
v 0.432716 0.260441 0.333576
v 0.280364 0.260442 0.333394
v 0.280365 0.221238 0.333068
v 0.280364 0.221238 0.333208
v 0.432716 0.221238 0.333250
v 0.432716 0.221237 0.333389
v 0.280364 0.260438 0.334112
v 0.432716 0.260438 0.334294
v 0.432707 0.260277 0.368020
v 0.280364 0.260438 0.334251
v 0.280364 0.221234 0.333925
v 0.280364 0.221234 0.334065
v 0.432716 0.221234 0.334107
v 0.432707 0.221073 0.367834
v 0.244753 0.260604 0.299368
v 0.397105 0.260603 0.299550
v 0.244753 0.221399 0.299181
v 0.397105 0.221399 0.299363
v 0.432716 0.260442 0.333436
v 0.432716 0.221238 0.333250
v 0.397105 0.260603 0.299550
v 0.397105 0.221399 0.299363
v 0.356540 0.260438 0.334203
v 0.356540 0.260437 0.334342
v 0.356540 0.221234 0.334016
v 0.356540 0.221233 0.334156
v 0.394628 0.260438 0.334248
v 0.394619 0.221073 0.367788
v 0.394619 0.260278 0.367974
v 0.394628 0.221234 0.334062
vn -0.000000 -1.000000 0.000000
vn -0.000600 -0.000000 -1.000000
vn 0.000600 -0.000000 1.000000
vn -0.000000 1.000000 0.000000
vn 1.000000 -0.000000 -0.000600
vn -1.000000 -0.000000 0.000600
vn 0.748000 -0.653600 -0.115300
vn 0.904400 0.301500 -0.302000
vn 0.748200 0.653500 0.114300
vn 0.904700 -0.301500 0.300900
vn 0.861800 0.291500 0.415200
vn 0.707100 0.664900 0.240600
vn 0.707100 0.664900 0.240700
vn 0.861200 -0.291500 -0.416300
vn 0.707200 0.664800 0.240700
vn 0.670200 0.731100 0.128000
vn 0.576900 0.577300 -0.577800
vn 0.597500 -0.460100 -0.656800
vn 0.706800 -0.664900 -0.241700
vn 0.706800 -0.664900 -0.241500
vn 0.669900 -0.731200 -0.128900
vn 0.577700 -0.577300 0.577000
vn 0.598300 0.460100 0.656000
vn 0.707000 0.664900 0.240700
vn 0.706800 -0.664900 -0.241600
vn 0.670100 0.731200 0.128100
vn 0.577000 0.577300 -0.577800
vn 0.706900 -0.664800 -0.241500
vn 0.669900 -0.731100 -0.128900
vn -0.001600 0.940200 -0.340500
vn -0.002100 0.985000 -0.172600
vn -0.671700 0.729300 -0.129900
vn -0.708200 0.663000 -0.242600
vn 0.001600 -0.940200 0.340500
vn -0.706000 -0.666700 0.238900
vn -0.580400 0.575600 0.576100
vn -0.598400 -0.462000 0.654600
vn -0.668600 -0.732800 0.126400
vn -0.574300 -0.578600 -0.579100
vn -0.597400 0.458900 -0.657700
vn -0.000600 -0.574400 0.818600
vn 0.002100 -0.985000 0.172600
vn 0.003700 -0.706800 -0.707400
vn -0.003700 0.706800 0.707400
vn 0.000600 0.574400 -0.818600
vn -0.705900 -0.666800 0.238900
vn -0.705900 -0.666700 0.238900
vn 0.670100 0.731100 0.128100
vn 0.597400 -0.460100 -0.656800
vn 0.707000 0.665000 0.240600
vn 0.706700 -0.665000 -0.241600
vn 0.707000 0.665000 0.240700
vn 0.706900 -0.664800 -0.241600
vn 0.670000 -0.731100 -0.128900
vn 0.002100 -0.985000 0.172700
vn -0.002100 0.985000 -0.172700
vn -0.000000 1.000000 0.000200
vn -1.000000 -0.000000 0.000400
vn -0.000000 1.000000 -0.000200
vn 1.000000 -0.000000 -0.000500
vn -1.000000 -0.000000 0.000500
vn 1.000000 -0.000000 0.000300
vn -0.000000 -0.000000 -1.000000
vn 0.688900 -0.000000 0.724800
vn -0.688900 -0.000000 -0.724800
vn -0.000000 1.000000 -0.000100
vn -0.661600 -0.000000 -0.749900
vn -0.000000 -1.000000 -0.004700
vn 1.000000 -0.000000 0.001100
vn -0.000000 1.000000 0.004700
vn -1.000000 -0.000000 -0.001100
vn -0.000000 -1.000000 -0.004800
vn 0.001200 0.004800 -1.000000
vn -0.001200 -0.004800 1.000000
vn -0.000000 1.000000 0.004800
vn 0.689300 0.003400 -0.724400
vn -0.689300 -0.003400 0.724400
vn -0.000000 -1.000000 -0.005000
vn -0.662000 -0.003600 0.749500
vt 0.820288 0.312500
vt 0.828100 0.312500
vt 0.828100 0.687500
vt 0.820287 0.687500
vt 0.078100 0.062500
vt 0.078100 0.000000
vt 0.578100 0.000000
vt 0.578100 0.062500
vt 0.515600 0.937500
vt 0.515600 0.062500
vt 0.578100 0.937500
vt 0.139370 0.432578
vt 0.140600 0.062500
vt 0.514370 0.432578
vt 0.140600 0.937500
vt 0.078100 0.937500
vt 0.578100 1.000000
vt 0.078100 1.000000
vt 0.515600 0.434570
vt 0.140600 0.434570
vt 0.765600 0.250000
vt 0.828100 0.250000
vt 0.828100 0.750000
vt 0.765600 0.750000
vt 0.734400 0.250000
vt 0.734400 0.750000
vt 0.671900 0.750000
vt 0.671900 0.250000
vt 0.640600 0.000000
vt 0.640600 1.000000
vt 0.015600 1.000000
vt 0.015600 0.000000
vt 0.585912 0.444582
vt 0.578100 0.444582
vt 0.578100 0.437500
vt 0.585912 0.437500
vt 0.023412 0.937500
vt 0.015600 0.937500
vt 0.015600 0.437500
vt 0.023412 0.437500
vt 0.734400 0.312500
vt 0.734400 0.687500
vt 0.671900 0.687500
vt 0.671900 0.312500
vt 0.585912 0.937500
vt 0.578100 0.664126
vt 0.585913 0.664126
vt 0.624975 0.937500
vt 0.609350 0.937500
vt 0.609350 0.664126
vt 0.624975 0.664126
vt 0.624975 0.437500
vt 0.609350 0.437500
vt 0.624975 0.437500
vt 0.062475 0.937500
vt 0.046850 0.937500
vt 0.046850 0.437500
vt 0.062475 0.437500
vt 0.624975 0.444582
vt 0.609350 0.444582
vt 0.781225 0.312500
vt 0.796850 0.312500
vt 0.796850 0.687500
vt 0.781225 0.687500
vt 0.609350 0.550813
vt 0.624975 0.550813
vt 0.578100 0.550813
vt 0.585913 0.550813
vt 0.609350 0.494156
vt 0.624975 0.494156
vt 0.578100 0.494156
vt 0.585912 0.494157
vt 0.609350 0.465828
vt 0.624975 0.465828
vt 0.578100 0.465828
vt 0.585912 0.465828
vt 0.593725 0.494157
vt 0.593725 0.465828
vt 0.593725 0.550813
vt 0.593725 0.664126
vt 0.773412 0.312500
vt 0.773413 0.687500
vt 0.070287 0.937500
vt 0.070287 0.437500
vt 0.593725 0.937500
vt 0.593725 0.437500
vt 0.593725 0.444582
vt 0.632787 0.494156
vt 0.632787 0.465828
vt 0.632787 0.550813
vt 0.632788 0.664126
vt 0.632787 0.444582
vt 0.632787 0.437500
vt 0.632787 0.937500
vt 0.031225 0.937500
vt 0.031225 0.437500
vt 0.812475 0.312500
vt 0.812475 0.687500
vt 0.640600 0.937500
vt 0.640600 0.664126
vt 0.640600 0.437500
vt 0.640600 0.444582
vt 0.640600 0.550813
vt 0.957242 0.252128
vt 0.940518 0.252128
vt 0.940518 0.130843
vt 0.957242 0.130843
vt 0.640600 0.494156
vt 0.640600 0.465828
vt 0.078100 0.437500
vt 0.765600 0.312500
vt 0.765600 0.687500
vt 0.640600 0.458746
vt 0.632787 0.458746
vt 0.632787 0.451664
vt 0.640600 0.451664
vt 0.624975 0.458746
vt 0.624975 0.454497
vt 0.613256 0.458746
vt 0.585912 0.458746
vt 0.578100 0.458746
vt 0.578100 0.451664
vt 0.585912 0.451664
vt 0.593725 0.451664
vt 0.890345 0.058072
vt 0.856896 0.070200
vt 0.840172 0.070200
vt 0.840172 0.055040
vt 0.856896 0.048975
vt 0.881983 0.039879
vt 0.890345 0.036847
vt 0.923794 0.024718
vt 0.940518 0.024718
vt 0.940518 0.039879
vt 0.923794 0.045943
vt 0.898707 0.055040
vt 0.609350 0.460163
vt 0.609350 0.450248
vt 0.605444 0.451664
vt 0.593725 0.455913
vt 0.375000 0.000000
vt 0.375000 0.250000
vt 0.625000 0.250000
vt 0.625000 0.000000
vt 0.375000 0.500000
vt 0.625000 0.500000
vt 0.375000 0.750000
vt 0.625000 0.750000
vt 0.375000 1.000000
vt 0.625000 1.000000
vt 0.125000 0.500000
vt 0.125000 0.750000
vt 0.875000 0.750000
vt 0.875000 0.500000
vt 0.771218 0.772815
vt 0.771218 0.820966
vt 0.819370 0.820966
vt 0.819370 0.772815
vt 0.771218 0.869117
vt 0.819370 0.869117
vt 0.771218 0.917269
vt 0.819370 0.917269
vt 0.771218 0.965420
vt 0.819370 0.965420
vt 0.867521 0.917269
vt 0.867521 0.869117
vt 0.771218 0.796890
vt 0.819370 0.796890
vt 0.771218 0.905231
vt 0.819370 0.905231
vt 0.723067 0.905231
vt 0.723067 0.917269
vt 0.867521 0.905231
vt 0.723067 0.869117
vt 0.867521 0.893193
vt 0.819370 0.893193
vt 0.771218 0.893193
vt 0.723067 0.893193
vt 0.771218 0.784852
vt 0.819370 0.784852
s 1
f 70/1/1 78/4/1 3/3/1 2/2/1
f 5/5/2 8/8/2 7/7/2 6/6/2
f 4/9/2 10/11/2 8/8/2 9/10/2
f 11/12/2 13/14/2 9/10/2 12/13/2
f 5/5/2 14/16/2 1/15/2 12/13/2
f 14/16/2 16/18/2 15/17/2 10/11/2
f 17/8/3 20/5/3 19/6/3 18/7/3
f 17/8/3 22/11/3 3/9/3 21/10/3
f 22/11/3 25/17/3 24/18/3 23/16/3
f 2/15/3 23/16/3 20/5/3 26/13/3
f 27/19/3 28/20/3 26/13/3 21/10/3
f 6/21/1 7/24/1 18/23/1 19/22/1
f 16/25/4 24/28/4 25/27/4 15/26/4
f 15/17/5 25/30/5 18/29/5 7/7/5
f 6/6/6 19/32/6 24/31/6 16/18/6
f 101/33/5 81/36/5 11/35/5 96/34/5
f 78/37/6 72/40/6 27/39/6 3/38/6
f 33/41/4 31/44/4 32/43/4 34/42/4
f 81/36/4 83/36/4 30/35/4 11/35/4
f 80/45/5 84/47/5 36/46/5 1/11/5
f 61/48/5 65/51/5 42/50/5 37/49/5
f 62/52/4 64/54/4 41/53/4 39/53/4
f 52/55/6 55/58/6 40/57/6 38/56/6
f 99/59/7 62/52/5 39/53/5 97/60/5
f 53/61/1 52/64/1 38/63/1 37/62/1
f 65/51/5 67/66/5 45/65/5 42/50/5
f 84/47/5 85/68/5 44/67/5 36/46/5
f 67/66/5 68/70/5 48/69/5 45/65/5
f 85/68/5 86/72/5 47/71/5 44/67/5
f 68/70/5 69/74/5 51/73/5 48/69/5
f 86/72/5 87/76/8 50/75/5 47/71/5
f 48/69/5 51/73/5 60/78/9 59/77/5
f 45/65/5 48/69/5 59/77/5 58/79/5
f 42/50/5 45/65/5 58/79/5 57/80/5
f 80/81/1 79/82/1 52/64/1 53/61/1
f 79/83/6 82/84/6 55/58/6 52/55/6
f 37/49/5 42/50/5 57/80/5 53/85/5
f 39/53/4 41/53/4 56/86/4 54/86/4
f 97/60/5 39/53/5 54/86/5 98/87/5
f 76/88/5 77/89/5 69/74/5 68/70/5
f 75/90/5 76/88/5 68/70/5 67/66/5
f 74/91/5 75/90/5 67/66/5 65/51/5
f 100/92/10 71/93/5 62/52/5 99/59/7
f 71/93/4 73/93/4 64/54/4 62/52/4
f 70/94/5 74/91/5 65/51/5 61/48/5
f 38/56/6 40/57/6 63/96/6 66/95/6
f 37/62/1 38/63/1 66/98/1 61/97/1
f 2/99/5 35/100/5 74/91/5 70/94/5
f 28/101/4 29/101/4 73/93/4 71/93/4
f 95/102/5 28/101/5 71/93/5 100/92/10
f 35/100/5 43/103/5 75/90/5 74/91/5
f 43/104/5 46/107/5 76/106/5 75/105/5
f 46/108/5 49/109/5 77/89/5 76/88/5
f 66/95/6 63/96/6 72/40/6 78/37/6
f 61/97/1 66/98/1 78/4/1 70/1/1
f 4/16/6 13/110/6 82/84/6 79/83/6
f 1/111/1 4/112/1 79/82/1 80/81/1
f 59/77/5 60/78/9 87/76/8 86/72/5
f 58/79/5 59/77/5 86/72/5 85/68/5
f 57/80/5 58/79/5 85/68/5 84/47/5
f 53/85/5 57/80/5 84/47/5 80/45/5
f 54/86/4 56/86/4 83/36/4 81/36/4
f 98/87/5 54/86/5 81/36/5 101/33/5
f 102/113/5 88/116/5 93/115/11 107/114/5
f 107/114/5 93/115/11 110/118/12 106/117/5
f 106/117/5 110/118/12 111/119/13
f 108/120/14 94/123/5 89/122/5 103/121/5
f 91/124/5 98/87/5 101/33/5 94/123/5
f 88/116/5 95/102/5 100/92/10 93/115/11
f 117/125/15 118/136/24 119/135/13 90/134/23 105/133/22 115/132/21 120/131/20 121/130/20 122/129/19 116/128/18 92/127/17 104/126/16
f 94/123/5 101/33/5 96/34/5 89/122/5
f 87/76/8 108/120/14 103/121/5 50/75/5
f 69/74/5 106/117/5 111/119/13 113/137/13 51/73/5
f 51/73/5 113/137/13 60/78/9
f 77/89/5 107/114/5 106/117/5 69/74/5
f 49/109/5 102/113/5 107/114/5 77/89/5
f 112/138/25 97/60/5 98/87/5 91/124/5 109/139/25
f 109/139/25 91/124/5 114/140/20
f 114/140/20 91/124/5 94/123/5 108/120/14
f 99/59/7 97/60/5 112/138/25
f 123/104/5 124/107/5 126/106/5 125/105/5
f 133/125/13 134/136/24 135/135/13 127/134/23 130/133/22 131/132/29 136/131/28 137/130/20 138/129/19 132/128/18 128/127/27 129/126/26
f 139/104/5 140/107/5 143/106/5 142/105/5
f 157/125/30 161/125/33 150/126/32 141/126/31
f 158/129/34 166/129/35 165/130/35 153/130/34
f 161/125/33 162/136/33 163/135/33 145/134/40 151/133/39 159/132/38 164/131/35 165/130/35 166/129/35 160/128/37 146/127/36 150/126/32
f 152/128/41 160/128/37 166/129/35 158/129/34
f 148/132/42 159/132/38 151/133/39 149/133/43
f 156/131/34 164/131/35 159/132/38 148/132/42
f 141/126/31 150/126/32 146/127/36 144/127/44
f 144/127/44 146/127/36 160/128/37 152/128/41
f 147/134/45 145/134/40 163/135/33 154/135/30
f 153/130/34 165/130/35 164/131/35 156/131/34
f 155/136/30 162/136/33 161/125/33 157/125/30
f 154/135/30 163/135/33 162/136/33 155/136/30
f 149/133/43 151/133/39 145/134/40 147/134/45
f 167/104/5 168/107/5 171/106/5 170/105/5
f 185/125/30 189/125/33 178/126/32 169/126/31
f 186/129/34 194/129/35 193/130/35 181/130/34
f 189/125/33 190/136/33 191/135/33 173/134/40 179/133/39 187/132/38 192/131/35 193/130/35 194/129/35 188/128/37 174/127/36 178/126/32
f 180/128/41 188/128/37 194/129/35 186/129/34
f 176/132/42 187/132/38 179/133/39 177/133/43
f 184/131/34 192/131/35 187/132/38 176/132/42
f 169/126/31 178/126/32 174/127/36 172/127/44
f 172/127/44 174/127/36 188/128/37 180/128/41
f 175/134/45 173/134/40 191/135/33 182/135/30
f 181/130/34 193/130/35 192/131/35 184/131/34
f 183/136/30 190/136/33 189/125/33 185/125/30
f 182/135/30 191/135/33 190/136/33 183/136/30
f 177/133/43 179/133/39 173/134/40 175/134/45
f 195/104/5 196/107/5 199/106/5 198/105/5
f 213/125/30 217/125/33 206/126/32 197/126/31
f 214/129/34 222/129/35 221/130/35 209/130/34
f 217/125/33 218/136/33 219/135/33 201/134/40 207/133/39 215/132/38 220/131/35 221/130/35 222/129/35 216/128/37 202/127/36 206/126/32
f 208/128/41 216/128/37 222/129/35 214/129/34
f 204/132/42 215/132/38 207/133/39 205/133/43
f 212/131/34 220/131/35 215/132/38 204/132/42
f 197/126/31 206/126/32 202/127/36 200/127/44
f 200/127/44 202/127/36 216/128/37 208/128/41
f 203/134/45 201/134/40 219/135/33 210/135/30
f 209/130/34 221/130/35 220/131/35 212/131/34
f 211/136/30 218/136/33 217/125/33 213/125/30
f 210/135/30 219/135/33 218/136/33 211/136/30
f 205/133/43 207/133/39 201/134/40 203/134/45
f 223/104/5 224/107/5 227/106/5 226/105/5
f 241/125/30 245/125/33 234/126/32 225/126/31
f 242/129/34 250/129/46 249/130/35 237/130/34
f 245/125/33 246/136/33 247/135/33 229/134/40 235/133/39 243/132/38 248/131/35 249/130/35 250/129/46 244/128/37 230/127/36 234/126/32
f 236/128/41 244/128/37 250/129/46 242/129/34
f 232/132/42 243/132/38 235/133/39 233/133/43
f 240/131/34 248/131/35 243/132/38 232/132/42
f 225/126/31 234/126/32 230/127/36 228/127/44
f 228/127/44 230/127/36 244/128/37 236/128/41
f 231/134/45 229/134/40 247/135/33 238/135/30
f 237/130/34 249/130/35 248/131/35 240/131/34
f 239/136/30 246/136/33 245/125/33 241/125/30
f 238/135/30 247/135/33 246/136/33 239/136/30
f 233/133/43 235/133/39 229/134/40 231/134/45
f 251/104/5 252/107/5 254/106/5 253/105/5
f 260/125/5 259/136/5 258/135/5 266/134/5 263/133/5 262/132/5 257/131/5 256/130/5 255/129/5 261/128/5 265/127/5 264/126/5
f 267/104/5 268/107/5 270/106/5 269/105/5
f 271/104/5 272/107/5 275/106/5 274/105/5
f 289/125/30 293/125/33 282/126/32 273/126/31
f 290/129/34 298/129/35 297/130/35 285/130/34
f 293/125/33 294/136/33 295/135/33 277/134/40 283/133/39 291/132/38 296/131/35 297/130/35 298/129/35 292/128/37 278/127/36 282/126/32
f 284/128/41 292/128/37 298/129/35 290/129/34
f 280/132/42 291/132/38 283/133/39 281/133/43
f 288/131/34 296/131/35 291/132/38 280/132/42
f 273/126/31 282/126/32 278/127/36 276/127/44
f 276/127/44 278/127/36 292/128/37 284/128/41
f 279/134/45 277/134/40 295/135/33 286/135/30
f 285/130/34 297/130/35 296/131/35 288/131/34
f 287/136/30 294/136/33 293/125/33 289/125/30
f 286/135/30 295/135/33 294/136/33 287/136/30
f 281/133/43 283/133/39 277/134/40 279/134/45
f 299/104/5 300/107/5 303/106/5 302/105/5
f 317/125/30 321/125/33 310/126/32 301/126/31
f 318/129/34 326/129/35 325/130/35 313/130/34
f 321/125/33 322/136/33 323/135/33 305/134/40 311/133/39 319/132/38 324/131/35 325/130/35 326/129/35 320/128/37 306/127/36 310/126/32
f 312/128/41 320/128/37 326/129/35 318/129/34
f 308/132/42 319/132/38 311/133/39 309/133/43
f 316/131/34 324/131/35 319/132/38 308/132/42
f 301/126/31 310/126/32 306/127/36 304/127/44
f 304/127/44 306/127/36 320/128/37 312/128/41
f 307/134/45 305/134/40 323/135/33 314/135/30
f 313/130/34 325/130/35 324/131/35 316/131/34
f 315/136/30 322/136/33 321/125/33 317/125/30
f 314/135/30 323/135/33 322/136/33 315/136/30
f 309/133/43 311/133/39 305/134/40 307/134/45
f 327/104/5 328/107/5 331/106/5 330/105/5
f 345/125/30 349/125/33 338/126/32 329/126/31
f 346/129/34 354/129/47 353/130/47 341/130/34
f 349/125/33 350/136/33 351/135/33 333/134/40 339/133/39 347/132/38 352/131/35 353/130/47 354/129/47 348/128/37 334/127/36 338/126/32
f 340/128/41 348/128/37 354/129/47 346/129/34
f 336/132/42 347/132/38 339/133/39 337/133/43
f 344/131/34 352/131/35 347/132/38 336/132/42
f 329/126/31 338/126/32 334/127/36 332/127/44
f 332/127/44 334/127/36 348/128/37 340/128/41
f 335/134/45 333/134/40 351/135/33 342/135/30
f 341/130/34 353/130/47 352/131/35 344/131/34
f 343/136/30 350/136/33 349/125/33 345/125/30
f 342/135/30 351/135/33 350/136/33 343/136/30
f 337/133/43 339/133/39 333/134/40 335/134/45
f 355/104/5 356/107/5 359/106/5 358/105/5
f 373/125/30 377/125/33 366/126/32 357/126/31
f 374/129/34 382/129/35 381/130/35 369/130/34
f 377/125/33 378/136/33 379/135/33 361/134/40 367/133/39 375/132/38 380/131/35 381/130/35 382/129/35 376/128/37 362/127/36 366/126/32
f 368/128/41 376/128/37 382/129/35 374/129/34
f 364/132/42 375/132/38 367/133/39 365/133/43
f 372/131/34 380/131/35 375/132/38 364/132/42
f 357/126/31 366/126/32 362/127/36 360/127/44
f 360/127/44 362/127/36 376/128/37 368/128/41
f 363/134/45 361/134/40 379/135/33 370/135/30
f 369/130/34 381/130/35 380/131/35 372/131/34
f 371/136/30 378/136/33 377/125/33 373/125/30
f 370/135/30 379/135/33 378/136/33 371/136/30
f 365/133/43 367/133/39 361/134/40 363/134/45
f 383/104/5 384/107/5 386/106/5 385/105/5
f 393/125/15 394/136/12 395/135/24 387/134/23 390/133/22 391/132/21 396/131/25 397/130/20 398/129/20 392/128/49 388/127/17 389/126/48
f 399/104/5 400/107/5 402/106/5 401/105/5
f 409/125/13 410/136/12 411/135/24 403/134/23 406/133/22 407/132/21 412/131/25 413/130/25 414/129/20 408/128/18 404/127/27 405/126/26
f 415/104/5 416/107/5 419/106/5 418/105/5
f 433/125/30 437/125/33 426/126/32 417/126/31
f 434/129/34 442/129/46 441/130/35 429/130/34
f 437/125/33 438/136/33 439/135/33 421/134/40 427/133/39 435/132/38 440/131/47 441/130/35 442/129/46 436/128/37 422/127/36 426/126/32
f 428/128/41 436/128/37 442/129/46 434/129/34
f 424/132/42 435/132/38 427/133/39 425/133/43
f 432/131/34 440/131/47 435/132/38 424/132/42
f 417/126/31 426/126/32 422/127/36 420/127/44
f 420/127/44 422/127/36 436/128/37 428/128/41
f 423/134/45 421/134/40 439/135/33 430/135/30
f 429/130/34 441/130/35 440/131/47 432/131/34
f 431/136/30 438/136/33 437/125/33 433/125/30
f 430/135/30 439/135/33 438/136/33 431/136/30
f 425/133/43 427/133/39 421/134/40 423/134/45
f 443/104/5 444/107/5 447/106/5 446/105/5
f 461/125/30 465/125/33 454/126/32 445/126/31
f 462/129/34 470/129/35 469/130/35 457/130/34
f 465/125/33 466/136/33 467/135/33 449/134/40 455/133/39 463/132/38 468/131/35 469/130/35 470/129/35 464/128/37 450/127/36 454/126/32
f 456/128/41 464/128/37 470/129/35 462/129/34
f 452/132/42 463/132/38 455/133/39 453/133/43
f 460/131/34 468/131/35 463/132/38 452/132/42
f 445/126/31 454/126/32 450/127/36 448/127/44
f 448/127/44 450/127/36 464/128/37 456/128/41
f 451/134/45 449/134/40 467/135/33 458/135/30
f 457/130/34 469/130/35 468/131/35 460/131/34
f 459/136/30 466/136/33 465/125/33 461/125/30
f 458/135/30 467/135/33 466/136/33 459/136/30
f 453/133/43 455/133/39 449/134/40 451/134/45
f 471/104/5 472/107/5 475/106/5 474/105/5
f 489/125/30 493/125/33 482/126/32 473/126/31
f 490/129/34 498/129/35 497/130/35 485/130/34
f 493/125/33 494/136/33 495/135/33 477/134/40 483/133/39 491/132/38 496/131/35 497/130/35 498/129/35 492/128/37 478/127/36 482/126/32
f 484/128/41 492/128/37 498/129/35 490/129/34
f 480/132/42 491/132/38 483/133/39 481/133/43
f 488/131/34 496/131/35 491/132/38 480/132/42
f 473/126/31 482/126/32 478/127/36 476/127/44
f 476/127/44 478/127/36 492/128/37 484/128/41
f 479/134/45 477/134/40 495/135/33 486/135/30
f 485/130/34 497/130/35 496/131/35 488/131/34
f 487/136/30 494/136/33 493/125/33 489/125/30
f 486/135/30 495/135/33 494/136/33 487/136/30
f 481/133/43 483/133/39 477/134/40 479/134/45
f 499/104/5 500/107/5 503/106/5 502/105/5
f 517/125/30 521/125/33 510/126/32 501/126/31
f 518/129/34 526/129/35 525/130/35 513/130/34
f 521/125/33 522/136/33 523/135/33 505/134/40 511/133/39 519/132/38 524/131/35 525/130/35 526/129/35 520/128/37 506/127/36 510/126/32
f 512/128/41 520/128/37 526/129/35 518/129/34
f 508/132/42 519/132/38 511/133/39 509/133/43
f 516/131/34 524/131/35 519/132/38 508/132/42
f 501/126/31 510/126/32 506/127/36 504/127/44
f 504/127/44 506/127/36 520/128/37 512/128/41
f 507/134/45 505/134/40 523/135/33 514/135/30
f 513/130/34 525/130/35 524/131/35 516/131/34
f 515/136/30 522/136/33 521/125/33 517/125/30
f 514/135/30 523/135/33 522/136/33 515/136/30
f 509/133/43 511/133/39 505/134/40 507/134/45
f 527/104/5 528/107/5 530/106/5 529/105/5
f 537/125/13 538/136/12 539/135/50 531/134/23 534/133/22 535/132/21 540/131/25 541/130/20 542/129/20 536/128/49 532/127/17 533/126/16
f 543/104/5 544/107/5 546/106/5 545/105/5
f 553/125/12 554/136/13 555/135/24 547/134/23 550/133/22 551/132/21 556/131/20 557/130/25 558/129/20 552/128/18 548/127/17 549/126/16
f 559/104/5 560/107/5 563/106/5 562/105/5
f 577/125/30 581/125/33 570/126/32 561/126/31
f 578/129/34 586/129/35 585/130/35 573/130/34
f 581/125/33 582/136/33 583/135/33 565/134/40 571/133/39 579/132/38 584/131/35 585/130/35 586/129/35 580/128/37 566/127/36 570/126/32
f 572/128/41 580/128/37 586/129/35 578/129/34
f 568/132/42 579/132/38 571/133/39 569/133/43
f 576/131/34 584/131/35 579/132/38 568/132/42
f 561/126/31 570/126/32 566/127/36 564/127/44
f 564/127/44 566/127/36 580/128/37 572/128/41
f 567/134/45 565/134/40 583/135/33 574/135/30
f 573/130/34 585/130/35 584/131/35 576/131/34
f 575/136/30 582/136/33 581/125/33 577/125/30
f 574/135/30 583/135/33 582/136/33 575/136/30
f 569/133/43 571/133/39 565/134/40 567/134/45
f 587/104/5 588/107/5 591/106/5 590/105/5
f 605/125/30 609/125/33 598/126/32 589/126/31
f 606/129/34 614/129/35 613/130/35 601/130/34
f 609/125/33 610/136/33 611/135/33 593/134/40 599/133/39 607/132/38 612/131/35 613/130/35 614/129/35 608/128/37 594/127/36 598/126/32
f 600/128/41 608/128/37 614/129/35 606/129/34
f 596/132/42 607/132/38 599/133/39 597/133/43
f 604/131/34 612/131/35 607/132/38 596/132/42
f 589/126/31 598/126/32 594/127/36 592/127/44
f 592/127/44 594/127/36 608/128/37 600/128/41
f 595/134/45 593/134/40 611/135/33 602/135/30
f 601/130/34 613/130/35 612/131/35 604/131/34
f 603/136/30 610/136/33 609/125/33 605/125/30
f 602/135/30 611/135/33 610/136/33 603/136/30
f 597/133/43 599/133/39 593/134/40 595/134/45
f 615/104/5 616/107/5 619/106/5 618/105/5
f 633/125/30 637/125/33 626/126/32 617/126/31
f 634/129/34 642/129/35 641/130/35 629/130/34
f 637/125/33 638/136/33 639/135/33 621/134/40 627/133/39 635/132/38 640/131/35 641/130/35 642/129/35 636/128/37 622/127/36 626/126/32
f 628/128/41 636/128/37 642/129/35 634/129/34
f 624/132/42 635/132/38 627/133/39 625/133/43
f 632/131/34 640/131/35 635/132/38 624/132/42
f 617/126/31 626/126/32 622/127/36 620/127/44
f 620/127/44 622/127/36 636/128/37 628/128/41
f 623/134/45 621/134/40 639/135/33 630/135/30
f 629/130/34 641/130/35 640/131/35 632/131/34
f 631/136/30 638/136/33 637/125/33 633/125/30
f 630/135/30 639/135/33 638/136/33 631/136/30
f 625/133/43 627/133/39 621/134/40 623/134/45
f 643/104/5 644/107/5 647/106/5 646/105/5
f 661/125/30 665/125/33 654/126/32 645/126/31
f 662/129/34 670/129/35 669/130/35 657/130/34
f 665/125/33 666/136/33 667/135/33 649/134/40 655/133/39 663/132/38 668/131/35 669/130/35 670/129/35 664/128/37 650/127/36 654/126/32
f 656/128/41 664/128/37 670/129/35 662/129/34
f 652/132/42 663/132/38 655/133/39 653/133/43
f 660/131/34 668/131/35 663/132/38 652/132/42
f 645/126/31 654/126/32 650/127/36 648/127/44
f 648/127/44 650/127/36 664/128/37 656/128/41
f 651/134/45 649/134/40 667/135/33 658/135/30
f 657/130/34 669/130/35 668/131/35 660/131/34
f 659/136/30 666/136/33 665/125/33 661/125/30
f 658/135/30 667/135/33 666/136/33 659/136/30
f 653/133/43 655/133/39 649/134/40 651/134/45
f 671/104/5 672/107/5 674/106/5 673/105/5
f 681/125/13 682/136/52 683/135/50 675/134/23 678/133/22 679/132/21 684/131/25 685/130/51 686/129/20 680/128/18 676/127/17 677/126/16
f 687/104/5 688/107/5 690/106/5 689/105/5
f 697/125/12 698/136/13 699/135/24 691/134/23 694/133/22 695/132/21 700/131/28 701/130/53 702/129/20 696/128/18 692/127/27 693/126/26
f 703/104/5 704/107/5 707/106/5 706/105/5
f 721/125/30 725/125/33 714/126/32 705/126/31
f 722/129/34 730/129/35 729/130/35 717/130/34
f 725/125/33 726/136/33 727/135/33 709/134/40 715/133/39 723/132/38 728/131/47 729/130/35 730/129/35 724/128/37 710/127/36 714/126/32
f 716/128/41 724/128/37 730/129/35 722/129/34
f 712/132/42 723/132/38 715/133/39 713/133/43
f 720/131/34 728/131/47 723/132/38 712/132/42
f 705/126/31 714/126/32 710/127/36 708/127/44
f 708/127/44 710/127/36 724/128/37 716/128/41
f 711/134/45 709/134/40 727/135/33 718/135/30
f 717/130/34 729/130/35 728/131/47 720/131/34
f 719/136/30 726/136/33 725/125/33 721/125/30
f 718/135/30 727/135/33 726/136/33 719/136/30
f 713/133/43 715/133/39 709/134/40 711/134/45
f 731/104/5 732/107/5 735/106/5 734/105/5
f 749/125/30 753/125/33 742/126/32 733/126/31
f 750/129/34 758/129/35 757/130/35 745/130/34
f 753/125/33 754/136/33 755/135/33 737/134/40 743/133/39 751/132/38 756/131/35 757/130/35 758/129/35 752/128/37 738/127/36 742/126/32
f 744/128/41 752/128/37 758/129/35 750/129/34
f 740/132/42 751/132/38 743/133/39 741/133/43
f 748/131/34 756/131/35 751/132/38 740/132/42
f 733/126/31 742/126/32 738/127/36 736/127/44
f 736/127/44 738/127/36 752/128/37 744/128/41
f 739/134/45 737/134/40 755/135/33 746/135/30
f 745/130/34 757/130/35 756/131/35 748/131/34
f 747/136/30 754/136/33 753/125/33 749/125/30
f 746/135/30 755/135/33 754/136/33 747/136/30
f 741/133/43 743/133/39 737/134/40 739/134/45
f 759/104/5 760/107/5 763/106/5 762/105/5
f 777/125/30 781/125/33 770/126/32 761/126/31
f 778/129/34 786/129/47 785/130/35 773/130/34
f 781/125/33 782/136/33 783/135/33 765/134/40 771/133/39 779/132/38 784/131/35 785/130/35 786/129/47 780/128/37 766/127/36 770/126/32
f 772/128/41 780/128/37 786/129/47 778/129/34
f 768/132/42 779/132/38 771/133/39 769/133/43
f 776/131/34 784/131/35 779/132/38 768/132/42
f 761/126/31 770/126/32 766/127/36 764/127/44
f 764/127/44 766/127/36 780/128/37 772/128/41
f 767/134/45 765/134/40 783/135/33 774/135/30
f 773/130/34 785/130/35 784/131/35 776/131/34
f 775/136/30 782/136/33 781/125/33 777/125/30
f 774/135/30 783/135/33 782/136/33 775/136/30
f 769/133/43 771/133/39 765/134/40 767/134/45
f 787/104/5 788/107/5 791/106/5 790/105/5
f 805/125/30 809/125/33 798/126/32 789/126/31
f 806/129/34 814/129/35 813/130/35 801/130/34
f 809/125/33 810/136/33 811/135/33 793/134/40 799/133/39 807/132/38 812/131/35 813/130/35 814/129/35 808/128/37 794/127/36 798/126/32
f 800/128/41 808/128/37 814/129/35 806/129/34
f 796/132/42 807/132/38 799/133/39 797/133/43
f 804/131/34 812/131/35 807/132/38 796/132/42
f 789/126/31 798/126/32 794/127/36 792/127/44
f 792/127/44 794/127/36 808/128/37 800/128/41
f 795/134/45 793/134/40 811/135/33 802/135/30
f 801/130/34 813/130/35 812/131/35 804/131/34
f 803/136/30 810/136/33 809/125/33 805/125/30
f 802/135/30 811/135/33 810/136/33 803/136/30
f 797/133/43 799/133/39 793/134/40 795/134/45
f 815/104/5 816/107/5 818/106/5 817/105/5
f 825/125/13 826/136/52 827/135/50 819/134/23 822/133/22 823/132/21 828/131/25 829/130/51 830/129/20 824/128/18 820/127/17 821/126/16
f 831/104/5 832/107/5 834/106/5 833/105/5
f 841/125/12 842/136/13 843/135/24 835/134/23 838/133/22 839/132/54 844/131/20 845/130/53 846/129/20 840/128/18 836/127/27 837/126/26
f 847/104/5 848/107/5 851/106/5 850/105/5
f 865/125/30 869/125/33 858/126/32 849/126/31
f 866/129/34 874/129/35 873/130/35 861/130/34
f 869/125/33 870/136/33 871/135/33 853/134/40 859/133/39 867/132/38 872/131/35 873/130/35 874/129/35 868/128/37 854/127/36 858/126/32
f 860/128/41 868/128/37 874/129/35 866/129/34
f 856/132/42 867/132/38 859/133/39 857/133/43
f 864/131/34 872/131/35 867/132/38 856/132/42
f 849/126/31 858/126/32 854/127/36 852/127/44
f 852/127/44 854/127/36 868/128/37 860/128/41
f 855/134/45 853/134/40 871/135/33 862/135/30
f 861/130/34 873/130/35 872/131/35 864/131/34
f 863/136/30 870/136/33 869/125/33 865/125/30
f 862/135/30 871/135/33 870/136/33 863/136/30
f 857/133/43 859/133/39 853/134/40 855/134/45
f 875/104/5 876/107/5 879/106/5 878/105/5
f 893/125/30 897/125/33 886/126/32 877/126/31
f 894/129/34 902/129/35 901/130/47 889/130/34
f 897/125/33 898/136/33 899/135/33 881/134/40 887/133/39 895/132/38 900/131/35 901/130/47 902/129/35 896/128/37 882/127/36 886/126/32
f 888/128/41 896/128/37 902/129/35 894/129/34
f 884/132/55 895/132/38 887/133/39 885/133/43
f 892/131/34 900/131/35 895/132/38 884/132/55
f 877/126/31 886/126/32 882/127/36 880/127/44
f 880/127/44 882/127/36 896/128/37 888/128/41
f 883/134/45 881/134/40 899/135/33 890/135/30
f 889/130/34 901/130/47 900/131/35 892/131/34
f 891/136/30 898/136/33 897/125/33 893/125/30
f 890/135/30 899/135/33 898/136/33 891/136/30
f 885/133/43 887/133/39 881/134/40 883/134/45
f 903/104/5 904/107/5 907/106/5 906/105/5
f 921/125/30 925/125/33 914/126/32 905/126/31
f 922/129/34 930/129/35 929/130/35 917/130/34
f 925/125/33 926/136/33 927/135/33 909/134/40 915/133/39 923/132/38 928/131/35 929/130/35 930/129/35 924/128/37 910/127/36 914/126/32
f 916/128/41 924/128/37 930/129/35 922/129/34
f 912/132/42 923/132/38 915/133/39 913/133/43
f 920/131/34 928/131/35 923/132/38 912/132/42
f 905/126/31 914/126/32 910/127/36 908/127/44
f 908/127/44 910/127/36 924/128/37 916/128/41
f 911/134/45 909/134/40 927/135/33 918/135/30
f 917/130/34 929/130/35 928/131/35 920/131/34
f 919/136/30 926/136/33 925/125/33 921/125/30
f 918/135/30 927/135/33 926/136/33 919/136/30
f 913/133/43 915/133/39 909/134/40 911/134/45
f 931/104/5 932/107/5 935/106/5 934/105/5
f 949/125/30 953/125/33 942/126/32 933/126/56
f 950/129/34 958/129/35 957/130/35 945/130/34
f 953/125/33 954/136/33 955/135/33 937/134/40 943/133/39 951/132/38 956/131/46 957/130/35 958/129/35 952/128/37 938/127/36 942/126/32
f 944/128/41 952/128/37 958/129/35 950/129/34
f 940/132/42 951/132/38 943/133/39 941/133/43
f 948/131/34 956/131/46 951/132/38 940/132/42
f 933/126/56 942/126/32 938/127/36 936/127/44
f 936/127/44 938/127/36 952/128/37 944/128/41
f 939/134/45 937/134/40 955/135/33 946/135/30
f 945/130/34 957/130/35 956/131/46 948/131/34
f 947/136/30 954/136/33 953/125/33 949/125/30
f 946/135/30 955/135/33 954/136/33 947/136/30
f 941/133/43 943/133/39 937/134/40 939/134/45
f 973/125/30 977/125/30 966/126/31 959/126/31
f 974/129/34 982/129/34 981/130/34 969/130/34
f 968/128/41 976/128/41 982/129/34 974/129/34
f 964/132/42 975/132/42 967/133/43 965/133/43
f 972/131/34 980/131/34 975/132/42 964/132/42
f 959/126/31 966/126/31 962/127/44 960/127/44
f 960/127/44 962/127/44 976/128/41 968/128/41
f 963/134/45 961/134/45 979/135/30 970/135/30
f 969/130/34 981/130/34 980/131/34 972/131/34
f 971/136/30 978/136/30 977/125/30 973/125/30
f 970/135/30 979/135/30 978/136/30 971/136/30
f 965/133/43 967/133/43 961/134/45 963/134/45
f 997/125/30 1001/125/30 990/126/31 983/126/31
f 998/129/34 1006/129/34 1005/130/34 993/130/34
f 992/128/41 1000/128/41 1006/129/34 998/129/34
f 988/132/42 999/132/42 991/133/43 989/133/43
f 996/131/34 1004/131/34 999/132/42 988/132/42
f 983/126/31 990/126/31 986/127/44 984/127/44
f 984/127/44 986/127/44 1000/128/41 992/128/41
f 987/134/45 985/134/45 1003/135/30 994/135/30
f 993/130/34 1005/130/34 1004/131/34 996/131/34
f 995/136/30 1002/136/30 1001/125/30 997/125/30
f 994/135/30 1003/135/30 1002/136/30 995/136/30
f 989/133/43 991/133/43 985/134/45 987/134/45
s 0
f 1007/141/57 1008/144/57 1010/143/57 1009/142/57
f 1009/142/5 1010/143/5 1014/146/5 1013/145/5
f 1013/145/1 1014/146/1 1012/148/1 1011/147/1
f 1011/147/58 1012/148/58 1008/150/58 1007/149/58
f 1009/151/2 1013/145/2 1011/147/2 1007/152/2
f 1014/146/3 1010/154/3 1008/153/3 1012/148/3
f 1016/155/59 1017/158/59 1018/157/59 1015/156/59
f 1015/156/60 1018/157/60 1020/160/60 1019/159/60
f 1019/159/1 1020/160/1 1022/162/1 1021/161/1
f 1021/161/6 1022/162/6 1017/164/6 1016/163/6
f 1015/156/4 1031/156/4 1032/155/4 1016/155/4
f 1020/160/3 1018/166/3 1017/165/3 1022/162/3
f 1039/167/1 1023/156/1 1026/157/1 1040/168/1
f 1023/156/61 1027/159/61 1028/160/61 1026/157/61
f 1046/169/4 1029/161/4 1030/162/4 1044/170/4
f 1029/161/62 1024/163/62 1025/164/62 1030/162/62
f 1043/171/3 1024/172/3 1029/161/3 1046/169/3
f 1044/170/2 1030/162/2 1025/165/2 1045/173/2
f 1031/174/2 1033/159/2 1034/161/2 1032/172/2
f 1021/161/1 1034/161/1 1033/159/1 1019/159/1
f 1021/161/63 1036/161/63 1038/161/63 1034/161/63
f 1019/159/64 1033/159/64 1031/156/64 1015/156/64
f 1035/163/65 1037/163/65 1038/161/65 1036/161/65
f 1034/161/63 1038/161/63 1037/172/63 1032/172/63
f 1016/163/63 1035/163/63 1036/161/63 1021/161/63
f 1032/155/63 1037/155/63 1035/155/63 1016/155/63
f 1028/160/2 1042/176/2 1040/175/2 1026/166/2
f 1023/174/3 1039/178/3 1041/177/3 1027/159/3
f 1027/159/66 1041/177/66 1042/176/66 1028/160/66
f 1043/179/1 1039/167/1 1040/168/1 1045/180/1
f 1024/155/1 1043/179/1 1045/180/1 1025/158/1
f 1042/176/67 1044/170/67 1045/173/67 1040/175/67
f 1039/178/3 1043/171/3 1046/169/3 1041/177/3
f 1041/177/4 1046/169/4 1044/170/4 1042/176/4
f 1048/155/68 1049/158/68 1050/157/68 1047/156/68
f 1047/156/69 1050/157/69 1052/160/69 1051/159/69
f 1051/159/70 1052/160/70 1054/162/70 1053/161/70
f 1053/161/71 1054/162/71 1049/164/71 1048/163/71
f 1047/156/72 1063/156/72 1064/155/72 1048/155/72
f 1052/160/73 1050/166/73 1049/165/73 1054/162/73
f 1071/167/70 1055/156/70 1058/157/70 1072/168/70
f 1055/156/71 1059/159/71 1060/160/71 1058/157/71
f 1078/169/72 1061/161/72 1062/162/72 1076/170/72
f 1061/161/62 1056/163/62 1057/164/62 1062/162/62
f 1075/171/73 1056/172/73 1061/161/73 1078/169/73
f 1076/170/74 1062/162/74 1057/165/74 1077/173/74
f 1063/174/74 1065/159/74 1066/161/74 1064/172/74
f 1053/161/75 1066/161/75 1065/159/75 1051/159/75
f 1053/161/63 1068/161/63 1070/161/63 1066/161/63
f 1051/159/76 1065/159/76 1063/156/76 1047/156/76
f 1067/163/77 1069/163/77 1070/161/77 1068/161/77
f 1066/161/63 1070/161/63 1069/172/63 1064/172/63
f 1048/163/63 1067/163/63 1068/161/63 1053/161/63
f 1064/155/63 1069/155/63 1067/155/63 1048/155/63
f 1060/160/74 1074/176/74 1072/175/74 1058/166/74
f 1055/174/73 1071/178/73 1073/177/73 1059/159/73
f 1059/159/78 1073/177/78 1074/176/78 1060/160/78
f 1075/179/75 1071/167/75 1072/168/75 1077/180/75
f 1056/155/75 1075/179/75 1077/180/75 1057/158/75
f 1074/176/79 1076/170/79 1077/173/79 1072/175/79
f 1071/178/73 1075/171/73 1078/169/73 1073/177/73
f 1073/177/72 1078/169/72 1076/170/72 1074/176/72
